SplineFontDB: 3.2
FontName: Montserrat-MediumItalic
FullName: Montserrat Medium Italic
FamilyName: Montserrat Medium
Weight: Medium
Copyright: Copyright 2011 The Montserrat Project Authors (https://github.com/JulietaUla/Montserrat)
Version: 9.000
ItalicAngle: -11.3
UnderlinePosition: -125
UnderlineWidth: 50
Ascent: 800
Descent: 200
InvalidEm: 0
sfntRevision: 0x00090000
LayerCount: 2
Layer: 0 1 "Back" 1
Layer: 1 1 "Fore" 0
XUID: [1021 598 623987363 15625771]
StyleMap: 0x0001
FSType: 0
OS2Version: 4
OS2_WeightWidthSlopeOnly: 0
OS2_UseTypoMetrics: 1
CreationTime: 1624264748
ModificationTime: 1773234936
PfmFamily: 81
TTFWeight: 500
TTFWidth: 5
LineGap: 0
VLineGap: 0
Panose: 0 0 0 0 0 0 0 0 0 0
OS2TypoAscent: 968
OS2TypoAOffset: 0
OS2TypoDescent: -251
OS2TypoDOffset: 0
OS2TypoLinegap: 0
OS2WinAscent: 1109
OS2WinAOffset: 0
OS2WinDescent: 453
OS2WinDOffset: 0
HheadAscent: 968
HheadAOffset: 0
HheadDescent: -251
HheadDOffset: 0
OS2SubXSize: 650
OS2SubYSize: 600
OS2SubXOff: -15
OS2SubYOff: 75
OS2SupXSize: 650
OS2SupYSize: 600
OS2SupXOff: 70
OS2SupYOff: 350
OS2StrikeYSize: 50
OS2StrikeYPos: 318
OS2CapHeight: 700
OS2XHeight: 530
OS2Vendor: 'ULA '
OS2CodePages: 20000197.00000000
OS2UnicodeRanges: a00002ff.4000247b.00000000.00000000
Lookup: 1 0 0 "'aalt' Access All Alternates lookup 0" { "'aalt' Access All Alternates lookup 0 subtable"  } ['aalt' ('DFLT' <'NAV ' 'dflt' > 'cyrl' <'BGR ' 'BSH ' 'CHU ' 'MKD ' 'SRB ' 'dflt' > 'latn' <'AZE ' 'CAT ' 'CRT ' 'KAZ ' 'MOL ' 'NAV ' 'NLD ' 'NSM ' 'ROM ' 'TAT ' 'TOD0' 'TRK ' 'VIT ' 'XPE ' 'dflt' > ) ]
Lookup: 3 0 0 "'aalt' Access All Alternates lookup 1" { "'aalt' Access All Alternates lookup 1 subtable"  } ['aalt' ('DFLT' <'NAV ' 'dflt' > 'cyrl' <'BGR ' 'BSH ' 'CHU ' 'MKD ' 'SRB ' 'dflt' > 'latn' <'AZE ' 'CAT ' 'CRT ' 'KAZ ' 'MOL ' 'NAV ' 'NLD ' 'NSM ' 'ROM ' 'TAT ' 'TOD0' 'TRK ' 'VIT ' 'XPE ' 'dflt' > ) ]

StartChar: .notdef
Encoding: 65536 -1 0
Width: 607
GlyphClass: 1
Flags: W
LayerCount: 2
Fore
SplineSet
-3 0 m 1,0,-1
 137 700 l 1,1,-1
 644 700 l 1,2,-1
 504 0 l 1,3,-1
 -3 0 l 1,0,-1
91 70 m 1,4,-1
 438 70 l 1,5,-1
 550 630 l 1,6,-1
 203 630 l 1,7,-1
 91 70 l 1,4,-1
EndSplineSet
EndChar

StartChar: A
Encoding: 65 65 1
Width: 752
GlyphClass: 2
Flags: W
AnchorPoint: "Anchor-3" 463 700 basechar 0
AnchorPoint: "Anchor-2" 690 0 basechar 0
AnchorPoint: "Anchor-0" 323 0 basechar 0
LayerCount: 2
Fore
SplineSet
-44 0 m 1,0,-1
 414 700 l 1,1,-1
 513 700 l 1,2,-1
 690 0 l 1,3,-1
 591 0 l 1,4,-1
 435 646 l 1,5,-1
 475 646 l 1,6,-1
 64 0 l 1,7,-1
 -44 0 l 1,0,-1
126 175 m 1,8,-1
 170 255 l 1,9,-1
 563 255 l 1,10,-1
 577 175 l 1,11,-1
 126 175 l 1,8,-1
EndSplineSet
Substitution2: "'ss01' Style Set 1 lookup 50 subtable" A.ss01
Substitution2: "'c2sc' Capitals to Small Capitals lookup 45 subtable" a.sc
Substitution2: "Single Substitution lookup 39 subtable" ordfeminine
AlternateSubs2: "'aalt' Access All Alternates lookup 1 subtable" ordfeminine a.sc A.ss01
EndChar

StartChar: uni2C6D
Encoding: 11373 11373 25
Width: 915
GlyphClass: 2
Flags: W
AnchorPoint: "Anchor-3" 542 700 basechar 0
AnchorPoint: "Anchor-2" 747 0 basechar 0
AnchorPoint: "Anchor-0" 402 0 basechar 0
LayerCount: 2
Fore
SplineSet
380 -8 m 0,0,1
 286 -8 286 -8 217 30 c 128,-1,2
 148 68 148 68 109.5 137.5 c 128,-1,3
 71 207 71 207 71 299 c 0,4,5
 71 386 71 386 103.5 460.5 c 128,-1,6
 136 535 136 535 193.5 590.5 c 128,-1,7
 251 646 251 646 327.5 677 c 128,-1,8
 404 708 404 708 494 708 c 0,9,10
 601 708 601 708 671.5 663 c 128,-1,11
 742 618 742 618 769.5 536.5 c 128,-1,12
 797 455 797 455 775 344 c 0,13,14
 754 236 754 236 698.5 157 c 128,-1,15
 643 78 643 78 561 35 c 128,-1,16
 479 -8 479 -8 380 -8 c 0,0,1
392 81 m 0,17,18
 473 81 473 81 543 117.5 c 128,-1,19
 613 154 613 154 660 217 c 128,-1,20
 707 280 707 280 720 359 c 0,21,22
 733 435 733 435 707.5 493.5 c 128,-1,23
 682 552 682 552 626 585.5 c 128,-1,24
 570 619 570 619 490 619 c 0,25,26
 423 619 423 619 364.5 595 c 128,-1,27
 306 571 306 571 262.5 528 c 128,-1,28
 219 485 219 485 195 427.5 c 128,-1,29
 171 370 171 370 171 303 c 0,30,31
 171 200 171 200 230 140.5 c 128,-1,32
 289 81 289 81 392 81 c 0,17,18
651 0 m 1,33,-1
 692 208 l 1,34,-1
 732 353 l 1,35,-1
 747 498 l 1,36,-1
 787 700 l 1,37,-1
 887 700 l 1,38,-1
 747 0 l 1,39,-1
 651 0 l 1,33,-1
EndSplineSet
Substitution2: "'c2sc' Capitals to Small Capitals lookup 45 subtable" uni0251.sc
Substitution2: "'aalt' Access All Alternates lookup 0 subtable" uni0251.sc
EndChar

StartChar: uni023A
Encoding: 570 570 31
Width: 752
GlyphClass: 1
Flags: W
LayerCount: 2
Fore
SplineSet
127 -70 m 1,0,-1
 661 770 l 1,1,-1
 744 770 l 1,2,-1
 210 -70 l 1,3,-1
 127 -70 l 1,0,-1
126 178 m 1,4,-1
 169 253 l 1,5,-1
 562 253 l 1,6,-1
 576 178 l 1,7,-1
 126 178 l 1,4,-1
-44 0 m 1,8,-1
 413 700 l 1,9,-1
 512 700 l 1,10,-1
 690 0 l 1,11,-1
 588 0 l 1,12,-1
 434 649 l 1,13,-1
 475 649 l 1,14,-1
 62 0 l 1,15,-1
 -44 0 l 1,8,-1
EndSplineSet
Substitution2: "'ss01' Style Set 1 lookup 50 subtable" uni023A.ss01
Substitution2: "'c2sc' Capitals to Small Capitals lookup 45 subtable" uni2C65.sc
AlternateSubs2: "'aalt' Access All Alternates lookup 1 subtable" uni2C65.sc uni023A.ss01
EndChar

StartChar: uni2C6F
Encoding: 11375 11375 33
Width: 752
GlyphClass: 2
Flags: W
AnchorPoint: "Anchor-3" 463 700 basechar 0
AnchorPoint: "Anchor-0" 323 0 basechar 0
LayerCount: 2
Fore
SplineSet
830 700 m 1,0,-1
 372 0 l 1,1,-1
 274 0 l 1,2,-1
 96 700 l 1,3,-1
 196 700 l 1,4,-1
 351 54 l 1,5,-1
 311 54 l 1,6,-1
 723 700 l 1,7,-1
 830 700 l 1,0,-1
660 525 m 1,8,-1
 617 445 l 1,9,-1
 223 445 l 1,10,-1
 209 525 l 1,11,-1
 660 525 l 1,8,-1
EndSplineSet
Substitution2: "'ss01' Style Set 1 lookup 50 subtable" uni2C6F.ss01
Substitution2: "'c2sc' Capitals to Small Capitals lookup 45 subtable" uni0250.sc
AlternateSubs2: "'aalt' Access All Alternates lookup 1 subtable" uni0250.sc uni2C6F.ss01
EndChar

StartChar: AE
Encoding: 198 198 34
Width: 1067
GlyphClass: 2
Flags: W
AnchorPoint: "Anchor-3" 704 700 basechar 0
AnchorPoint: "Anchor-2" 948 0 basechar 0
AnchorPoint: "Anchor-0" 490 0 basechar 0
LayerCount: 2
Fore
SplineSet
-45 0 m 1,0,-1
 508 700 l 1,1,-1
 614 700 l 1,2,-1
 599 616 l 1,3,-1
 511 616 l 1,4,-1
 582 657 l 1,5,-1
 67 0 l 1,6,-1
 -45 0 l 1,0,-1
172 175 m 1,7,-1
 193 255 l 1,8,-1
 525 255 l 1,9,-1
 510 175 l 1,10,-1
 172 175 l 1,7,-1
441 0 m 1,11,-1
 581 700 l 1,12,-1
 1074 700 l 1,13,-1
 1056 613 l 1,14,-1
 662 613 l 1,15,-1
 557 87 l 1,16,-1
 966 87 l 1,17,-1
 948 0 l 1,18,-1
 441 0 l 1,11,-1
592 313 m 1,19,-1
 611 398 l 1,20,-1
 970 398 l 1,21,-1
 953 313 l 1,22,-1
 592 313 l 1,19,-1
EndSplineSet
Substitution2: "'ss01' Style Set 1 lookup 50 subtable" AE.ss01
Substitution2: "'c2sc' Capitals to Small Capitals lookup 45 subtable" ae.sc
AlternateSubs2: "'aalt' Access All Alternates lookup 1 subtable" ae.sc AE.ss01
EndChar

StartChar: B
Encoding: 66 66 37
Width: 777
GlyphClass: 2
Flags: W
AnchorPoint: "Anchor-3" 474 700 basechar 0
AnchorPoint: "Anchor-0" 334 0 basechar 0
LayerCount: 2
Fore
SplineSet
62 0 m 1,0,-1
 202 700 l 1,1,-1
 512 700 l 2,2,3
 617 700 617 700 675 661 c 128,-1,4
 733 622 733 622 733 546 c 0,5,6
 733 480 733 480 700.5 434.5 c 128,-1,7
 668 389 668 389 616 366 c 128,-1,8
 564 343 564 343 506 343 c 1,9,-1
 529 372 l 1,10,11
 607 372 607 372 655 333 c 128,-1,12
 703 294 703 294 703 219 c 0,13,14
 703 147 703 147 665.5 98 c 128,-1,15
 628 49 628 49 559.5 24.5 c 128,-1,16
 491 0 491 0 399 0 c 2,17,-1
 62 0 l 1,0,-1
178 81 m 1,18,-1
 406 81 l 2,19,20
 500 81 500 81 552 116 c 128,-1,21
 604 151 604 151 604 218 c 0,22,23
 604 271 604 271 566 292.5 c 128,-1,24
 528 314 528 314 458 314 c 2,25,-1
 208 314 l 1,26,-1
 224 395 l 1,27,-1
 445 395 l 2,28,29
 500 395 500 395 541.5 410 c 128,-1,30
 583 425 583 425 606 455 c 128,-1,31
 629 485 629 485 629 530 c 0,32,33
 629 576 629 576 593 597.5 c 128,-1,34
 557 619 557 619 491 619 c 2,35,-1
 285 619 l 1,36,-1
 178 81 l 1,18,-1
EndSplineSet
Substitution2: "'c2sc' Capitals to Small Capitals lookup 45 subtable" b.sc
Substitution2: "'aalt' Access All Alternates lookup 0 subtable" b.sc
EndChar

StartChar: uniA7B4
Encoding: 42932 42932 40
Width: 777
GlyphClass: 2
Flags: W
AnchorPoint: "Anchor-3" 478 700 basechar 0
AnchorPoint: "Anchor-0" 338 0 basechar 0
LayerCount: 2
Fore
SplineSet
123 81 m 1,0,-1
 406 81 l 2,1,2
 501 81 501 81 552.5 116 c 128,-1,3
 604 151 604 151 604 218 c 0,4,5
 604 271 604 271 566.5 292.5 c 128,-1,6
 529 314 529 314 458 314 c 2,7,-1
 208 314 l 1,8,-1
 224 395 l 1,9,-1
 445 395 l 2,10,11
 500 395 500 395 541.5 410 c 128,-1,12
 583 425 583 425 606.5 455 c 128,-1,13
 630 485 630 485 630 530 c 0,14,15
 630 576 630 576 593.5 597.5 c 128,-1,16
 557 619 557 619 491 619 c 2,17,-1
 285 619 l 1,18,-1
 123 -194 l 1,19,-1
 23 -194 l 1,20,-1
 202 700 l 1,21,-1
 512 700 l 2,22,23
 617 700 617 700 675 661 c 128,-1,24
 733 622 733 622 733 546 c 0,25,26
 733 480 733 480 700.5 434.5 c 128,-1,27
 668 389 668 389 616 366 c 128,-1,28
 564 343 564 343 506 343 c 1,29,-1
 529 372 l 1,30,31
 607 372 607 372 655 333 c 128,-1,32
 703 294 703 294 703 219 c 0,33,34
 703 147 703 147 665.5 98 c 128,-1,35
 628 49 628 49 559.5 24.5 c 128,-1,36
 491 0 491 0 399 0 c 2,37,-1
 123 0 l 1,38,-1
 123 81 l 1,0,-1
EndSplineSet
Substitution2: "'c2sc' Capitals to Small Capitals lookup 45 subtable" uniA7B5.sc
Substitution2: "'aalt' Access All Alternates lookup 0 subtable" uniA7B5.sc
EndChar

StartChar: uni0181
Encoding: 385 385 41
Width: 947
GlyphClass: 2
Flags: W
AnchorPoint: "Anchor-3" 644 700 basechar 0
AnchorPoint: "Anchor-0" 504 0 basechar 0
LayerCount: 2
Fore
SplineSet
139 383 m 1,0,1
 102 439 102 439 97 495 c 128,-1,2
 92 551 92 551 114 597.5 c 128,-1,3
 136 644 136 644 181.5 672 c 128,-1,4
 227 700 227 700 290 700 c 2,5,-1
 381 700 l 1,6,-1
 363 613 l 1,7,-1
 291 613 l 2,8,9
 248 613 248 613 222 586 c 128,-1,10
 196 559 196 559 193.5 518.5 c 128,-1,11
 191 478 191 478 219 438 c 1,12,-1
 139 383 l 1,0,1
232 0 m 1,13,-1
 372 700 l 1,14,-1
 682 700 l 2,15,16
 787 700 787 700 845 661 c 128,-1,17
 903 622 903 622 903 546 c 0,18,19
 903 480 903 480 870.5 434.5 c 128,-1,20
 838 389 838 389 786 366 c 128,-1,21
 734 343 734 343 676 343 c 1,22,-1
 699 372 l 1,23,24
 777 372 777 372 825 333 c 128,-1,25
 873 294 873 294 873 219 c 0,26,27
 873 147 873 147 835 98 c 128,-1,28
 797 49 797 49 729 24.5 c 128,-1,29
 661 0 661 0 569 0 c 2,30,-1
 232 0 l 1,13,-1
348 81 m 1,31,-1
 576 81 l 2,32,33
 670 81 670 81 722 116 c 128,-1,34
 774 151 774 151 774 218 c 0,35,36
 774 271 774 271 736 292.5 c 128,-1,37
 698 314 698 314 628 314 c 2,38,-1
 378 314 l 1,39,-1
 394 395 l 1,40,-1
 615 395 l 2,41,42
 670 395 670 395 711.5 410 c 128,-1,43
 753 425 753 425 776 455 c 128,-1,44
 799 485 799 485 799 530 c 0,45,46
 799 576 799 576 763 597.5 c 128,-1,47
 727 619 727 619 661 619 c 2,48,-1
 455 619 l 1,49,-1
 348 81 l 1,31,-1
EndSplineSet
Substitution2: "'c2sc' Capitals to Small Capitals lookup 45 subtable" uni0253.sc
Substitution2: "'locl' Localized Forms in Latin lookup 19 subtable" uni0181.loclXPE
AlternateSubs2: "'aalt' Access All Alternates lookup 1 subtable" uni0181.loclXPE uni0253.sc
EndChar

StartChar: uni0243
Encoding: 579 579 43
Width: 796
GlyphClass: 2
Flags: W
AnchorPoint: "Anchor-3" 494 700 basechar 0
AnchorPoint: "Anchor-0" 354 0 basechar 0
LayerCount: 2
Fore
SplineSet
80 0 m 1,0,-1
 220 700 l 1,1,-1
 534 700 l 2,2,3
 615 700 615 700 666.5 676 c 128,-1,4
 718 652 718 652 739.5 609.5 c 128,-1,5
 761 567 761 567 749 510 c 0,6,7
 737 454 737 454 703.5 417 c 128,-1,8
 670 380 670 380 623.5 362 c 128,-1,9
 577 344 577 344 527 344 c 1,10,-1
 551 374 l 1,11,12
 610 374 610 374 651.5 349 c 128,-1,13
 693 324 693 324 712 281 c 128,-1,14
 731 238 731 238 719 183 c 0,15,16
 701 93 701 93 624 46.5 c 128,-1,17
 547 0 547 0 414 0 c 2,18,-1
 80 0 l 1,0,-1
9 161 m 1,19,-1
 24 238 l 1,20,-1
 161 238 l 1,21,-1
 182 238 l 1,22,-1
 379 238 l 1,23,-1
 364 161 l 1,24,-1
 167 161 l 1,25,-1
 146 161 l 1,26,-1
 9 161 l 1,19,-1
195 81 m 1,27,-1
 426 81 l 2,28,29
 509 81 509 81 559 109 c 128,-1,30
 609 137 609 137 621 197 c 0,31,32
 633 258 633 258 594.5 287 c 128,-1,33
 556 316 556 316 473 316 c 2,34,-1
 234 316 l 1,35,-1
 251 398 l 1,36,-1
 464 398 l 2,37,38
 541 398 541 398 588.5 424.5 c 128,-1,39
 636 451 636 451 647 507 c 256,40,41
 658 563 658 563 621 591 c 128,-1,42
 584 619 584 619 508 619 c 2,43,-1
 303 619 l 1,44,-1
 195 81 l 1,27,-1
EndSplineSet
Substitution2: "'c2sc' Capitals to Small Capitals lookup 45 subtable" uni0180.sc
Substitution2: "'aalt' Access All Alternates lookup 0 subtable" uni0180.sc
EndChar

StartChar: uni0182
Encoding: 386 386 44
Width: 777
GlyphClass: 2
Flags: W
AnchorPoint: "Anchor-3" 474 700 basechar 0
AnchorPoint: "Anchor-0" 334 0 basechar 0
LayerCount: 2
Fore
SplineSet
62 0 m 1,0,-1
 202 700 l 1,1,-1
 742 700 l 1,2,-1
 725 619 l 1,3,-1
 285 619 l 1,4,-1
 178 81 l 1,5,-1
 409 81 l 2,6,7
 469 81 469 81 513 98 c 128,-1,8
 557 115 557 115 581 147 c 128,-1,9
 605 179 605 179 605 223 c 0,10,11
 605 276 605 276 568.5 298.5 c 128,-1,12
 532 321 532 321 457 321 c 2,13,-1
 218 321 l 1,14,-1
 234 403 l 1,15,-1
 473 403 l 2,16,17
 582 403 582 403 643.5 361.5 c 128,-1,18
 705 320 705 320 705 230 c 0,19,20
 705 157 705 157 665.5 105.5 c 128,-1,21
 626 54 626 54 556.5 27 c 128,-1,22
 487 0 487 0 396 0 c 2,23,-1
 62 0 l 1,0,-1
EndSplineSet
Substitution2: "'c2sc' Capitals to Small Capitals lookup 45 subtable" uni0183.sc
Substitution2: "'aalt' Access All Alternates lookup 0 subtable" uni0183.sc
EndChar

StartChar: C
Encoding: 67 67 45
Width: 743
GlyphClass: 2
Flags: W
AnchorPoint: "Anchor-3" 508 700 basechar 0
AnchorPoint: "Anchor-0" 369 0 basechar 0
LayerCount: 2
Fore
SplineSet
404 -8 m 0,0,1
 298 -8 298 -8 223.5 29 c 128,-1,2
 149 66 149 66 109.5 132.5 c 128,-1,3
 70 199 70 199 70 287 c 0,4,5
 70 374 70 374 100 450.5 c 128,-1,6
 130 527 130 527 186.5 585 c 128,-1,7
 243 643 243 643 321.5 675.5 c 128,-1,8
 400 708 400 708 499 708 c 0,9,10
 586 708 586 708 653 680 c 128,-1,11
 720 652 720 652 756 599 c 1,12,-1
 684 537 l 1,13,14
 653 577 653 577 605 598 c 128,-1,15
 557 619 557 619 492 619 c 0,16,17
 417 619 417 619 357.5 593.5 c 128,-1,18
 298 568 298 568 256 522.5 c 128,-1,19
 214 477 214 477 192 418 c 128,-1,20
 170 359 170 359 170 293 c 0,21,22
 170 230 170 230 197.5 182.5 c 128,-1,23
 225 135 225 135 278.5 108 c 128,-1,24
 332 81 332 81 411 81 c 0,25,26
 475 81 475 81 528.5 102 c 128,-1,27
 582 123 582 123 623 164 c 1,28,-1
 681 98 l 1,29,30
 633 45 633 45 561 18.5 c 128,-1,31
 489 -8 489 -8 404 -8 c 0,0,1
EndSplineSet
Substitution2: "'c2sc' Capitals to Small Capitals lookup 45 subtable" c.sc
Substitution2: "'aalt' Access All Alternates lookup 0 subtable" c.sc
EndChar

StartChar: uniA792
Encoding: 42898 42898 47
Width: 813
GlyphClass: 2
Flags: W
AnchorPoint: "Anchor-3" 577 700 basechar 0
AnchorPoint: "Anchor-0" 439 0 basechar 0
LayerCount: 2
Fore
SplineSet
474 -8 m 0,0,1
 368 -8 368 -8 293.5 29 c 128,-1,2
 219 66 219 66 179.5 132.5 c 128,-1,3
 140 199 140 199 140 287 c 0,4,5
 140 374 140 374 170 450.5 c 128,-1,6
 200 527 200 527 256.5 585 c 128,-1,7
 313 643 313 643 391.5 675.5 c 128,-1,8
 470 708 470 708 569 708 c 0,9,10
 656 708 656 708 723 680 c 128,-1,11
 790 652 790 652 826 599 c 1,12,-1
 754 537 l 1,13,14
 723 577 723 577 675 598 c 128,-1,15
 627 619 627 619 561 619 c 0,16,17
 487 619 487 619 427.5 593.5 c 128,-1,18
 368 568 368 568 326 522.5 c 128,-1,19
 284 477 284 477 262 418 c 128,-1,20
 240 359 240 359 240 293 c 0,21,22
 240 230 240 230 267.5 182.5 c 128,-1,23
 295 135 295 135 348.5 108 c 128,-1,24
 402 81 402 81 481 81 c 0,25,26
 545 81 545 81 598.5 102 c 128,-1,27
 652 123 652 123 693 164 c 1,28,-1
 751 98 l 1,29,30
 703 45 703 45 630.5 18.5 c 128,-1,31
 558 -8 558 -8 474 -8 c 0,0,1
34 319 m 1,32,-1
 49 398 l 1,33,-1
 428 398 l 1,34,-1
 413 319 l 1,35,-1
 34 319 l 1,32,-1
EndSplineSet
Substitution2: "'c2sc' Capitals to Small Capitals lookup 45 subtable" uniA793.sc
Substitution2: "'aalt' Access All Alternates lookup 0 subtable" uniA793.sc
EndChar

StartChar: uniA7B3
Encoding: 42931 42931 53
Width: 574
GlyphClass: 1
Flags: W
LayerCount: 2
Fore
SplineSet
607 -140 m 1,0,1
 571 -171 571 -171 533 -187 c 128,-1,2
 495 -203 495 -203 460.5 -201 c 128,-1,3
 426 -199 426 -199 400 -177.5 c 128,-1,4
 374 -156 374 -156 361 -113 c 2,5,-1
 259 202 l 1,6,-1
 237 245 l 1,7,-1
 123 569 l 2,8,9
 111 605 111 605 91 614.5 c 128,-1,10
 71 624 71 624 47 615 c 128,-1,11
 23 606 23 606 0 585 c 1,12,-1
 -37 646 l 1,13,14
 -1 677 -1 677 37 693 c 128,-1,15
 75 709 75 709 109 707 c 128,-1,16
 143 705 143 705 169.5 683.5 c 128,-1,17
 196 662 196 662 210 619 c 2,18,-1
 307 327 l 1,19,-1
 326 286 l 1,20,-1
 447 -63 l 2,21,22
 460 -98 460 -98 480.5 -108 c 128,-1,23
 501 -118 501 -118 524 -108.5 c 128,-1,24
 547 -99 547 -99 569 -78 c 1,25,-1
 607 -140 l 1,0,1
-133 -194 m 1,26,-1
 249 303 l 1,27,-1
 264 300 l 1,28,-1
 558 702 l 1,29,-1
 674 702 l 1,30,-1
 310 236 l 1,31,-1
 297 235 l 1,32,-1
 -15 -194 l 1,33,-1
 -133 -194 l 1,26,-1
EndSplineSet
Substitution2: "'c2sc' Capitals to Small Capitals lookup 45 subtable" uniAB53.sc
Substitution2: "'aalt' Access All Alternates lookup 0 subtable" uniAB53.sc
EndChar

StartChar: uni0187
Encoding: 391 391 54
Width: 743
GlyphClass: 2
Flags: W
AnchorPoint: "Anchor-3" 479 700 basechar 0
AnchorPoint: "Anchor-0" 337 0 basechar 0
LayerCount: 2
Fore
SplineSet
411 -8 m 0,0,1
 306 -8 306 -8 231 29 c 128,-1,2
 156 66 156 66 117 132.5 c 128,-1,3
 78 199 78 199 78 287 c 0,4,5
 78 374 78 374 108 450.5 c 128,-1,6
 138 527 138 527 194 585 c 128,-1,7
 250 643 250 643 329 675.5 c 128,-1,8
 408 708 408 708 506 708 c 0,9,10
 594 708 594 708 660.5 679.5 c 128,-1,11
 727 651 727 651 763 599 c 1,12,-1
 692 537 l 1,13,14
 661 577 661 577 613 598 c 128,-1,15
 565 619 565 619 499 619 c 0,16,17
 425 619 425 619 365.5 593.5 c 128,-1,18
 306 568 306 568 264 522.5 c 128,-1,19
 222 477 222 477 200 418 c 128,-1,20
 178 359 178 359 178 293 c 0,21,22
 178 230 178 230 205 182.5 c 128,-1,23
 232 135 232 135 286 108 c 128,-1,24
 340 81 340 81 418 81 c 0,25,26
 483 81 483 81 536.5 102 c 128,-1,27
 590 123 590 123 630 164 c 1,28,-1
 689 98 l 1,29,30
 641 45 641 45 568.5 18.5 c 128,-1,31
 496 -8 496 -8 411 -8 c 0,0,1
671 599 m 1,32,-1
 685 674 l 2,33,34
 694 720 694 720 719 753 c 128,-1,35
 744 786 744 786 778 804.5 c 128,-1,36
 812 823 812 823 850.5 825.5 c 128,-1,37
 889 828 889 828 923 815 c 1,38,-1
 900 739 l 1,39,40
 870 749 870 749 844 742 c 128,-1,41
 818 735 818 735 799.5 713 c 128,-1,42
 781 691 781 691 774 655 c 2,43,-1
 763 599 l 1,44,-1
 671 599 l 1,32,-1
EndSplineSet
Substitution2: "'c2sc' Capitals to Small Capitals lookup 45 subtable" uni0188.sc
Substitution2: "'aalt' Access All Alternates lookup 0 subtable" uni0188.sc
EndChar

StartChar: uni023B
Encoding: 571 571 55
Width: 743
GlyphClass: 2
Flags: W
AnchorPoint: "Anchor-3" 510 700 basechar 0
AnchorPoint: "Anchor-0" 359 0 basechar 0
LayerCount: 2
Fore
SplineSet
118 -70 m 1,0,-1
 669 770 l 1,1,-1
 750 770 l 1,2,-1
 200 -70 l 1,3,-1
 118 -70 l 1,0,-1
404 -8 m 0,4,5
 298 -8 298 -8 223.5 29 c 128,-1,6
 149 66 149 66 109.5 132.5 c 128,-1,7
 70 199 70 199 70 287 c 0,8,9
 70 374 70 374 100 450.5 c 128,-1,10
 130 527 130 527 186.5 585 c 128,-1,11
 243 643 243 643 321.5 675.5 c 128,-1,12
 400 708 400 708 499 708 c 0,13,14
 586 708 586 708 653 680 c 128,-1,15
 720 652 720 652 756 599 c 1,16,-1
 684 537 l 1,17,18
 653 577 653 577 605 598 c 128,-1,19
 557 619 557 619 492 619 c 0,20,21
 417 619 417 619 357.5 593.5 c 128,-1,22
 298 568 298 568 256 522.5 c 128,-1,23
 214 477 214 477 192 418 c 128,-1,24
 170 359 170 359 170 293 c 0,25,26
 170 230 170 230 197.5 182.5 c 128,-1,27
 225 135 225 135 278.5 108 c 128,-1,28
 332 81 332 81 411 81 c 0,29,30
 475 81 475 81 528.5 102 c 128,-1,31
 582 123 582 123 623 164 c 1,32,-1
 681 98 l 1,33,34
 633 45 633 45 561 18.5 c 128,-1,35
 489 -8 489 -8 404 -8 c 0,4,5
EndSplineSet
Substitution2: "'c2sc' Capitals to Small Capitals lookup 45 subtable" uni023C.sc
Substitution2: "'aalt' Access All Alternates lookup 0 subtable" uni023C.sc
EndChar

StartChar: D
Encoding: 68 68 56
Width: 846
GlyphClass: 2
Flags: W
AnchorPoint: "Anchor-3" 475 699 basechar 0
AnchorPoint: "Anchor-1" 230 356 basechar 0
AnchorPoint: "Anchor-0" 339 0 basechar 0
LayerCount: 2
Fore
SplineSet
62 0 m 1,0,-1
 202 700 l 1,1,-1
 476 700 l 2,2,3
 582 700 582 700 657 664.5 c 128,-1,4
 732 629 732 629 771.5 565 c 128,-1,5
 811 501 811 501 811 413 c 0,6,7
 811 321 811 321 780 244.5 c 128,-1,8
 749 168 749 168 691.5 113.5 c 128,-1,9
 634 59 634 59 554 29.5 c 128,-1,10
 474 0 474 0 375 0 c 2,11,-1
 62 0 l 1,0,-1
179 87 m 1,12,-1
 378 87 l 2,13,14
 482 87 482 87 556 128.5 c 128,-1,15
 630 170 630 170 670 242.5 c 128,-1,16
 710 315 710 315 710 407 c 0,17,18
 710 470 710 470 683 516.5 c 128,-1,19
 656 563 656 563 601.5 588 c 128,-1,20
 547 613 547 613 466 613 c 2,21,-1
 284 613 l 1,22,-1
 179 87 l 1,12,-1
EndSplineSet
Substitution2: "'c2sc' Capitals to Small Capitals lookup 45 subtable" d.sc
Substitution2: "'aalt' Access All Alternates lookup 0 subtable" d.sc
EndChar

StartChar: uni018A
Encoding: 394 394 65
Width: 1016
GlyphClass: 2
Flags: W
AnchorPoint: "Anchor-3" 645 699 basechar 0
AnchorPoint: "Anchor-1" 400 356 basechar 0
AnchorPoint: "Anchor-0" 509 0 basechar 0
LayerCount: 2
Fore
SplineSet
139 383 m 1,0,1
 102 439 102 439 97 495 c 128,-1,2
 92 551 92 551 114 597.5 c 128,-1,3
 136 644 136 644 181.5 672 c 128,-1,4
 227 700 227 700 290 700 c 2,5,-1
 381 700 l 1,6,-1
 363 613 l 1,7,-1
 291 613 l 2,8,9
 248 613 248 613 222 586 c 128,-1,10
 196 559 196 559 193.5 518.5 c 128,-1,11
 191 478 191 478 219 438 c 1,12,-1
 139 383 l 1,0,1
232 0 m 1,13,-1
 372 700 l 1,14,-1
 646 700 l 2,15,16
 752 700 752 700 827 664.5 c 128,-1,17
 902 629 902 629 941 565 c 128,-1,18
 980 501 980 501 980 413 c 0,19,20
 980 321 980 321 949.5 244.5 c 128,-1,21
 919 168 919 168 861.5 113.5 c 128,-1,22
 804 59 804 59 724 29.5 c 128,-1,23
 644 0 644 0 545 0 c 2,24,-1
 232 0 l 1,13,-1
349 87 m 1,25,-1
 548 87 l 2,26,27
 652 87 652 87 726 128.5 c 128,-1,28
 800 170 800 170 840 242.5 c 128,-1,29
 880 315 880 315 880 407 c 0,30,31
 880 470 880 470 853 516.5 c 128,-1,32
 826 563 826 563 771.5 588 c 128,-1,33
 717 613 717 613 636 613 c 2,34,-1
 454 613 l 1,35,-1
 349 87 l 1,25,-1
EndSplineSet
Substitution2: "'c2sc' Capitals to Small Capitals lookup 45 subtable" uni0257.sc
Substitution2: "'aalt' Access All Alternates lookup 0 subtable" uni0257.sc
EndChar

StartChar: uni018B
Encoding: 395 395 68
Width: 771
GlyphClass: 1
Flags: W
LayerCount: 2
Fore
SplineSet
279 0 m 2,0,1
 196 0 196 0 139 29.5 c 128,-1,2
 82 59 82 59 57 112 c 128,-1,3
 32 165 32 165 45 235 c 0,4,5
 62 325 62 325 132 370.5 c 128,-1,6
 202 416 202 416 325 416 c 2,7,-1
 587 416 l 1,8,-1
 627 613 l 1,9,-1
 200 613 l 1,10,-1
 218 700 l 1,11,-1
 743 700 l 1,12,-1
 603 0 l 1,13,-1
 279 0 l 2,0,1
295 81 m 2,14,-1
 520 81 l 1,15,-1
 571 334 l 1,16,-1
 336 334 l 2,17,18
 249 334 249 334 203 307.5 c 128,-1,19
 157 281 157 281 145 224 c 0,20,21
 132 159 132 159 173 120 c 128,-1,22
 214 81 214 81 295 81 c 2,14,-1
EndSplineSet
Substitution2: "'c2sc' Capitals to Small Capitals lookup 45 subtable" uni018C.sc
Substitution2: "'aalt' Access All Alternates lookup 0 subtable" uni018C.sc
EndChar

StartChar: E
Encoding: 69 69 72
Width: 690
GlyphClass: 2
Flags: W
AnchorPoint: "Anchor-3" 449 700 basechar 0
AnchorPoint: "Anchor-2" 571 0 basechar 0
AnchorPoint: "Anchor-0" 320 0 basechar 0
LayerCount: 2
Fore
SplineSet
233 398 m 1,0,-1
 593 398 l 1,1,-1
 576 313 l 1,2,-1
 216 313 l 1,3,-1
 233 398 l 1,0,-1
179 87 m 1,4,-1
 588 87 l 1,5,-1
 571 0 l 1,6,-1
 62 0 l 1,7,-1
 202 700 l 1,8,-1
 696 700 l 1,9,-1
 679 613 l 1,10,-1
 284 613 l 1,11,-1
 179 87 l 1,4,-1
EndSplineSet
Substitution2: "'ss01' Style Set 1 lookup 50 subtable" E.ss01
Substitution2: "'c2sc' Capitals to Small Capitals lookup 45 subtable" e.sc
AlternateSubs2: "'aalt' Access All Alternates lookup 1 subtable" e.sc E.ss01
EndChar

StartChar: uni0190
Encoding: 400 400 96
Width: 652
GlyphClass: 2
Flags: W
AnchorPoint: "Anchor-3" 453 700 basechar 0
AnchorPoint: "Anchor-2" 398 0 basechar 0
AnchorPoint: "Anchor-0" 320 0 basechar 0
LayerCount: 2
Fore
SplineSet
321 -9 m 0,0,1
 247 -9 247 -9 185 11 c 128,-1,2
 123 31 123 31 86 72 c 128,-1,3
 49 113 49 113 49 177 c 0,4,5
 49 237 49 237 80 283 c 128,-1,6
 111 329 111 329 166 354.5 c 128,-1,7
 221 380 221 380 291 380 c 1,8,-1
 291 350 l 1,9,10
 225 350 225 350 184 389 c 128,-1,11
 143 428 143 428 143 491 c 0,12,13
 143 546 143 546 169.5 586.5 c 128,-1,14
 196 627 196 627 240.5 654 c 128,-1,15
 285 681 285 681 340.5 694 c 128,-1,16
 396 707 396 707 454 707 c 0,17,18
 520 707 520 707 580 691 c 128,-1,19
 640 675 640 675 679 644 c 1,20,-1
 644 564 l 1,21,22
 605 592 605 592 551 606.5 c 128,-1,23
 497 621 497 621 442 621 c 0,24,25
 389 621 389 621 343.5 606.5 c 128,-1,26
 298 592 298 592 271 564 c 128,-1,27
 244 536 244 536 244 492 c 0,28,29
 244 449 244 449 275.5 425.5 c 128,-1,30
 307 402 307 402 365 402 c 2,31,-1
 526 402 l 1,32,-1
 509 321 l 1,33,-1
 336 321 l 2,34,35
 250 321 250 321 199.5 286.5 c 128,-1,36
 149 252 149 252 149 188 c 0,37,38
 149 150 149 150 172.5 125.5 c 128,-1,39
 196 101 196 101 236 89.5 c 128,-1,40
 276 78 276 78 324 78 c 256,41,42
 372 78 372 78 420 87 c 128,-1,43
 468 96 468 96 510 113 c 128,-1,44
 552 130 552 130 581 152 c 1,45,-1
 613 74 l 1,46,47
 557 34 557 34 478.5 12.5 c 128,-1,48
 400 -9 400 -9 321 -9 c 0,0,1
EndSplineSet
Substitution2: "'c2sc' Capitals to Small Capitals lookup 45 subtable" uni025B.sc
Substitution2: "'aalt' Access All Alternates lookup 0 subtable" uni025B.sc
EndChar

StartChar: uni018E
Encoding: 398 398 97
Width: 690
GlyphClass: 2
Flags: W
AnchorPoint: "Anchor-3" 404 700 basechar 0
AnchorPoint: "Anchor-0" 275 0 basechar 0
LayerCount: 2
Fore
SplineSet
493 313 m 1,0,-1
 133 313 l 1,1,-1
 150 398 l 1,2,-1
 510 398 l 1,3,-1
 493 313 l 1,0,-1
545 613 m 1,4,-1
 148 613 l 1,5,-1
 165 700 l 1,6,-1
 662 700 l 1,7,-1
 522 0 l 1,8,-1
 16 0 l 1,9,-1
 33 87 l 1,10,-1
 440 87 l 1,11,-1
 545 613 l 1,4,-1
EndSplineSet
Substitution2: "'ss01' Style Set 1 lookup 50 subtable" uni018E.ss01
Substitution2: "'c2sc' Capitals to Small Capitals lookup 45 subtable" uni0258.sc
AlternateSubs2: "'aalt' Access All Alternates lookup 1 subtable" uni0258.sc uni018E.ss01
EndChar

StartChar: uni01A9
Encoding: 425 425 99
Width: 526
GlyphClass: 1
Flags: W
LayerCount: 2
Fore
SplineSet
83 -6 m 256,0,1
 52 -3 52 -3 25 8 c 128,-1,2
 -2 19 -2 19 -18 34 c 1,3,-1
 29 108 l 1,4,5
 56 83 56 83 94 80 c 0,6,7
 127 77 127 77 155.5 94.5 c 128,-1,8
 184 112 184 112 193 156 c 2,9,-1
 270 555 l 2,10,11
 278 601 278 601 300 632 c 128,-1,12
 322 663 322 663 352 680.5 c 128,-1,13
 382 698 382 698 415.5 704.5 c 128,-1,14
 449 711 449 711 481 708 c 0,15,16
 511 704 511 704 537 694 c 128,-1,17
 563 684 563 684 579 669 c 1,18,-1
 532 592 l 1,19,20
 505 617 505 617 466 621 c 0,21,22
 434 624 434 624 406 606.5 c 128,-1,23
 378 589 378 589 369 545 c 2,24,-1
 291 146 l 2,25,26
 283 99 283 99 261 68.5 c 128,-1,27
 239 38 239 38 209 20.5 c 128,-1,28
 179 3 179 3 146.5 -3 c 128,-1,29
 114 -9 114 -9 83 -6 c 256,0,1
EndSplineSet
Substitution2: "'c2sc' Capitals to Small Capitals lookup 45 subtable" uni0283.sc
Substitution2: "'aalt' Access All Alternates lookup 0 subtable" uni0283.sc
EndChar

StartChar: uni0246
Encoding: 582 582 100
Width: 690
GlyphClass: 2
Flags: W
AnchorPoint: "Anchor-3" 450 700 basechar 0
AnchorPoint: "Anchor-2" 571 0 basechar 0
AnchorPoint: "Anchor-0" 320 0 basechar 0
LayerCount: 2
Fore
SplineSet
82 -70 m 1,0,-1
 630 770 l 1,1,-1
 711 770 l 1,2,-1
 164 -70 l 1,3,-1
 82 -70 l 1,0,-1
62 0 m 1,4,-1
 202 700 l 1,5,-1
 696 700 l 1,6,-1
 679 613 l 1,7,-1
 284 613 l 1,8,-1
 179 87 l 1,9,-1
 588 87 l 1,10,-1
 571 0 l 1,11,-1
 62 0 l 1,4,-1
216 313 m 1,12,-1
 233 398 l 1,13,-1
 593 398 l 1,14,-1
 575 313 l 1,15,-1
 216 313 l 1,12,-1
EndSplineSet
Substitution2: "'ss01' Style Set 1 lookup 50 subtable" uni0246.ss01
Substitution2: "'c2sc' Capitals to Small Capitals lookup 45 subtable" uni0247.sc
AlternateSubs2: "'aalt' Access All Alternates lookup 1 subtable" uni0247.sc uni0246.ss01
EndChar

StartChar: uni018F
Encoding: 399 399 103
Width: 837
GlyphClass: 2
Flags: W
AnchorPoint: "Anchor-3" 507 700 basechar 0
AnchorPoint: "Anchor-2" 419 0 basechar 0
AnchorPoint: "Anchor-0" 367 0 basechar 0
LayerCount: 2
Fore
SplineSet
388 -8 m 0,0,1
 288 -8 288 -8 216 29 c 128,-1,2
 144 66 144 66 105.5 132.5 c 128,-1,3
 67 199 67 199 67 286 c 0,4,5
 67 307 67 307 70 328 c 128,-1,6
 73 349 73 349 80 382 c 1,7,-1
 715 382 l 1,8,-1
 699 297 l 1,9,-1
 132 297 l 1,10,-1
 170 343 l 1,11,12
 168 327 168 327 166.5 317.5 c 128,-1,13
 165 308 165 308 165 292 c 0,14,15
 165 225 165 225 192 177 c 128,-1,16
 219 129 219 129 271 103.5 c 128,-1,17
 323 78 323 78 397 78 c 0,18,19
 466 78 466 78 522.5 104.5 c 128,-1,20
 579 131 579 131 618.5 176.5 c 128,-1,21
 658 222 658 222 679.5 281.5 c 128,-1,22
 701 341 701 341 701 407 c 0,23,24
 701 470 701 470 675 517.5 c 128,-1,25
 649 565 649 565 597.5 592 c 128,-1,26
 546 619 546 619 468 619 c 0,27,28
 403 619 403 619 344 598.5 c 128,-1,29
 285 578 285 578 242 540 c 1,30,-1
 193 613 l 1,31,32
 244 658 244 658 318 683 c 128,-1,33
 392 708 392 708 476 708 c 0,34,35
 581 708 581 708 653 671 c 128,-1,36
 725 634 725 634 763 567.5 c 128,-1,37
 801 501 801 501 801 413 c 0,38,39
 801 326 801 326 772 249.5 c 128,-1,40
 743 173 743 173 688.5 115 c 128,-1,41
 634 57 634 57 558 24.5 c 128,-1,42
 482 -8 482 -8 388 -8 c 0,0,1
EndSplineSet
Substitution2: "'ss01' Style Set 1 lookup 50 subtable" uni018F.ss01
Substitution2: "'c2sc' Capitals to Small Capitals lookup 45 subtable" uni0259.sc
AlternateSubs2: "'aalt' Access All Alternates lookup 1 subtable" uni0259.sc uni018F.ss01
EndChar

StartChar: uni01B8
Encoding: 440 440 106
Width: 653
GlyphClass: 2
Flags: W
AnchorPoint: "Anchor-3" 418 700 basechar 0
AnchorPoint: "Anchor-0" 278 0 basechar 0
LayerCount: 2
Fore
SplineSet
302 -8 m 0,0,1
 232 -8 232 -8 182 11.5 c 128,-1,2
 132 31 132 31 101 64.5 c 128,-1,3
 70 98 70 98 59 139.5 c 128,-1,4
 48 181 48 181 57 226 c 0,5,6
 75 315 75 315 153.5 360.5 c 128,-1,7
 232 406 232 406 365 406 c 2,8,-1
 398 406 l 1,9,-1
 353 377 l 1,10,-1
 175 632 l 1,11,-1
 189 700 l 1,12,-1
 672 700 l 1,13,-1
 655 615 l 1,14,-1
 248 615 l 1,15,-1
 266 660 l 1,16,-1
 446 405 l 1,17,-1
 430 328 l 1,18,-1
 359 328 l 2,19,20
 263 328 263 328 215 300.5 c 128,-1,21
 167 273 167 273 155 217 c 0,22,23
 147 178 147 178 163.5 146.5 c 128,-1,24
 180 115 180 115 218 97 c 128,-1,25
 256 79 256 79 314 79 c 0,26,27
 384 79 384 79 446.5 100.5 c 128,-1,28
 509 122 509 122 553 155 c 1,29,-1
 573 76 l 1,30,31
 524 38 524 38 453.5 15 c 128,-1,32
 383 -8 383 -8 302 -8 c 0,0,1
EndSplineSet
Substitution2: "'c2sc' Capitals to Small Capitals lookup 45 subtable" uni01B9.sc
Substitution2: "'aalt' Access All Alternates lookup 0 subtable" uni01B9.sc
EndChar

StartChar: F
Encoding: 70 70 107
Width: 655
GlyphClass: 2
Flags: W
AnchorPoint: "Anchor-3" 415 700 basechar 0
AnchorPoint: "Anchor-0" 275 0 basechar 0
LayerCount: 2
Fore
SplineSet
227 369 m 1,0,-1
 587 369 l 1,1,-1
 570 283 l 1,2,-1
 209 283 l 1,3,-1
 227 369 l 1,0,-1
162 0 m 1,4,-1
 62 0 l 1,5,-1
 202 700 l 1,6,-1
 696 700 l 1,7,-1
 679 613 l 1,8,-1
 284 613 l 1,9,-1
 162 0 l 1,4,-1
EndSplineSet
Substitution2: "'ss01' Style Set 1 lookup 50 subtable" F.ss01
Substitution2: "'c2sc' Capitals to Small Capitals lookup 45 subtable" f.sc
AlternateSubs2: "'aalt' Access All Alternates lookup 1 subtable" f.sc F.ss01
EndChar

StartChar: uni0191
Encoding: 401 401 109
Width: 656
GlyphClass: 1
Flags: W
LayerCount: 2
Fore
SplineSet
-109 -181 m 1,0,-1
 -76 -104 l 1,1,2
 -41 -118 -41 -118 -13 -115 c 128,-1,3
 15 -112 15 -112 34 -92.5 c 128,-1,4
 53 -73 53 -73 59 -39 c 2,5,-1
 207 700 l 1,6,-1
 702 700 l 1,7,-1
 684 613 l 1,8,-1
 289 613 l 1,9,-1
 156 -55 l 2,10,11
 147 -101 147 -101 120.5 -133.5 c 128,-1,12
 94 -166 94 -166 56.5 -183.5 c 128,-1,13
 19 -201 19 -201 -24 -201 c 128,-1,14
 -67 -201 -67 -201 -109 -181 c 1,0,-1
214 283 m 1,15,-1
 232 369 l 1,16,-1
 592 369 l 1,17,-1
 575 283 l 1,18,-1
 214 283 l 1,15,-1
EndSplineSet
Substitution2: "'ss01' Style Set 1 lookup 50 subtable" uni0191.ss01
Substitution2: "'c2sc' Capitals to Small Capitals lookup 45 subtable" florin.sc
AlternateSubs2: "'aalt' Access All Alternates lookup 1 subtable" florin.sc uni0191.ss01
EndChar

StartChar: G
Encoding: 71 71 110
Width: 792
GlyphClass: 2
Flags: W
AnchorPoint: "Anchor-3" 507 700 basechar 0
AnchorPoint: "Anchor-0" 362 0 basechar 0
LayerCount: 2
Fore
SplineSet
404 -8 m 0,0,1
 300 -8 300 -8 225.5 29 c 128,-1,2
 151 66 151 66 110.5 132.5 c 128,-1,3
 70 199 70 199 70 287 c 0,4,5
 70 374 70 374 100 450.5 c 128,-1,6
 130 527 130 527 186.5 585 c 128,-1,7
 243 643 243 643 322.5 675.5 c 128,-1,8
 402 708 402 708 501 708 c 0,9,10
 593 708 593 708 661.5 680 c 128,-1,11
 730 652 730 652 771 600 c 1,12,-1
 699 539 l 1,13,14
 664 580 664 580 613.5 599.5 c 128,-1,15
 563 619 563 619 497 619 c 0,16,17
 422 619 422 619 362 593.5 c 128,-1,18
 302 568 302 568 259 523.5 c 128,-1,19
 216 479 216 479 193 419.5 c 128,-1,20
 170 360 170 360 170 293 c 0,21,22
 170 230 170 230 197.5 182.5 c 128,-1,23
 225 135 225 135 279.5 108 c 128,-1,24
 334 81 334 81 415 81 c 0,25,26
 474 81 474 81 524.5 101 c 128,-1,27
 575 121 575 121 620 159 c 1,28,-1
 659 79 l 1,29,30
 608 38 608 38 541.5 15 c 128,-1,31
 475 -8 475 -8 404 -8 c 0,0,1
567 94 m 1,32,-1
 618 354 l 1,33,-1
 714 354 l 1,34,-1
 659 79 l 1,35,-1
 567 94 l 1,32,-1
EndSplineSet
Substitution2: "'ss01' Style Set 1 lookup 50 subtable" G.ss01
Substitution2: "'c2sc' Capitals to Small Capitals lookup 45 subtable" g.sc
AlternateSubs2: "'aalt' Access All Alternates lookup 1 subtable" g.sc G.ss01
EndChar

StartChar: uni0193
Encoding: 403 403 117
Width: 784
GlyphClass: 2
Flags: W
AnchorPoint: "Anchor-3" 531 700 basechar 0
AnchorPoint: "Anchor-0" 385 0 basechar 0
LayerCount: 2
Fore
SplineSet
404 -8 m 0,0,1
 300 -8 300 -8 225.5 29 c 128,-1,2
 151 66 151 66 110.5 132.5 c 128,-1,3
 70 199 70 199 70 287 c 0,4,5
 70 374 70 374 100 450.5 c 128,-1,6
 130 527 130 527 186.5 585 c 128,-1,7
 243 643 243 643 322.5 675.5 c 128,-1,8
 402 708 402 708 501 708 c 0,9,10
 593 708 593 708 661.5 679.5 c 128,-1,11
 730 651 730 651 771 599 c 1,12,-1
 699 539 l 1,13,14
 664 580 664 580 613.5 599.5 c 128,-1,15
 563 619 563 619 497 619 c 0,16,17
 422 619 422 619 362 593.5 c 128,-1,18
 302 568 302 568 259 523.5 c 128,-1,19
 216 479 216 479 193 419.5 c 128,-1,20
 170 360 170 360 170 293 c 0,21,22
 170 230 170 230 197.5 182.5 c 128,-1,23
 225 135 225 135 279.5 108 c 128,-1,24
 334 81 334 81 415 81 c 0,25,26
 474 81 474 81 524.5 101 c 128,-1,27
 575 121 575 121 620 159 c 1,28,-1
 659 79 l 1,29,30
 608 38 608 38 541.5 15 c 128,-1,31
 475 -8 475 -8 404 -8 c 0,0,1
659 79 m 1,32,-1
 567 94 l 1,33,-1
 618 354 l 1,34,-1
 714 354 l 1,35,-1
 659 79 l 1,32,-1
679 599 m 1,36,-1
 693 674 l 2,37,38
 702 720 702 720 726.5 753 c 128,-1,39
 751 786 751 786 785.5 804.5 c 128,-1,40
 820 823 820 823 858 825.5 c 128,-1,41
 896 828 896 828 931 815 c 1,42,-1
 908 739 l 1,43,44
 878 748 878 748 851.5 741.5 c 128,-1,45
 825 735 825 735 807 713 c 128,-1,46
 789 691 789 691 781 655 c 2,47,-1
 771 599 l 1,48,-1
 679 599 l 1,36,-1
EndSplineSet
Substitution2: "'ss01' Style Set 1 lookup 50 subtable" uni0193.ss01
Substitution2: "'c2sc' Capitals to Small Capitals lookup 45 subtable" uni0260.sc
AlternateSubs2: "'aalt' Access All Alternates lookup 1 subtable" uni0260.sc uni0193.ss01
EndChar

StartChar: uni0241
Encoding: 577 577 118
Width: 591
GlyphClass: 2
Flags: W
AnchorPoint: "Anchor-3" 349 700 basechar 0
AnchorPoint: "Anchor-0" 209 0 basechar 0
LayerCount: 2
Fore
SplineSet
159 0 m 1,0,-1
 190 157 l 2,1,2
 201 209 201 209 226 243.5 c 128,-1,3
 251 278 251 278 284.5 301.5 c 128,-1,4
 318 325 318 325 353.5 344 c 128,-1,5
 389 363 389 363 421.5 382 c 128,-1,6
 454 401 454 401 478 426.5 c 128,-1,7
 502 452 502 452 509 490 c 0,8,9
 519 536 519 536 497.5 564.5 c 128,-1,10
 476 593 476 593 436 607.5 c 128,-1,11
 396 622 396 622 349 622 c 0,12,13
 308 622 308 622 264.5 610.5 c 128,-1,14
 221 599 221 599 181.5 575.5 c 128,-1,15
 142 552 142 552 111 516 c 1,16,-1
 44 573 l 1,17,18
 85 618 85 618 138 648 c 128,-1,19
 191 678 191 678 249.5 693 c 128,-1,20
 308 708 308 708 366 708 c 0,21,22
 422 708 422 708 470 694.5 c 128,-1,23
 518 681 518 681 553.5 654.5 c 128,-1,24
 589 628 589 628 604.5 587 c 128,-1,25
 620 546 620 546 609 491 c 0,26,27
 599 442 599 442 574 407.5 c 128,-1,28
 549 373 549 373 515.5 348.5 c 128,-1,29
 482 324 482 324 446 304.5 c 128,-1,30
 410 285 410 285 377 264.5 c 128,-1,31
 344 244 344 244 320 217 c 128,-1,32
 296 190 296 190 289 152 c 2,33,-1
 258 0 l 1,34,-1
 159 0 l 1,0,-1
EndSplineSet
Substitution2: "'c2sc' Capitals to Small Capitals lookup 45 subtable" uni0294.sc
Substitution2: "'aalt' Access All Alternates lookup 0 subtable" uni0294.sc
EndChar

StartChar: uni01E4
Encoding: 484 484 120
Width: 827
GlyphClass: 2
Flags: W
AnchorPoint: "Anchor-3" 524 700 basechar 0
AnchorPoint: "Anchor-0" 379 0 basechar 0
LayerCount: 2
Fore
SplineSet
404 -8 m 0,0,1
 300 -8 300 -8 225.5 29 c 128,-1,2
 151 66 151 66 110.5 132.5 c 128,-1,3
 70 199 70 199 70 287 c 0,4,5
 70 374 70 374 100 450.5 c 128,-1,6
 130 527 130 527 186.5 585 c 128,-1,7
 243 643 243 643 322.5 675.5 c 128,-1,8
 402 708 402 708 501 708 c 0,9,10
 593 708 593 708 661.5 680 c 128,-1,11
 730 652 730 652 771 600 c 1,12,-1
 699 539 l 1,13,14
 664 580 664 580 613.5 599.5 c 128,-1,15
 563 619 563 619 497 619 c 0,16,17
 422 619 422 619 362 593.5 c 128,-1,18
 302 568 302 568 259 523.5 c 128,-1,19
 216 479 216 479 193 419.5 c 128,-1,20
 170 360 170 360 170 293 c 0,21,22
 170 230 170 230 197.5 182.5 c 128,-1,23
 225 135 225 135 279.5 108 c 128,-1,24
 334 81 334 81 415 81 c 0,25,26
 474 81 474 81 524.5 101 c 128,-1,27
 575 121 575 121 620 159 c 1,28,-1
 659 79 l 1,29,30
 608 38 608 38 541.5 15 c 128,-1,31
 475 -8 475 -8 404 -8 c 0,0,1
567 94 m 1,32,-1
 618 354 l 1,33,-1
 714 354 l 1,34,-1
 659 79 l 1,35,-1
 567 94 l 1,32,-1
436 209 m 1,36,-1
 451 288 l 1,37,-1
 805 288 l 1,38,-1
 789 209 l 1,39,-1
 436 209 l 1,36,-1
EndSplineSet
Substitution2: "'ss01' Style Set 1 lookup 50 subtable" uni01E4.ss01
Substitution2: "'c2sc' Capitals to Small Capitals lookup 45 subtable" uni01E5.sc
AlternateSubs2: "'aalt' Access All Alternates lookup 1 subtable" uni01E5.sc uni01E4.ss01
EndChar

StartChar: uni021C
Encoding: 540 540 121
Width: 645
GlyphClass: 1
Flags: W
LayerCount: 2
Fore
SplineSet
-73 -107 m 1,0,-1
 -62 -22 l 1,1,2
 7 -14 7 -14 72 -2 c 128,-1,3
 137 10 137 10 195 26 c 128,-1,4
 253 42 253 42 301 62.5 c 128,-1,5
 349 83 349 83 384.5 108 c 128,-1,6
 420 133 420 133 439 163 c 128,-1,7
 458 193 458 193 458 227 c 0,8,9
 458 283 458 283 413.5 298 c 128,-1,10
 369 313 369 313 294 297 c 2,11,-1
 154 266 l 1,12,-1
 160 350 l 1,13,-1
 276 376 l 2,14,15
 311 384 311 384 348.5 397 c 128,-1,16
 386 410 386 410 418.5 429.5 c 128,-1,17
 451 449 451 449 470.5 475.5 c 128,-1,18
 490 502 490 502 490 537 c 0,19,20
 490 561 490 561 479.5 580.5 c 128,-1,21
 469 600 469 600 444.5 611.5 c 128,-1,22
 420 623 420 623 379 623 c 0,23,24
 344 623 344 623 299 613.5 c 128,-1,25
 254 604 254 604 202 584.5 c 128,-1,26
 150 565 150 565 93 537 c 1,27,-1
 73 613 l 1,28,29
 128 644 128 644 185.5 665 c 128,-1,30
 243 686 243 686 298.5 697 c 128,-1,31
 354 708 354 708 401 708 c 0,32,33
 472 708 472 708 514.5 686.5 c 128,-1,34
 557 665 557 665 576 629.5 c 128,-1,35
 595 594 595 594 595 552 c 0,36,37
 595 503 595 503 572 466 c 128,-1,38
 549 429 549 429 510 402 c 128,-1,39
 471 375 471 375 421 357 c 128,-1,40
 371 339 371 339 317 327 c 1,41,-1
 318 347 l 1,42,43
 385 366 385 366 440 358.5 c 128,-1,44
 495 351 495 351 528 318.5 c 128,-1,45
 561 286 561 286 561 227 c 0,46,47
 561 175 561 175 532.5 131 c 128,-1,48
 504 87 504 87 454 52 c 128,-1,49
 404 17 404 17 340.5 -10.5 c 128,-1,50
 277 -38 277 -38 206 -57 c 128,-1,51
 135 -76 135 -76 63.5 -88.5 c 128,-1,52
 -8 -101 -8 -101 -73 -107 c 1,0,-1
EndSplineSet
Substitution2: "'c2sc' Capitals to Small Capitals lookup 45 subtable" uni021D.sc
Substitution2: "'aalt' Access All Alternates lookup 0 subtable" uni021D.sc
EndChar

StartChar: H
Encoding: 72 72 122
Width: 832
GlyphClass: 2
Flags: W
AnchorPoint: "Anchor-3" 503 700 basechar 0
AnchorPoint: "Anchor-1" 473 553 basechar 0
AnchorPoint: "Anchor-0" 363 0 basechar 0
LayerCount: 2
Fore
SplineSet
704 700 m 1,0,-1
 804 700 l 1,1,-1
 664 0 l 1,2,-1
 564 0 l 1,3,-1
 704 700 l 1,0,-1
162 0 m 1,4,-1
 62 0 l 1,5,-1
 202 700 l 1,6,-1
 302 700 l 1,7,-1
 162 0 l 1,4,-1
636 312 m 1,8,-1
 216 312 l 1,9,-1
 233 399 l 1,10,-1
 653 399 l 1,11,-1
 636 312 l 1,8,-1
EndSplineSet
Substitution2: "'c2sc' Capitals to Small Capitals lookup 45 subtable" h.sc
Substitution2: "'aalt' Access All Alternates lookup 0 subtable" h.sc
EndChar

StartChar: Hbar
Encoding: 294 294 123
Width: 849
GlyphClass: 2
Flags: W
AnchorPoint: "Anchor-3" 510 700 basechar 0
AnchorPoint: "Anchor-1" 481 553 basechar 0
AnchorPoint: "Anchor-0" 370 0 basechar 0
LayerCount: 2
Fore
SplineSet
712 700 m 1,0,-1
 811 700 l 1,1,-1
 671 0 l 1,2,-1
 572 0 l 1,3,-1
 712 700 l 1,0,-1
169 0 m 1,4,-1
 70 0 l 1,5,-1
 210 700 l 1,6,-1
 309 700 l 1,7,-1
 169 0 l 1,4,-1
643 312 m 1,8,-1
 224 312 l 1,9,-1
 241 399 l 1,10,-1
 661 399 l 1,11,-1
 643 312 l 1,8,-1
68 505 m 1,12,-1
 83 584 l 1,13,-1
 892 584 l 1,14,-1
 877 505 l 1,15,-1
 68 505 l 1,12,-1
EndSplineSet
Substitution2: "'c2sc' Capitals to Small Capitals lookup 45 subtable" hbar.sc
Substitution2: "'aalt' Access All Alternates lookup 0 subtable" hbar.sc
EndChar

StartChar: uni1E28
Encoding: 7720 7720 126
Width: 832
GlyphClass: 2
Flags: W
AnchorPoint: "Anchor-3" 503 700 basechar 0
AnchorPoint: "Anchor-1" 473 553 basechar 0
AnchorPoint: "Anchor-0" 363 0 basechar 0
LayerCount: 2
Fore
SplineSet
564 0 m 1,0,-1
 704 700 l 1,1,-1
 804 700 l 1,2,-1
 664 0 l 1,3,-1
 564 0 l 1,0,-1
65 -224 m 0,4,5
 37 -224 37 -224 16 -218.5 c 128,-1,6
 -5 -213 -5 -213 -22 -202 c 1,7,-1
 9 -153 l 1,8,9
 22 -162 22 -162 38 -166 c 128,-1,10
 54 -170 54 -170 72 -170 c 0,11,12
 101 -170 101 -170 118 -160 c 128,-1,13
 135 -150 135 -150 138 -131 c 256,14,15
 141 -112 141 -112 128.5 -101.5 c 128,-1,16
 116 -91 116 -91 88 -91 c 2,17,-1
 49 -91 l 1,18,-1
 93 6 l 1,19,-1
 147 6 l 1,20,-1
 123 -50 l 1,21,22
 167 -53 167 -53 190 -76.5 c 128,-1,23
 213 -100 213 -100 205 -138 c 0,24,25
 196 -179 196 -179 159 -201.5 c 128,-1,26
 122 -224 122 -224 65 -224 c 0,4,5
62 0 m 1,27,-1
 202 700 l 1,28,-1
 302 700 l 1,29,-1
 162 0 l 1,30,-1
 62 0 l 1,27,-1
215 312 m 1,31,-1
 232 399 l 1,32,-1
 653 399 l 1,33,-1
 635 312 l 1,34,-1
 215 312 l 1,31,-1
EndSplineSet
Substitution2: "'c2sc' Capitals to Small Capitals lookup 45 subtable" uni1E29.sc
Substitution2: "'aalt' Access All Alternates lookup 0 subtable" uni1E29.sc
EndChar

StartChar: uniA7AA
Encoding: 42922 42922 132
Width: 1002
GlyphClass: 2
Flags: W
AnchorPoint: "Anchor-3" 673 700 basechar 0
AnchorPoint: "Anchor-1" 643 553 basechar 0
AnchorPoint: "Anchor-0" 533 0 basechar 0
LayerCount: 2
Fore
SplineSet
139 383 m 1,0,1
 102 439 102 439 97 495 c 128,-1,2
 92 551 92 551 114 597.5 c 128,-1,3
 136 644 136 644 181.5 672 c 128,-1,4
 227 700 227 700 290 700 c 2,5,-1
 381 700 l 1,6,-1
 363 613 l 1,7,-1
 291 613 l 2,8,9
 248 613 248 613 222 586 c 128,-1,10
 196 559 196 559 193.5 518.5 c 128,-1,11
 191 478 191 478 219 438 c 1,12,-1
 139 383 l 1,0,1
874 700 m 1,13,-1
 974 700 l 1,14,-1
 834 0 l 1,15,-1
 734 0 l 1,16,-1
 874 700 l 1,13,-1
332 0 m 1,17,-1
 232 0 l 1,18,-1
 372 700 l 1,19,-1
 472 700 l 1,20,-1
 332 0 l 1,17,-1
806 312 m 1,21,-1
 386 312 l 1,22,-1
 403 399 l 1,23,-1
 823 399 l 1,24,-1
 806 312 l 1,21,-1
EndSplineSet
Substitution2: "'c2sc' Capitals to Small Capitals lookup 45 subtable" uni0266.sc
Substitution2: "'aalt' Access All Alternates lookup 0 subtable" uni0266.sc
EndChar

StartChar: uniA78D
Encoding: 42893 42893 133
Width: 771
GlyphClass: 2
Flags: W
AnchorPoint: "Anchor-3" 429 700 basechar 0
AnchorPoint: "Anchor-0" 289 0 basechar 0
LayerCount: 2
Fore
SplineSet
506 0 m 1,0,-1
 586 398 l 1,1,-1
 613 380 l 1,2,3
 569 297 569 297 506.5 258 c 128,-1,4
 444 219 444 219 351 219 c 256,5,6
 258 219 258 219 198.5 255.5 c 128,-1,7
 139 292 139 292 116 358.5 c 128,-1,8
 93 425 93 425 111 516 c 2,9,-1
 148 700 l 1,10,-1
 248 700 l 1,11,-1
 212 519 l 2,12,13
 191 419 191 419 234 363.5 c 128,-1,14
 277 308 277 308 373 308 c 0,15,16
 465 308 465 308 525.5 360.5 c 128,-1,17
 586 413 586 413 605 509 c 2,18,-1
 643 700 l 1,19,-1
 742 700 l 1,20,-1
 602 0 l 1,21,-1
 506 0 l 1,0,-1
EndSplineSet
Substitution2: "'c2sc' Capitals to Small Capitals lookup 45 subtable" uni0265.sc
Substitution2: "'aalt' Access All Alternates lookup 0 subtable" uni0265.sc
EndChar

StartChar: I
Encoding: 73 73 134
Width: 330
GlyphClass: 2
Flags: W
AnchorPoint: "Anchor-3" 252 700 basechar 0
AnchorPoint: "Anchor-2" 162 0 basechar 0
AnchorPoint: "Anchor-1" 181 350 basechar 0
AnchorPoint: "Anchor-0" 112 0 basechar 0
LayerCount: 2
Fore
SplineSet
-7 87 m 1,0,-1
 265 87 l 1,1,-1
 248 0 l 1,2,-1
 -24 0 l 1,3,-1
 -7 87 l 1,0,-1
117 700 m 1,4,-1
 389 700 l 1,5,-1
 372 613 l 1,6,-1
 100 613 l 1,7,-1
 117 700 l 1,4,-1
62 2 m 1,8,-1
 202 698 l 5,9,-1
 302 698 l 5,10,-1
 162 2 l 1,11,-1
 62 2 l 1,8,-1
EndSplineSet
Substitution2: "'ss01' Style Set 1 lookup 50 subtable" I.ss01
Substitution2: "'c2sc' Capitals to Small Capitals lookup 45 subtable" i.sc
AlternateSubs2: "'aalt' Access All Alternates lookup 1 subtable" i.sc I.ss01
EndChar

StartChar: IJ
Encoding: 306 306 135
Width: 729
GlyphClass: 2
Flags: W
AnchorPoint: "Anchor-3" 266 700 basechar 0
LayerCount: 2
Fore
SplineSet
305 -8 m 0,0,1
 225 -8 225 -8 163 11.5 c 128,-1,2
 101 31 101 31 58 64 c 1,3,-1
 108 144 l 1,4,5
 150 113 150 113 202 97 c 128,-1,6
 254 81 254 81 312 81 c 0,7,8
 406 81 406 81 460.5 133.5 c 128,-1,9
 515 186 515 186 538 302 c 2,10,-1
 618 700 l 1,11,-1
 717 700 l 1,12,-1
 637 296 l 2,13,14
 606 141 606 141 524 66.5 c 128,-1,15
 442 -8 442 -8 305 -8 c 0,0,1
118 309 m 1,16,-1
 196 700 l 1,17,-1
 296 700 l 1,18,-1
 217 309 l 1,19,-1
 118 309 l 1,16,-1
EndSplineSet
Substitution2: "'ss01' Style Set 1 lookup 50 subtable" IJ.ss01
Substitution2: "'c2sc' Capitals to Small Capitals lookup 45 subtable" ij.sc
AlternateSubs2: "'aalt' Access All Alternates lookup 1 subtable" ij.sc IJ.ss01
EndChar

StartChar: Iacute_J.loclNLD
Encoding: 65537 -1 136
Width: 740
GlyphClass: 1
Flags: W
LayerCount: 2
Fore
SplineSet
302 -8 m 0,0,1
 223 -8 223 -8 162.5 12 c 128,-1,2
 102 32 102 32 58 64 c 1,3,-1
 108 144 l 1,4,5
 149 113 149 113 199.5 96.5 c 128,-1,6
 250 80 250 80 306 80 c 0,7,8
 402 80 402 80 458.5 133 c 128,-1,9
 515 186 515 186 538 302 c 2,10,-1
 618 700 l 1,11,-1
 717 700 l 1,12,-1
 637 296 l 2,13,14
 606 141 606 141 522.5 66.5 c 128,-1,15
 439 -8 439 -8 302 -8 c 0,0,1
117 309 m 1,16,-1
 195 700 l 1,17,-1
 296 700 l 1,18,-1
 217 309 l 1,19,-1
 117 309 l 1,16,-1
208 757 m 1,20,-1
 371 887 l 1,21,-1
 476 887 l 1,22,-1
 283 757 l 1,23,-1
 208 757 l 1,20,-1
632 757 m 1,24,-1
 794 887 l 1,25,-1
 899 887 l 1,26,-1
 706 757 l 1,27,-1
 632 757 l 1,24,-1
EndSplineSet
Substitution2: "'ss01' Style Set 1 lookup 50 subtable" Iacute_J.loclNLD.ss01
Substitution2: "'c2sc' Capitals to Small Capitals lookup 45 subtable" iacute_j.loclNLD.sc
Ligature2: "'locl' Localized Forms in Latin lookup 16 subtable" Iacute J
AlternateSubs2: "'aalt' Access All Alternates lookup 1 subtable" iacute_j.loclNLD.sc Iacute_J.loclNLD.ss01
EndChar

StartChar: uni0196
Encoding: 406 406 151
Width: 404
GlyphClass: 2
Flags: W
AnchorPoint: "Anchor-3" 247 700 basechar 0
AnchorPoint: "Anchor-2" 283 0 basechar 0
AnchorPoint: "Anchor-0" 157 0 basechar 0
LayerCount: 2
Fore
SplineSet
239 -8 m 0,0,1
 193 -8 193 -8 155 13 c 128,-1,2
 117 34 117 34 98 71 c 128,-1,3
 79 108 79 108 89 156 c 2,4,-1
 198 700 l 1,5,-1
 297 700 l 1,6,-1
 190 164 l 2,7,8
 182 125 182 125 201 102 c 128,-1,9
 220 79 220 79 257 79 c 0,10,11
 274 79 274 79 294 85 c 128,-1,12
 314 91 314 91 335 103 c 1,13,-1
 352 29 l 1,14,15
 325 10 325 10 296 1 c 128,-1,16
 267 -8 267 -8 239 -8 c 0,0,1
EndSplineSet
Substitution2: "'c2sc' Capitals to Small Capitals lookup 45 subtable" uni0269.sc
Substitution2: "'aalt' Access All Alternates lookup 0 subtable" uni0269.sc
EndChar

StartChar: uni0197
Encoding: 407 407 152
Width: 388
GlyphClass: 2
Flags: W
AnchorPoint: "Anchor-3" 281 700 basechar 0
AnchorPoint: "Anchor-2" 191 0 basechar 0
AnchorPoint: "Anchor-0" 141 0 basechar 0
LayerCount: 2
Fore
SplineSet
92 0 m 1,0,-1
 232 700 l 1,1,-1
 331 700 l 1,2,-1
 191 0 l 1,3,-1
 92 0 l 1,0,-1
52 319 m 1,4,-1
 67 398 l 1,5,-1
 373 398 l 1,6,-1
 358 319 l 1,7,-1
 52 319 l 1,4,-1
EndSplineSet
Substitution2: "'ss01' Style Set 1 lookup 50 subtable" uni0197.ss01
Substitution2: "'c2sc' Capitals to Small Capitals lookup 45 subtable" uni0268.sc
AlternateSubs2: "'aalt' Access All Alternates lookup 1 subtable" uni0268.sc uni0197.ss01
EndChar

StartChar: J
Encoding: 74 74 155
Width: 522
GlyphClass: 2
Flags: W
AnchorPoint: "Anchor-3" 336 700 basechar 0
LayerCount: 2
Fore
SplineSet
172 -8 m 0,0,1
 101 -8 101 -8 48.5 19 c 128,-1,2
 -4 46 -4 46 -31 94 c 1,3,-1
 38 159 l 1,4,5
 58 122 58 122 92.5 100 c 128,-1,6
 127 78 127 78 174 78 c 0,7,8
 231 78 231 78 267 110 c 128,-1,9
 303 142 303 142 317 215 c 2,10,-1
 396 613 l 1,11,-1
 143 613 l 1,12,-1
 161 700 l 1,13,-1
 511 700 l 1,14,-1
 415 219 l 2,15,16
 399 135 399 135 367 85.5 c 128,-1,17
 335 36 335 36 286.5 14 c 128,-1,18
 238 -8 238 -8 172 -8 c 0,0,1
EndSplineSet
Substitution2: "'ss01' Style Set 1 lookup 50 subtable" J.ss01
Substitution2: "'c2sc' Capitals to Small Capitals lookup 45 subtable" j.sc
AlternateSubs2: "'aalt' Access All Alternates lookup 1 subtable" j.sc J.ss01
EndChar

StartChar: uniA7B2
Encoding: 42930 42930 157
Width: 531
GlyphClass: 1
Flags: W
LayerCount: 2
Fore
SplineSet
177 -8 m 0,0,1
 117 -8 117 -8 74 14 c 128,-1,2
 31 36 31 36 12 75 c 128,-1,3
 -7 114 -7 114 3 162 c 0,4,5
 16 221 16 221 67.5 253 c 128,-1,6
 119 285 119 285 203 285 c 2,7,-1
 504 285 l 1,8,-1
 487 205 l 1,9,-1
 201 205 l 2,10,11
 158 205 158 205 130.5 191 c 128,-1,12
 103 177 103 177 96 150 c 0,13,14
 87 117 87 117 110.5 94.5 c 128,-1,15
 134 72 134 72 177 72 c 0,16,17
 209 72 209 72 235.5 87 c 128,-1,18
 262 102 262 102 280 130.5 c 128,-1,19
 298 159 298 159 306 199 c 2,20,-1
 392 613 l 1,21,-1
 139 613 l 1,22,-1
 157 700 l 1,23,-1
 509 700 l 1,24,-1
 402 178 l 2,25,26
 390 121 390 121 359.5 79.5 c 128,-1,27
 329 38 329 38 282.5 15 c 128,-1,28
 236 -8 236 -8 177 -8 c 0,0,1
EndSplineSet
Substitution2: "'ss01' Style Set 1 lookup 50 subtable" uniA7B2.ss01
Substitution2: "'c2sc' Capitals to Small Capitals lookup 45 subtable" uni029D.sc
AlternateSubs2: "'aalt' Access All Alternates lookup 1 subtable" uni029D.sc uniA7B2.ss01
EndChar

StartChar: uni0248
Encoding: 584 584 158
Width: 533
GlyphClass: 2
Flags: W
AnchorPoint: "Anchor-3" 336 700 basechar 0
LayerCount: 2
Fore
SplineSet
172 -8 m 0,0,1
 101 -8 101 -8 48.5 19 c 128,-1,2
 -4 46 -4 46 -31 94 c 1,3,-1
 38 159 l 1,4,5
 58 122 58 122 92.5 100 c 128,-1,6
 127 78 127 78 174 78 c 0,7,8
 231 78 231 78 267 110 c 128,-1,9
 303 142 303 142 317 215 c 2,10,-1
 396 613 l 1,11,-1
 143 613 l 1,12,-1
 161 700 l 1,13,-1
 511 700 l 1,14,-1
 415 219 l 2,15,16
 399 135 399 135 367 85.5 c 128,-1,17
 335 36 335 36 286.5 14 c 128,-1,18
 238 -8 238 -8 172 -8 c 0,0,1
185 319 m 1,19,-1
 200 398 l 1,20,-1
 555 398 l 1,21,-1
 540 319 l 1,22,-1
 185 319 l 1,19,-1
EndSplineSet
Substitution2: "'ss01' Style Set 1 lookup 50 subtable" uni0248.ss01
Substitution2: "'c2sc' Capitals to Small Capitals lookup 45 subtable" uni0249.sc
AlternateSubs2: "'aalt' Access All Alternates lookup 1 subtable" uni0249.sc uni0248.ss01
EndChar

StartChar: K
Encoding: 75 75 159
Width: 739
GlyphClass: 2
Flags: W
AnchorPoint: "Anchor-3" 472 700 basechar 0
AnchorPoint: "Anchor-0" 332 0 basechar 0
LayerCount: 2
Fore
SplineSet
188 173 m 1,0,-1
 201 293 l 1,1,-1
 673 700 l 1,2,-1
 803 700 l 1,3,-1
 426 375 l 1,4,-1
 364 324 l 1,5,-1
 188 173 l 1,0,-1
62 0 m 1,6,-1
 202 700 l 1,7,-1
 302 700 l 1,8,-1
 162 0 l 1,9,-1
 62 0 l 1,6,-1
565 0 m 1,10,-1
 338 334 l 1,11,-1
 405 401 l 1,12,-1
 677 0 l 1,13,-1
 565 0 l 1,10,-1
EndSplineSet
Substitution2: "'c2sc' Capitals to Small Capitals lookup 45 subtable" k.sc
Substitution2: "'aalt' Access All Alternates lookup 0 subtable" k.sc
EndChar

StartChar: uni0198
Encoding: 408 408 164
Width: 728
GlyphClass: 2
Flags: W
AnchorPoint: "Anchor-3" 472 700 basechar 0
AnchorPoint: "Anchor-0" 332 0 basechar 0
LayerCount: 2
Fore
SplineSet
188 187 m 1,0,-1
 199 307 l 1,1,-1
 604 676 l 2,2,3
 654 722 654 722 696.5 737 c 128,-1,4
 739 752 739 752 772 744.5 c 128,-1,5
 805 737 805 737 828 713 c 1,6,-1
 779 649 l 1,7,8
 760 665 760 665 733 660 c 128,-1,9
 706 655 706 655 668 621 c 2,10,-1
 188 187 l 1,0,-1
62 0 m 1,11,-1
 202 700 l 1,12,-1
 300 700 l 1,13,-1
 160 0 l 1,14,-1
 62 0 l 1,11,-1
565 0 m 1,15,-1
 336 337 l 1,16,-1
 403 405 l 1,17,-1
 677 0 l 1,18,-1
 565 0 l 1,15,-1
EndSplineSet
Substitution2: "'c2sc' Capitals to Small Capitals lookup 45 subtable" uni0199.sc
Substitution2: "'aalt' Access All Alternates lookup 0 subtable" uni0199.sc
EndChar

StartChar: uniA740
Encoding: 42816 42816 166
Width: 776
GlyphClass: 2
Flags: W
AnchorPoint: "Anchor-3" 493 700 basechar 0
AnchorPoint: "Anchor-0" 353 0 basechar 0
LayerCount: 2
Fore
SplineSet
212 173 m 1,0,-1
 225 293 l 1,1,-1
 698 700 l 1,2,-1
 827 700 l 1,3,-1
 212 173 l 1,0,-1
87 0 m 1,4,-1
 227 700 l 1,5,-1
 326 700 l 1,6,-1
 186 0 l 1,7,-1
 87 0 l 1,4,-1
590 0 m 1,8,-1
 363 334 l 1,9,-1
 429 401 l 1,10,-1
 702 0 l 1,11,-1
 590 0 l 1,8,-1
89 528 m 1,12,-1
 104 605 l 1,13,-1
 460 605 l 1,14,-1
 445 528 l 1,15,-1
 89 528 l 1,12,-1
EndSplineSet
Substitution2: "'c2sc' Capitals to Small Capitals lookup 45 subtable" uniA741.sc
Substitution2: "'aalt' Access All Alternates lookup 0 subtable" uniA741.sc
EndChar

StartChar: L
Encoding: 76 76 167
Width: 614
GlyphClass: 2
Flags: W
AnchorPoint: "Anchor-4" 536 700 basechar 0
AnchorPoint: "Anchor-3" 253 700 basechar 0
AnchorPoint: "Anchor-1" 202 374 basechar 0
AnchorPoint: "Anchor-0" 313 0 basechar 0
LayerCount: 2
Fore
SplineSet
62 0 m 1,0,-1
 202 700 l 1,1,-1
 302 700 l 1,2,-1
 179 87 l 1,3,-1
 559 87 l 1,4,-1
 542 0 l 1,5,-1
 62 0 l 1,0,-1
EndSplineSet
Substitution2: "'c2sc' Capitals to Small Capitals lookup 45 subtable" l.sc
Substitution2: "'aalt' Access All Alternates lookup 0 subtable" l.sc
EndChar

StartChar: uni023D
Encoding: 573 573 170
Width: 624
GlyphClass: 2
Flags: W
AnchorPoint: "Anchor-4" 546 700 basechar 0
AnchorPoint: "Anchor-3" 263 700 basechar 0
AnchorPoint: "Anchor-1" 212 374 basechar 0
AnchorPoint: "Anchor-0" 323 0 basechar 0
LayerCount: 2
Fore
SplineSet
73 0 m 1,0,-1
 213 700 l 1,1,-1
 312 700 l 1,2,-1
 189 87 l 1,3,-1
 569 87 l 1,4,-1
 552 0 l 1,5,-1
 73 0 l 1,0,-1
33 319 m 1,6,-1
 48 398 l 1,7,-1
 406 398 l 1,8,-1
 391 319 l 1,9,-1
 33 319 l 1,6,-1
EndSplineSet
Substitution2: "'c2sc' Capitals to Small Capitals lookup 45 subtable" uni019A.sc
Substitution2: "'aalt' Access All Alternates lookup 0 subtable" uni019A.sc
EndChar

StartChar: uniA7AD
Encoding: 42925 42925 171
Width: 657
GlyphClass: 2
Flags: W
AnchorPoint: "Anchor-4" 578 700 basechar 0
AnchorPoint: "Anchor-3" 295 700 basechar 0
AnchorPoint: "Anchor-1" 230 376 basechar 0
AnchorPoint: "Anchor-0" 356 0 basechar 0
LayerCount: 2
Fore
SplineSet
105 0 m 1,0,-1
 245 700 l 1,1,-1
 345 700 l 1,2,-1
 222 87 l 1,3,-1
 602 87 l 1,4,-1
 585 0 l 1,5,-1
 105 0 l 1,0,-1
146 319 m 2,6,7
 76 319 76 319 38.5 358 c 128,-1,8
 1 397 1 397 13 458 c 0,9,10
 22 504 22 504 54.5 530.5 c 128,-1,11
 87 557 87 557 133 557 c 0,12,13
 193 557 193 557 221.5 513.5 c 128,-1,14
 250 470 250 470 236 398 c 1,15,-1
 185 398 l 1,16,17
 193 436 193 436 178 461.5 c 128,-1,18
 163 487 163 487 136 487 c 0,19,20
 118 487 118 487 107 477.5 c 128,-1,21
 96 468 96 468 93 452 c 0,22,23
 89 426 89 426 110 412 c 128,-1,24
 131 398 131 398 165 398 c 2,25,-1
 501 398 l 1,26,-1
 486 319 l 1,27,-1
 146 319 l 2,6,7
EndSplineSet
Substitution2: "'c2sc' Capitals to Small Capitals lookup 45 subtable" uni026C.sc
Substitution2: "'aalt' Access All Alternates lookup 0 subtable" uni026C.sc
EndChar

StartChar: uni2C60
Encoding: 11360 11360 178
Width: 648
GlyphClass: 2
Flags: W
AnchorPoint: "Anchor-4" 570 700 basechar 0
AnchorPoint: "Anchor-3" 287 700 basechar 0
AnchorPoint: "Anchor-1" 236 374 basechar 0
AnchorPoint: "Anchor-0" 348 0 basechar 0
LayerCount: 2
Fore
SplineSet
97 0 m 1,0,-1
 237 700 l 1,1,-1
 336 700 l 1,2,-1
 214 87 l 1,3,-1
 593 87 l 1,4,-1
 576 0 l 1,5,-1
 97 0 l 1,0,-1
82 433 m 1,6,-1
 96 510 l 1,7,-1
 454 510 l 1,8,-1
 439 433 l 1,9,-1
 82 433 l 1,6,-1
48 273 m 1,10,-1
 63 351 l 1,11,-1
 421 351 l 1,12,-1
 406 273 l 1,13,-1
 48 273 l 1,10,-1
EndSplineSet
Substitution2: "'c2sc' Capitals to Small Capitals lookup 45 subtable" uni2C61.sc
Substitution2: "'aalt' Access All Alternates lookup 0 subtable" uni2C61.sc
EndChar

StartChar: uni2C62
Encoding: 11362 11362 181
Width: 633
GlyphClass: 2
Flags: W
AnchorPoint: "Anchor-4" 550 700 basechar 0
AnchorPoint: "Anchor-3" 267 700 basechar 0
AnchorPoint: "Anchor-0" 317 0 basechar 0
LayerCount: 2
Fore
SplineSet
77 0 m 1,0,-1
 217 700 l 1,1,-1
 317 700 l 1,2,-1
 194 87 l 1,3,-1
 574 87 l 1,4,-1
 556 0 l 1,5,-1
 77 0 l 1,0,-1
294 330 m 0,6,7
 267 330 267 330 244.5 340 c 128,-1,8
 222 350 222 350 202.5 363 c 128,-1,9
 183 376 183 376 166 386 c 128,-1,10
 149 396 149 396 131 396 c 0,11,12
 106 396 106 396 88.5 380 c 128,-1,13
 71 364 71 364 64 336 c 1,14,-1
 11 336 l 1,15,16
 24 389 24 389 54 421.5 c 128,-1,17
 84 454 84 454 132 454 c 0,18,19
 158 454 158 454 181 444 c 128,-1,20
 204 434 204 434 223 421 c 128,-1,21
 242 408 242 408 260 398 c 128,-1,22
 278 388 278 388 296 388 c 0,23,24
 322 388 322 388 338.5 404 c 128,-1,25
 355 420 355 420 362 446 c 1,26,-1
 415 446 l 1,27,28
 403 394 403 394 372.5 362 c 128,-1,29
 342 330 342 330 294 330 c 0,6,7
EndSplineSet
Substitution2: "'c2sc' Capitals to Small Capitals lookup 45 subtable" uni026B.sc
Substitution2: "'aalt' Access All Alternates lookup 0 subtable" uni026B.sc
EndChar

StartChar: M
Encoding: 77 77 183
Width: 975
GlyphClass: 2
Flags: W
AnchorPoint: "Anchor-3" 575 700 basechar 0
AnchorPoint: "Anchor-0" 435 0 basechar 0
LayerCount: 2
Fore
SplineSet
62 0 m 1,0,-1
 202 700 l 1,1,-1
 283 700 l 1,2,-1
 493 170 l 1,3,-1
 450 171 l 1,4,-1
 861 700 l 1,5,-1
 947 700 l 1,6,-1
 807 0 l 1,7,-1
 711 0 l 1,8,-1
 822 552 l 1,9,-1
 847 550 l 1,10,-1
 482 85 l 1,11,-1
 436 85 l 1,12,-1
 247 552 l 1,13,-1
 268 549 l 1,14,-1
 158 0 l 1,15,-1
 62 0 l 1,0,-1
EndSplineSet
Substitution2: "'ss01' Style Set 1 lookup 50 subtable" M.ss01
Substitution2: "'c2sc' Capitals to Small Capitals lookup 45 subtable" m.sc
AlternateSubs2: "'aalt' Access All Alternates lookup 1 subtable" m.sc M.ss01
EndChar

StartChar: uni2C6E
Encoding: 11374 11374 187
Width: 979
GlyphClass: 2
Flags: W
AnchorPoint: "Anchor-3" 579 700 basechar 0
AnchorPoint: "Anchor-0" 439 0 basechar 0
LayerCount: 2
Fore
SplineSet
497 -167 m 1,0,-1
 540 -94 l 1,1,2
 562 -112 562 -112 588.5 -116 c 128,-1,3
 615 -120 615 -120 640 -112.5 c 128,-1,4
 665 -105 665 -105 683.5 -85 c 128,-1,5
 702 -65 702 -65 708 -34 c 2,6,-1
 824 549 l 1,7,-1
 853 548 l 1,8,-1
 486 85 l 1,9,-1
 440 85 l 1,10,-1
 254 549 l 1,11,-1
 272 549 l 1,12,-1
 162 0 l 1,13,-1
 66 0 l 1,14,-1
 206 700 l 1,15,-1
 288 700 l 1,16,-1
 497 171 l 1,17,-1
 453 172 l 1,18,-1
 868 700 l 1,19,-1
 950 700 l 1,20,-1
 804 -38 l 2,21,22
 792 -98 792 -98 757.5 -135.5 c 128,-1,23
 723 -173 723 -173 676.5 -188.5 c 128,-1,24
 630 -204 630 -204 582.5 -199 c 128,-1,25
 535 -194 535 -194 497 -167 c 1,0,-1
EndSplineSet
Substitution2: "'c2sc' Capitals to Small Capitals lookup 45 subtable" uni0271.sc
Substitution2: "'aalt' Access All Alternates lookup 0 subtable" uni0271.sc
EndChar

StartChar: uni019C
Encoding: 412 412 188
Width: 1217
GlyphClass: 2
Flags: W
AnchorPoint: "Anchor-3" 678 700 basechar 0
AnchorPoint: "Anchor-0" 538 0 basechar 0
LayerCount: 2
Fore
SplineSet
1189 700 m 1,0,-1
 1047 0 l 1,1,-1
 952 0 l 1,2,-1
 980 140 l 1,3,-1
 999 126 l 1,4,5
 961 63 961 63 897.5 27.5 c 128,-1,6
 834 -8 834 -8 750 -8 c 0,7,8
 660 -8 660 -8 603.5 32 c 128,-1,9
 547 72 547 72 541 141 c 1,10,-1
 572 139 l 1,11,12
 530 68 530 68 463.5 30 c 128,-1,13
 397 -8 397 -8 309 -8 c 0,14,15
 229 -8 229 -8 175.5 23 c 128,-1,16
 122 54 122 54 101.5 115 c 128,-1,17
 81 176 81 176 99 265 c 2,18,-1
 186 700 l 1,19,-1
 285 700 l 1,20,-1
 198 268 l 2,21,22
 179 172 179 172 217.5 126.5 c 128,-1,23
 256 81 256 81 334 81 c 0,24,25
 413 81 413 81 473 129.5 c 128,-1,26
 533 178 533 178 554 282 c 2,27,-1
 638 700 l 1,28,-1
 737 700 l 1,29,-1
 650 268 l 2,30,31
 631 172 631 172 667.5 126.5 c 128,-1,32
 704 81 704 81 782 81 c 0,33,34
 834 81 834 81 879.5 101.5 c 128,-1,35
 925 122 925 122 958 165.5 c 128,-1,36
 991 209 991 209 1005 278 c 2,37,-1
 1090 700 l 1,38,-1
 1189 700 l 1,0,-1
EndSplineSet
Substitution2: "'c2sc' Capitals to Small Capitals lookup 45 subtable" uni026F.sc
Substitution2: "'aalt' Access All Alternates lookup 0 subtable" uni026F.sc
EndChar

StartChar: N
Encoding: 78 78 189
Width: 832
GlyphClass: 2
Flags: W
AnchorPoint: "Anchor-3" 503 700 basechar 0
AnchorPoint: "Anchor-0" 363 0 basechar 0
LayerCount: 2
Fore
SplineSet
62 0 m 1,0,-1
 202 700 l 1,1,-1
 284 700 l 1,2,-1
 620 122 l 1,3,-1
 590 126 l 1,4,-1
 704 700 l 1,5,-1
 804 700 l 1,6,-1
 664 0 l 1,7,-1
 582 0 l 1,8,-1
 246 578 l 1,9,-1
 276 574 l 1,10,-1
 162 0 l 1,11,-1
 62 0 l 1,0,-1
EndSplineSet
Substitution2: "'ss01' Style Set 1 lookup 50 subtable" N.ss01
Substitution2: "'c2sc' Capitals to Small Capitals lookup 45 subtable" n.sc
AlternateSubs2: "'aalt' Access All Alternates lookup 1 subtable" n.sc N.ss01
EndChar

StartChar: uni019D
Encoding: 413 413 198
Width: 812
GlyphClass: 2
Flags: W
AnchorPoint: "Anchor-3" 503 700 basechar 0
AnchorPoint: "Anchor-0" 361 0 basechar 0
LayerCount: 2
Fore
SplineSet
-109 -181 m 1,0,-1
 -76 -104 l 1,1,2
 -41 -118 -41 -118 -13 -115 c 128,-1,3
 15 -112 15 -112 34 -92.5 c 128,-1,4
 53 -73 53 -73 59 -39 c 2,5,-1
 207 700 l 1,6,-1
 303 700 l 1,7,-1
 269 529 l 1,8,-1
 258 572 l 1,9,10
 300 639 300 639 365.5 673.5 c 128,-1,11
 431 708 431 708 516 708 c 0,12,13
 600 708 600 708 657.5 671.5 c 128,-1,14
 715 635 715 635 738 566.5 c 128,-1,15
 761 498 761 498 741 398 c 2,16,-1
 661 0 l 1,17,-1
 562 0 l 1,18,-1
 642 402 l 2,19,20
 664 511 664 511 623.5 565 c 128,-1,21
 583 619 583 619 488 619 c 0,22,23
 401 619 401 619 335.5 568 c 128,-1,24
 270 517 270 517 248 408 c 2,25,-1
 156 -55 l 2,26,27
 147 -101 147 -101 120.5 -133.5 c 128,-1,28
 94 -166 94 -166 56.5 -183.5 c 128,-1,29
 19 -201 19 -201 -24 -201 c 128,-1,30
 -67 -201 -67 -201 -109 -181 c 1,0,-1
EndSplineSet
Substitution2: "'c2sc' Capitals to Small Capitals lookup 45 subtable" uni0272.sc
Substitution2: "'aalt' Access All Alternates lookup 0 subtable" uni0272.sc
EndChar

StartChar: uni0220
Encoding: 544 544 201
Width: 813
GlyphClass: 2
Flags: W
AnchorPoint: "Anchor-3" 512 700 basechar 0
AnchorPoint: "Anchor-0" 371 0 basechar 0
LayerCount: 2
Fore
SplineSet
515 708 m 0,0,1
 599 708 599 708 656 671.5 c 128,-1,2
 713 635 713 635 736.5 566.5 c 128,-1,3
 760 498 760 498 740 398 c 2,4,-1
 621 -194 l 1,5,-1
 522 -194 l 1,6,-1
 641 402 l 2,7,8
 663 511 663 511 622.5 565 c 128,-1,9
 582 619 582 619 487 619 c 0,10,11
 400 619 400 619 334.5 568 c 128,-1,12
 269 517 269 517 247 408 c 2,13,-1
 166 0 l 1,14,-1
 66 0 l 1,15,-1
 206 700 l 1,16,-1
 302 700 l 1,17,-1
 268 529 l 1,18,-1
 257 572 l 1,19,20
 299 639 299 639 364.5 673.5 c 128,-1,21
 430 708 430 708 515 708 c 0,0,1
EndSplineSet
EndChar

StartChar: Eng
Encoding: 330 330 203
Width: 832
GlyphClass: 2
Flags: W
AnchorPoint: "Anchor-3" 503 700 basechar 0
AnchorPoint: "Anchor-0" 324 -195 basechar 0
LayerCount: 2
Fore
SplineSet
62 0 m 1,0,-1
 202 700 l 1,1,-1
 284 700 l 1,2,-1
 620 122 l 1,3,-1
 582 0 l 1,4,-1
 246 578 l 1,5,-1
 276 574 l 1,6,-1
 162 0 l 1,7,-1
 62 0 l 1,0,-1
427 -200 m 0,8,9
 370 -200 370 -200 321 -178 c 128,-1,10
 272 -156 272 -156 247 -118 c 1,11,-1
 304 -50 l 1,12,13
 324 -79 324 -79 356 -96.5 c 128,-1,14
 388 -114 388 -114 430 -114 c 0,15,16
 486 -114 486 -114 520.5 -83 c 128,-1,17
 555 -52 555 -52 569 21 c 2,18,-1
 704 700 l 1,19,-1
 804 700 l 1,20,-1
 671 38 l 2,21,22
 653 -53 653 -53 620 -104.5 c 128,-1,23
 587 -156 587 -156 539 -178 c 128,-1,24
 491 -200 491 -200 427 -200 c 0,8,9
EndSplineSet
Substitution2: "'ss01' Style Set 1 lookup 50 subtable" Eng.ss01
Substitution2: "'c2sc' Capitals to Small Capitals lookup 45 subtable" eng.sc
Substitution2: "'locl' Localized Forms in Latin lookup 17 subtable" Eng.loclNSM
AlternateSubs2: "'aalt' Access All Alternates lookup 1 subtable" Eng.loclNSM eng.sc Eng.ss01
EndChar

StartChar: O
Encoding: 79 79 204
Width: 860
GlyphClass: 2
Flags: W
AnchorPoint: "Anchor-4" 735 700 basechar 0
AnchorPoint: "Anchor-3" 517 700 basechar 0
AnchorPoint: "Anchor-2" 455 0 basechar 0
AnchorPoint: "Anchor-1" 447 350 basechar 0
AnchorPoint: "Anchor-0" 377 0 basechar 0
LayerCount: 2
Fore
SplineSet
399 -8 m 0,0,1
 295 -8 295 -8 221 29 c 128,-1,2
 147 66 147 66 108.5 132.5 c 128,-1,3
 70 199 70 199 70 287 c 0,4,5
 70 374 70 374 100 450.5 c 128,-1,6
 130 527 130 527 186 585 c 128,-1,7
 242 643 242 643 320 675.5 c 128,-1,8
 398 708 398 708 495 708 c 0,9,10
 600 708 600 708 674 671 c 128,-1,11
 748 634 748 634 786.5 567.5 c 128,-1,12
 825 501 825 501 825 413 c 0,13,14
 825 326 825 326 795 249.5 c 128,-1,15
 765 173 765 173 709 115 c 128,-1,16
 653 57 653 57 574.5 24.5 c 128,-1,17
 496 -8 496 -8 399 -8 c 0,0,1
408 81 m 0,18,19
 480 81 480 81 539 106.5 c 128,-1,20
 598 132 598 132 639 177.5 c 128,-1,21
 680 223 680 223 702 282 c 128,-1,22
 724 341 724 341 724 407 c 0,23,24
 724 470 724 470 697 517.5 c 128,-1,25
 670 565 670 565 617 592 c 128,-1,26
 564 619 564 619 487 619 c 0,27,28
 414 619 414 619 355.5 593.5 c 128,-1,29
 297 568 297 568 255.5 522.5 c 128,-1,30
 214 477 214 477 192 418 c 128,-1,31
 170 359 170 359 170 293 c 0,32,33
 170 230 170 230 197.5 182.5 c 128,-1,34
 225 135 225 135 277.5 108 c 128,-1,35
 330 81 330 81 408 81 c 0,18,19
EndSplineSet
Substitution2: "'c2sc' Capitals to Small Capitals lookup 45 subtable" o.sc
Substitution2: "Single Substitution lookup 39 subtable" ordmasculine
AlternateSubs2: "'aalt' Access All Alternates lookup 1 subtable" ordmasculine o.sc
EndChar

StartChar: uni0222
Encoding: 546 546 205
Width: 761
GlyphClass: 1
Flags: W
LayerCount: 2
Fore
SplineSet
349 -8 m 0,0,1
 245 -8 245 -8 174.5 24 c 128,-1,2
 104 56 104 56 73.5 111.5 c 128,-1,3
 43 167 43 167 57 239 c 0,4,5
 71 306 71 306 114 352.5 c 128,-1,6
 157 399 157 399 228 424.5 c 128,-1,7
 299 450 299 450 396 450 c 0,8,9
 494 450 494 450 564.5 421.5 c 128,-1,10
 635 393 635 393 669 340.5 c 128,-1,11
 703 288 703 288 689 216 c 0,12,13
 676 147 676 147 632 97 c 128,-1,14
 588 47 588 47 516.5 19.5 c 128,-1,15
 445 -8 445 -8 349 -8 c 0,0,1
357 78 m 0,16,17
 421 78 421 78 470.5 95 c 128,-1,18
 520 112 520 112 550.5 143.5 c 128,-1,19
 581 175 581 175 589 218 c 0,20,21
 599 264 599 264 579.5 301 c 128,-1,22
 560 338 560 338 512.5 359.5 c 128,-1,23
 465 381 465 381 389 381 c 0,24,25
 326 381 326 381 277 363.5 c 128,-1,26
 228 346 228 346 197.5 314.5 c 128,-1,27
 167 283 167 283 157 240 c 0,28,29
 149 195 149 195 168.5 158 c 128,-1,30
 188 121 188 121 235.5 99.5 c 128,-1,31
 283 78 283 78 357 78 c 0,16,17
415 392 m 0,32,33
 323 392 323 392 261.5 419 c 128,-1,34
 200 446 200 446 174.5 495 c 128,-1,35
 149 544 149 544 163 612 c 2,36,-1
 181 700 l 1,37,-1
 280 700 l 1,38,-1
 260 603 l 2,39,40
 251 560 251 560 269 527.5 c 128,-1,41
 287 495 287 495 328 477.5 c 128,-1,42
 369 460 369 460 429 460 c 0,43,44
 486 460 486 460 529 476.5 c 128,-1,45
 572 493 572 493 599 524.5 c 128,-1,46
 626 556 626 556 635 601 c 2,47,-1
 655 700 l 1,48,-1
 755 700 l 1,49,-1
 733 589 l 2,50,51
 721 529 721 529 679 484.5 c 128,-1,52
 637 440 637 440 570 416 c 128,-1,53
 503 392 503 392 415 392 c 0,32,33
EndSplineSet
Substitution2: "'c2sc' Capitals to Small Capitals lookup 45 subtable" uni0223.sc
Substitution2: "'aalt' Access All Alternates lookup 0 subtable" uni0223.sc
EndChar

StartChar: Ohorn
Encoding: 416 416 224
Width: 860
GlyphClass: 2
Flags: W
AnchorPoint: "Anchor-3" 517 700 basechar 0
AnchorPoint: "Anchor-0" 377 0 basechar 0
LayerCount: 2
Fore
SplineSet
399 -8 m 0,0,1
 295 -8 295 -8 221 29 c 128,-1,2
 147 66 147 66 108.5 132.5 c 128,-1,3
 70 199 70 199 70 287 c 0,4,5
 70 374 70 374 100 450.5 c 128,-1,6
 130 527 130 527 186 585 c 128,-1,7
 242 643 242 643 320 675.5 c 128,-1,8
 398 708 398 708 495 708 c 0,9,10
 542 708 542 708 577.5 704 c 128,-1,11
 613 700 613 700 646.5 695.5 c 128,-1,12
 680 691 680 691 719 691 c 0,13,14
 767 691 767 691 792 711 c 128,-1,15
 817 731 817 731 817 766 c 0,16,17
 817 784 817 784 811.5 800 c 128,-1,18
 806 816 806 816 797 829 c 1,19,-1
 858 852 l 1,20,21
 871 834 871 834 878.5 811 c 128,-1,22
 886 788 886 788 886 763 c 0,23,24
 886 720 886 720 868 689 c 128,-1,25
 850 658 850 658 817 641 c 128,-1,26
 784 624 784 624 740 624 c 0,27,28
 726 624 726 624 712 625.5 c 128,-1,29
 698 627 698 627 685 628 c 1,30,-1
 719 640 l 1,31,32
 771 601 771 601 798 543.5 c 128,-1,33
 825 486 825 486 825 413 c 0,34,35
 825 326 825 326 795 249.5 c 128,-1,36
 765 173 765 173 709 115 c 128,-1,37
 653 57 653 57 574.5 24.5 c 128,-1,38
 496 -8 496 -8 399 -8 c 0,0,1
408 81 m 0,39,40
 480 81 480 81 539 106.5 c 128,-1,41
 598 132 598 132 639 177.5 c 128,-1,42
 680 223 680 223 702 282 c 128,-1,43
 724 341 724 341 724 407 c 0,44,45
 724 470 724 470 697 517.5 c 128,-1,46
 670 565 670 565 617 592 c 128,-1,47
 564 619 564 619 487 619 c 0,48,49
 414 619 414 619 355.5 593.5 c 128,-1,50
 297 568 297 568 255.5 522.5 c 128,-1,51
 214 477 214 477 192 418 c 128,-1,52
 170 359 170 359 170 293 c 0,53,54
 170 230 170 230 197.5 182.5 c 128,-1,55
 225 135 225 135 277.5 108 c 128,-1,56
 330 81 330 81 408 81 c 0,39,40
EndSplineSet
Substitution2: "'c2sc' Capitals to Small Capitals lookup 45 subtable" ohorn.sc
Substitution2: "'aalt' Access All Alternates lookup 0 subtable" ohorn.sc
EndChar

StartChar: uniA7B6
Encoding: 42934 42934 235
Width: 1071
GlyphClass: 2
Flags: W
AnchorPoint: "Anchor-3" 618 700 basechar 0
AnchorPoint: "Anchor-0" 478 0 basechar 0
LayerCount: 2
Fore
SplineSet
295 -6 m 0,0,1
 214 -6 214 -6 161 38 c 128,-1,2
 108 82 108 82 90 161.5 c 128,-1,3
 72 241 72 241 92 347 c 0,4,5
 105 413 105 413 131.5 477.5 c 128,-1,6
 158 542 158 542 194.5 599.5 c 128,-1,7
 231 657 231 657 274 700 c 1,8,-1
 386 700 l 1,9,10
 338 654 338 654 298.5 597 c 128,-1,11
 259 540 259 540 232 475.5 c 128,-1,12
 205 411 205 411 192 346 c 0,13,14
 176 267 176 267 185.5 208 c 128,-1,15
 195 149 195 149 228.5 116.5 c 128,-1,16
 262 84 262 84 313 84 c 0,17,18
 356 84 356 84 390.5 106 c 128,-1,19
 425 128 425 128 449 170.5 c 128,-1,20
 473 213 473 213 485 273 c 2,21,-1
 517 432 l 1,22,-1
 621 432 l 1,23,-1
 589 273 l 2,24,25
 578 217 578 217 588 174.5 c 128,-1,26
 598 132 598 132 627 108 c 128,-1,27
 656 84 656 84 702 84 c 0,28,29
 753 84 753 84 795 115 c 128,-1,30
 837 146 837 146 866.5 205.5 c 128,-1,31
 896 265 896 265 912 348 c 0,32,33
 930 449 930 449 917.5 538 c 128,-1,34
 905 627 905 627 861 700 c 1,35,-1
 973 700 l 1,36,37
 1013 630 1013 630 1022.5 541 c 128,-1,38
 1032 452 1032 452 1012 346 c 0,39,40
 991 235 991 235 947 156 c 128,-1,41
 903 77 903 77 840.5 35.5 c 128,-1,42
 778 -6 778 -6 699 -6 c 0,43,44
 629 -6 629 -6 580 26.5 c 128,-1,45
 531 59 531 59 510.5 116.5 c 128,-1,46
 490 174 490 174 505 246 c 1,47,-1
 560 246 l 1,48,49
 544 168 544 168 507 111.5 c 128,-1,50
 470 55 470 55 416 24.5 c 128,-1,51
 362 -6 362 -6 295 -6 c 0,0,1
EndSplineSet
Substitution2: "'c2sc' Capitals to Small Capitals lookup 45 subtable" uniA7B7.sc
Substitution2: "'aalt' Access All Alternates lookup 0 subtable" uniA7B7.sc
EndChar

StartChar: uni01EA
Encoding: 490 490 236
Width: 860
GlyphClass: 2
Flags: W
AnchorPoint: "Anchor-3" 517 700 basechar 0
LayerCount: 2
Fore
SplineSet
347 -224 m 0,0,1
 301 -224 301 -224 271 -201 c 128,-1,2
 241 -178 241 -178 241 -136 c 0,3,4
 241 -89 241 -89 275 -48 c 128,-1,5
 309 -7 309 -7 386 21 c 1,6,-1
 399 -8 l 1,7,8
 295 -8 295 -8 221 29 c 128,-1,9
 147 66 147 66 108.5 132.5 c 128,-1,10
 70 199 70 199 70 287 c 0,11,12
 70 374 70 374 100 450.5 c 128,-1,13
 130 527 130 527 186 585 c 128,-1,14
 242 643 242 643 320 675.5 c 128,-1,15
 398 708 398 708 495 708 c 0,16,17
 600 708 600 708 674 671 c 128,-1,18
 748 634 748 634 786.5 567.5 c 128,-1,19
 825 501 825 501 825 413 c 0,20,21
 825 312 825 312 785 226 c 128,-1,22
 745 140 745 140 672 81.5 c 128,-1,23
 599 23 599 23 501 2 c 0,24,25
 430 -12 430 -12 388.5 -33 c 128,-1,26
 347 -54 347 -54 329 -77.5 c 128,-1,27
 311 -101 311 -101 311 -123 c 256,28,29
 311 -145 311 -145 325 -156.5 c 128,-1,30
 339 -168 339 -168 362 -168 c 0,31,32
 379 -168 379 -168 397 -163 c 128,-1,33
 415 -158 415 -158 429 -150 c 1,34,-1
 441 -200 l 1,35,36
 421 -211 421 -211 398 -217.5 c 128,-1,37
 375 -224 375 -224 347 -224 c 0,0,1
408 81 m 0,38,39
 480 81 480 81 539 106.5 c 128,-1,40
 598 132 598 132 639 177.5 c 128,-1,41
 680 223 680 223 702 282 c 128,-1,42
 724 341 724 341 724 407 c 0,43,44
 724 470 724 470 697 517.5 c 128,-1,45
 670 565 670 565 617 592 c 128,-1,46
 564 619 564 619 487 619 c 0,47,48
 414 619 414 619 355.5 593.5 c 128,-1,49
 297 568 297 568 255.5 522.5 c 128,-1,50
 214 477 214 477 192 418 c 128,-1,51
 170 359 170 359 170 293 c 0,52,53
 170 230 170 230 197.5 182.5 c 128,-1,54
 225 135 225 135 277.5 108 c 128,-1,55
 330 81 330 81 408 81 c 0,38,39
EndSplineSet
Substitution2: "'c2sc' Capitals to Small Capitals lookup 45 subtable" uni01EB.sc
Substitution2: "'locl' Localized Forms in Latin lookup 15 subtable" uni01EA.loclNAV
AlternateSubs2: "'aalt' Access All Alternates lookup 1 subtable" uni01EA.loclNAV uni01EB.sc
EndChar

StartChar: uni0186
Encoding: 390 390 238
Width: 743
GlyphClass: 2
Flags: W
AnchorPoint: "Anchor-3" 418 700 basechar 0
AnchorPoint: "Anchor-2" 344 0 basechar 0
AnchorPoint: "Anchor-0" 278 0 basechar 0
LayerCount: 2
Fore
SplineSet
374 708 m 0,0,1
 479 708 479 708 554 671 c 128,-1,2
 629 634 629 634 668 567.5 c 128,-1,3
 707 501 707 501 707 413 c 0,4,5
 707 326 707 326 677 249.5 c 128,-1,6
 647 173 647 173 591 115 c 128,-1,7
 535 57 535 57 456 24.5 c 128,-1,8
 377 -8 377 -8 279 -8 c 0,9,10
 192 -8 192 -8 125 20 c 128,-1,11
 58 48 58 48 22 101 c 1,12,-1
 93 163 l 1,13,14
 124 123 124 123 172 102 c 128,-1,15
 220 81 220 81 286 81 c 0,16,17
 360 81 360 81 419.5 106.5 c 128,-1,18
 479 132 479 132 521 177.5 c 128,-1,19
 563 223 563 223 585 282 c 128,-1,20
 607 341 607 341 607 407 c 0,21,22
 607 471 607 471 580 518 c 128,-1,23
 553 565 553 565 499.5 592 c 128,-1,24
 446 619 446 619 367 619 c 0,25,26
 303 619 303 619 249.5 598 c 128,-1,27
 196 577 196 577 155 536 c 1,28,-1
 96 602 l 1,29,30
 145 656 145 656 217.5 682 c 128,-1,31
 290 708 290 708 374 708 c 0,0,1
EndSplineSet
Substitution2: "'c2sc' Capitals to Small Capitals lookup 45 subtable" uni0254.sc
Substitution2: "'aalt' Access All Alternates lookup 0 subtable" uni0254.sc
EndChar

StartChar: OE
Encoding: 338 338 245
Width: 1146
GlyphClass: 2
Flags: W
AnchorPoint: "Anchor-3" 707 700 basechar 0
AnchorPoint: "Anchor-0" 567 0 basechar 0
LayerCount: 2
Fore
SplineSet
405 0 m 2,0,1
 299 0 299 0 224 35.5 c 128,-1,2
 149 71 149 71 109.5 135.5 c 128,-1,3
 70 200 70 200 70 287 c 0,4,5
 70 379 70 379 101 455.5 c 128,-1,6
 132 532 132 532 189.5 586.5 c 128,-1,7
 247 641 247 641 327 670.5 c 128,-1,8
 407 700 407 700 505 700 c 2,9,-1
 684 700 l 1,10,-1
 668 613 l 1,11,-1
 502 613 l 2,12,13
 400 613 400 613 325 571.5 c 128,-1,14
 250 530 250 530 210 457.5 c 128,-1,15
 170 385 170 385 170 293 c 0,16,17
 170 230 170 230 197.5 183.5 c 128,-1,18
 225 137 225 137 279 112 c 128,-1,19
 333 87 333 87 415 87 c 2,20,-1
 559 87 l 1,21,-1
 544 0 l 1,22,-1
 405 0 l 2,0,1
518 0 m 1,23,-1
 658 700 l 1,24,-1
 1152 700 l 1,25,-1
 1135 613 l 1,26,-1
 740 613 l 1,27,-1
 635 87 l 1,28,-1
 1044 87 l 1,29,-1
 1026 0 l 1,30,-1
 518 0 l 1,23,-1
672 313 m 1,31,-1
 689 398 l 1,32,-1
 1049 398 l 1,33,-1
 1032 313 l 1,34,-1
 672 313 l 1,31,-1
EndSplineSet
Substitution2: "'c2sc' Capitals to Small Capitals lookup 45 subtable" oe.sc
Substitution2: "'aalt' Access All Alternates lookup 0 subtable" oe.sc
EndChar

StartChar: P
Encoding: 80 80 246
Width: 742
GlyphClass: 2
Flags: W
AnchorPoint: "Anchor-3" 458 700 basechar 0
AnchorPoint: "Anchor-0" 318 0 basechar 0
LayerCount: 2
Fore
SplineSet
62 0 m 1,0,-1
 202 700 l 1,1,-1
 462 700 l 2,2,3
 585 700 585 700 652 646 c 128,-1,4
 719 592 719 592 719 495 c 0,5,6
 719 406 719 406 679.5 342.5 c 128,-1,7
 640 279 640 279 566 245.5 c 128,-1,8
 492 212 492 212 391 212 c 2,9,-1
 161 212 l 1,10,-1
 214 260 l 1,11,-1
 162 0 l 1,12,-1
 62 0 l 1,0,-1
212 249 m 1,13,-1
 177 299 l 1,14,-1
 393 299 l 2,15,16
 500 299 500 299 559.5 346.5 c 128,-1,17
 619 394 619 394 619 486 c 0,18,19
 619 549 619 549 576 581 c 128,-1,20
 533 613 533 613 453 613 c 2,21,-1
 242 613 l 1,22,-1
 295 664 l 1,23,-1
 212 249 l 1,13,-1
EndSplineSet
Substitution2: "'c2sc' Capitals to Small Capitals lookup 45 subtable" p.sc
Substitution2: "'aalt' Access All Alternates lookup 0 subtable" p.sc
EndChar

StartChar: uni01A4
Encoding: 420 420 249
Width: 912
GlyphClass: 2
Flags: W
AnchorPoint: "Anchor-3" 628 700 basechar 0
AnchorPoint: "Anchor-0" 488 0 basechar 0
LayerCount: 2
Fore
SplineSet
139 383 m 1,0,1
 102 439 102 439 97 495 c 128,-1,2
 92 551 92 551 114 597.5 c 128,-1,3
 136 644 136 644 181.5 672 c 128,-1,4
 227 700 227 700 290 700 c 2,5,-1
 381 700 l 1,6,-1
 363 613 l 1,7,-1
 291 613 l 2,8,9
 248 613 248 613 222 586 c 128,-1,10
 196 559 196 559 193.5 518.5 c 128,-1,11
 191 478 191 478 219 438 c 1,12,-1
 139 383 l 1,0,1
232 0 m 1,13,-1
 372 700 l 1,14,-1
 632 700 l 2,15,16
 754 700 754 700 821.5 646 c 128,-1,17
 889 592 889 592 889 495 c 0,18,19
 889 406 889 406 849.5 342.5 c 128,-1,20
 810 279 810 279 736 245.5 c 128,-1,21
 662 212 662 212 560 212 c 2,22,-1
 331 212 l 1,23,-1
 384 260 l 1,24,-1
 332 0 l 1,25,-1
 232 0 l 1,13,-1
382 249 m 1,26,-1
 347 299 l 1,27,-1
 563 299 l 2,28,29
 670 299 670 299 729.5 346.5 c 128,-1,30
 789 394 789 394 789 486 c 0,31,32
 789 549 789 549 746 581 c 128,-1,33
 703 613 703 613 623 613 c 2,34,-1
 412 613 l 1,35,-1
 464 664 l 1,36,-1
 382 249 l 1,26,-1
EndSplineSet
Substitution2: "'c2sc' Capitals to Small Capitals lookup 45 subtable" uni01A5.sc
Substitution2: "'aalt' Access All Alternates lookup 0 subtable" uni01A5.sc
EndChar

StartChar: Thorn
Encoding: 222 222 250
Width: 742
GlyphClass: 2
Flags: W
AnchorPoint: "Anchor-3" 458 700 basechar 0
AnchorPoint: "Anchor-0" 318 0 basechar 0
LayerCount: 2
Fore
SplineSet
165 125 m 1,0,-1
 180 212 l 1,1,-1
 376 212 l 2,2,3
 484 212 484 212 543.5 259.5 c 128,-1,4
 603 307 603 307 603 399 c 0,5,6
 603 463 603 463 559.5 495 c 128,-1,7
 516 527 516 527 436 527 c 2,8,-1
 245 527 l 1,9,-1
 261 613 l 1,10,-1
 448 613 l 2,11,12
 569 613 569 613 636 559.5 c 128,-1,13
 703 506 703 506 703 409 c 0,14,15
 703 320 703 320 663 256.5 c 128,-1,16
 623 193 623 193 549 159 c 128,-1,17
 475 125 475 125 374 125 c 2,18,-1
 165 125 l 1,0,-1
62 0 m 1,19,-1
 202 700 l 1,20,-1
 302 700 l 1,21,-1
 162 0 l 1,22,-1
 62 0 l 1,19,-1
EndSplineSet
Substitution2: "'c2sc' Capitals to Small Capitals lookup 45 subtable" thorn.sc
Substitution2: "'aalt' Access All Alternates lookup 0 subtable" thorn.sc
EndChar

StartChar: uni2C63
Encoding: 11363 11363 251
Width: 749
GlyphClass: 2
Flags: W
LayerCount: 2
Fore
SplineSet
69 0 m 1,0,-1
 209 700 l 1,1,-1
 469 700 l 2,2,3
 592 700 592 700 659.5 646 c 128,-1,4
 727 592 727 592 727 495 c 0,5,6
 727 406 727 406 687 342.5 c 128,-1,7
 647 279 647 279 573 245.5 c 128,-1,8
 499 212 499 212 398 212 c 2,9,-1
 168 212 l 1,10,-1
 221 260 l 1,11,-1
 169 0 l 1,12,-1
 69 0 l 1,0,-1
51 419 m 1,13,-1
 66 496 l 1,14,-1
 420 496 l 1,15,-1
 405 419 l 1,16,-1
 51 419 l 1,13,-1
219 249 m 1,17,-1
 184 299 l 1,18,-1
 400 299 l 2,19,20
 508 299 508 299 567 346.5 c 128,-1,21
 626 394 626 394 626 486 c 0,22,23
 626 549 626 549 583 581 c 128,-1,24
 540 613 540 613 460 613 c 2,25,-1
 249 613 l 1,26,-1
 302 664 l 1,27,-1
 219 249 l 1,17,-1
EndSplineSet
Substitution2: "'c2sc' Capitals to Small Capitals lookup 45 subtable" uni1D7D.sc
Substitution2: "'aalt' Access All Alternates lookup 0 subtable" uni1D7D.sc
EndChar

StartChar: Q
Encoding: 81 81 252
Width: 860
GlyphClass: 2
Flags: W
AnchorPoint: "Anchor-3" 518 700 basechar 0
LayerCount: 2
Fore
SplineSet
399 -8 m 0,0,1
 295 -8 295 -8 221 29 c 128,-1,2
 147 66 147 66 108.5 132.5 c 128,-1,3
 70 199 70 199 70 287 c 0,4,5
 70 374 70 374 100 450.5 c 128,-1,6
 130 527 130 527 186 585 c 128,-1,7
 242 643 242 643 320 675.5 c 128,-1,8
 398 708 398 708 495 708 c 0,9,10
 600 708 600 708 674 671 c 128,-1,11
 748 634 748 634 786.5 567.5 c 128,-1,12
 825 501 825 501 825 413 c 0,13,14
 825 326 825 326 795 249.5 c 128,-1,15
 765 173 765 173 709 115 c 128,-1,16
 653 57 653 57 574.5 24.5 c 128,-1,17
 496 -8 496 -8 399 -8 c 0,0,1
600 -146 m 0,18,19
 518 -146 518 -146 454 -104.5 c 128,-1,20
 390 -63 390 -63 343 14 c 1,21,-1
 455 38 l 1,22,23
 483 -17 483 -17 519 -42 c 128,-1,24
 555 -67 555 -67 603 -67 c 0,25,26
 639 -67 639 -67 672.5 -52.5 c 128,-1,27
 706 -38 706 -38 732 -11 c 1,28,-1
 773 -72 l 1,29,30
 742 -110 742 -110 696.5 -128 c 128,-1,31
 651 -146 651 -146 600 -146 c 0,18,19
408 81 m 0,32,33
 480 81 480 81 539 106.5 c 128,-1,34
 598 132 598 132 639 177.5 c 128,-1,35
 680 223 680 223 702 282 c 128,-1,36
 724 341 724 341 724 407 c 0,37,38
 724 470 724 470 697 517.5 c 128,-1,39
 670 565 670 565 617 592 c 128,-1,40
 564 619 564 619 487 619 c 0,41,42
 414 619 414 619 355.5 593.5 c 128,-1,43
 297 568 297 568 255.5 522.5 c 128,-1,44
 214 477 214 477 192 418 c 128,-1,45
 170 359 170 359 170 293 c 0,46,47
 170 230 170 230 197.5 182.5 c 128,-1,48
 225 135 225 135 277.5 108 c 128,-1,49
 330 81 330 81 408 81 c 0,32,33
EndSplineSet
Substitution2: "'ss01' Style Set 1 lookup 50 subtable" Q.ss01
Substitution2: "'c2sc' Capitals to Small Capitals lookup 45 subtable" q.sc
AlternateSubs2: "'aalt' Access All Alternates lookup 1 subtable" q.sc Q.ss01
EndChar

StartChar: uni024A
Encoding: 586 586 253
Width: 925
GlyphClass: 2
Flags: W
AnchorPoint: "Anchor-4" 743 700 basechar 0
AnchorPoint: "Anchor-3" 524 700 basechar 0
AnchorPoint: "Anchor-2" 461 0 basechar 0
AnchorPoint: "Anchor-1" 454 350 basechar 0
AnchorPoint: "Anchor-0" 384 0 basechar 0
LayerCount: 2
Fore
SplineSet
386 -8 m 0,0,1
 293 -8 293 -8 223.5 30 c 128,-1,2
 154 68 154 68 115.5 137.5 c 128,-1,3
 77 207 77 207 77 299 c 0,4,5
 77 386 77 386 109.5 460.5 c 128,-1,6
 142 535 142 535 199.5 590.5 c 128,-1,7
 257 646 257 646 334 677 c 128,-1,8
 411 708 411 708 500 708 c 0,9,10
 608 708 608 708 678.5 663 c 128,-1,11
 749 618 749 618 776 536.5 c 128,-1,12
 803 455 803 455 782 344 c 0,13,14
 761 236 761 236 705 157 c 128,-1,15
 649 78 649 78 567.5 35 c 128,-1,16
 486 -8 486 -8 386 -8 c 0,0,1
398 81 m 0,17,18
 479 81 479 81 549 117.5 c 128,-1,19
 619 154 619 154 666 217 c 128,-1,20
 713 280 713 280 726 359 c 0,21,22
 739 435 739 435 714 493.5 c 128,-1,23
 689 552 689 552 632.5 585.5 c 128,-1,24
 576 619 576 619 496 619 c 0,25,26
 429 619 429 619 371 595 c 128,-1,27
 313 571 313 571 269.5 528 c 128,-1,28
 226 485 226 485 202 427.5 c 128,-1,29
 178 370 178 370 178 303 c 0,30,31
 178 200 178 200 237 140.5 c 128,-1,32
 296 81 296 81 398 81 c 0,17,18
868 -190 m 1,33,34
 824 -203 824 -203 781 -199.5 c 128,-1,35
 738 -196 738 -196 705 -176 c 128,-1,36
 672 -156 672 -156 656 -120 c 128,-1,37
 640 -84 640 -84 651 -31 c 2,38,-1
 698 208 l 1,39,-1
 738 353 l 1,40,-1
 753 498 l 1,41,-1
 793 700 l 1,42,-1
 893 700 l 1,43,-1
 748 -27 l 2,44,45
 740 -65 740 -65 754 -87 c 128,-1,46
 768 -109 768 -109 797.5 -115 c 128,-1,47
 827 -121 827 -121 862 -112 c 1,48,-1
 868 -190 l 1,33,34
EndSplineSet
Substitution2: "'c2sc' Capitals to Small Capitals lookup 45 subtable" uni024B.sc
Substitution2: "'aalt' Access All Alternates lookup 0 subtable" uni024B.sc
EndChar

StartChar: R
Encoding: 82 82 254
Width: 747
GlyphClass: 2
Flags: W
AnchorPoint: "Anchor-3" 467 700 basechar 0
AnchorPoint: "Anchor-0" 327 0 basechar 0
LayerCount: 2
Fore
SplineSet
62 0 m 1,0,-1
 202 700 l 1,1,-1
 463 700 l 2,2,3
 586 700 586 700 653.5 646 c 128,-1,4
 721 592 721 592 721 495 c 0,5,6
 721 407 721 407 681.5 344 c 128,-1,7
 642 281 642 281 568 247.5 c 128,-1,8
 494 214 494 214 392 214 c 2,9,-1
 163 214 l 1,10,-1
 214 260 l 1,11,-1
 163 0 l 1,12,-1
 62 0 l 1,0,-1
533 0 m 1,13,-1
 389 254 l 1,14,-1
 496 254 l 1,15,-1
 639 0 l 1,16,-1
 533 0 l 1,13,-1
212 249 m 1,17,-1
 178 299 l 1,18,-1
 395 299 l 2,19,20
 502 299 502 299 561.5 346.5 c 128,-1,21
 621 394 621 394 621 486 c 0,22,23
 621 549 621 549 578 581 c 128,-1,24
 535 613 535 613 454 613 c 2,25,-1
 244 613 l 1,26,-1
 295 664 l 1,27,-1
 212 249 l 1,17,-1
EndSplineSet
Substitution2: "'c2sc' Capitals to Small Capitals lookup 45 subtable" r.sc
Substitution2: "'aalt' Access All Alternates lookup 0 subtable" r.sc
EndChar

StartChar: uni024C
Encoding: 588 588 264
Width: 747
GlyphClass: 2
Flags: W
AnchorPoint: "Anchor-3" 467 700 basechar 0
AnchorPoint: "Anchor-0" 327 0 basechar 0
LayerCount: 2
Fore
SplineSet
62 0 m 1,0,-1
 202 700 l 1,1,-1
 463 700 l 2,2,3
 586 700 586 700 653.5 646 c 128,-1,4
 721 592 721 592 721 495 c 0,5,6
 721 407 721 407 681.5 344 c 128,-1,7
 642 281 642 281 568 247.5 c 128,-1,8
 494 214 494 214 392 214 c 2,9,-1
 163 214 l 1,10,-1
 214 260 l 1,11,-1
 163 0 l 1,12,-1
 62 0 l 1,0,-1
533 0 m 1,13,-1
 389 254 l 1,14,-1
 496 254 l 1,15,-1
 639 0 l 1,16,-1
 533 0 l 1,13,-1
212 249 m 1,17,-1
 178 299 l 1,18,-1
 395 299 l 2,19,20
 502 299 502 299 561.5 346.5 c 128,-1,21
 621 394 621 394 621 486 c 0,22,23
 621 549 621 549 578 581 c 128,-1,24
 535 613 535 613 454 613 c 2,25,-1
 244 613 l 1,26,-1
 295 664 l 1,27,-1
 212 249 l 1,17,-1
2 220 m 1,28,-1
 17 299 l 1,29,-1
 342 299 l 1,30,-1
 328 220 l 1,31,-1
 2 220 l 1,28,-1
EndSplineSet
Substitution2: "'c2sc' Capitals to Small Capitals lookup 45 subtable" uni024D.sc
Substitution2: "'aalt' Access All Alternates lookup 0 subtable" uni024D.sc
EndChar

StartChar: uni2C64
Encoding: 11364 11364 265
Width: 758
GlyphClass: 2
Flags: W
AnchorPoint: "Anchor-3" 473 700 basechar 0
AnchorPoint: "Anchor-0" 333 0 basechar 0
LayerCount: 2
Fore
SplineSet
293 -187 m 1,0,1
 255 -198 255 -198 217.5 -199 c 128,-1,2
 180 -200 180 -200 148.5 -190 c 128,-1,3
 117 -180 117 -180 94 -158.5 c 128,-1,4
 71 -137 71 -137 61.5 -104.5 c 128,-1,5
 52 -72 52 -72 61 -29 c 2,6,-1
 206 700 l 1,7,-1
 467 700 l 2,8,9
 590 700 590 700 657.5 646 c 128,-1,10
 725 592 725 592 725 495 c 0,11,12
 725 407 725 407 685.5 344 c 128,-1,13
 646 281 646 281 572 247.5 c 128,-1,14
 498 214 498 214 396 214 c 2,15,-1
 167 214 l 1,16,-1
 218 260 l 1,17,-1
 161 -27 l 2,18,19
 155 -56 155 -56 162.5 -76.5 c 128,-1,20
 170 -97 170 -97 187.5 -107 c 128,-1,21
 205 -117 205 -117 231 -117 c 128,-1,22
 257 -117 257 -117 287 -109 c 1,23,-1
 293 -187 l 1,0,1
537 0 m 1,24,-1
 393 254 l 1,25,-1
 500 254 l 1,26,-1
 643 0 l 1,27,-1
 537 0 l 1,24,-1
216 249 m 1,28,-1
 182 299 l 1,29,-1
 399 299 l 2,30,31
 506 299 506 299 565.5 346.5 c 128,-1,32
 625 394 625 394 625 486 c 0,33,34
 625 549 625 549 582 581 c 128,-1,35
 539 613 539 613 458 613 c 2,36,-1
 248 613 l 1,37,-1
 299 664 l 1,38,-1
 216 249 l 1,28,-1
EndSplineSet
Substitution2: "'c2sc' Capitals to Small Capitals lookup 45 subtable" uni027D.sc
Substitution2: "'aalt' Access All Alternates lookup 0 subtable" uni027D.sc
EndChar

StartChar: S
Encoding: 83 83 266
Width: 641
GlyphClass: 2
Flags: W
AnchorPoint: "Anchor-3" 418 700 basechar 0
AnchorPoint: "Anchor-1" 351 350 basechar 0
AnchorPoint: "Anchor-0" 278 0 basechar 0
LayerCount: 2
Fore
SplineSet
278 -8 m 0,0,1
 225 -8 225 -8 174.5 3.5 c 128,-1,2
 124 15 124 15 82.5 34 c 128,-1,3
 41 53 41 53 16 77 c 1,4,-1
 60 157 l 1,5,6
 87 133 87 133 123.5 115 c 128,-1,7
 160 97 160 97 201.5 87 c 128,-1,8
 243 77 243 77 287 77 c 0,9,10
 343 77 343 77 386 91 c 128,-1,11
 429 105 429 105 452.5 131.5 c 128,-1,12
 476 158 476 158 476 196 c 0,13,14
 476 227 476 227 456 247 c 128,-1,15
 436 267 436 267 404.5 279.5 c 128,-1,16
 373 292 373 292 334.5 302.5 c 128,-1,17
 296 313 296 313 257.5 326.5 c 128,-1,18
 219 340 219 340 187.5 360 c 128,-1,19
 156 380 156 380 136.5 411.5 c 128,-1,20
 117 443 117 443 117 491 c 0,21,22
 117 558 117 558 154 606.5 c 128,-1,23
 191 655 191 655 256.5 681.5 c 128,-1,24
 322 708 322 708 408 708 c 0,25,26
 473 708 473 708 532 693 c 128,-1,27
 591 678 591 678 633 649 c 1,28,-1
 593 567 l 1,29,30
 554 595 554 595 505 609 c 128,-1,31
 456 623 456 623 403 623 c 0,32,33
 346 623 346 623 304 608 c 128,-1,34
 262 593 262 593 239 565.5 c 128,-1,35
 216 538 216 538 215 501 c 0,36,37
 215 469 215 469 234 449 c 128,-1,38
 253 429 253 429 285 416 c 128,-1,39
 317 403 317 403 355.5 391.5 c 128,-1,40
 394 380 394 380 432 367.5 c 128,-1,41
 470 355 470 355 502.5 335.5 c 128,-1,42
 535 316 535 316 554.5 286 c 128,-1,43
 574 256 574 256 574 210 c 0,44,45
 574 143 574 143 536.5 93.5 c 128,-1,46
 499 44 499 44 432.5 18 c 128,-1,47
 366 -8 366 -8 278 -8 c 0,0,1
EndSplineSet
Substitution2: "'c2sc' Capitals to Small Capitals lookup 45 subtable" s.sc
Substitution2: "'aalt' Access All Alternates lookup 0 subtable" s.sc
EndChar

StartChar: uni1E9E
Encoding: 7838 7838 277
Width: 771
GlyphClass: 2
Flags: W
AnchorPoint: "Anchor-3" 487 700 basechar 0
AnchorPoint: "Anchor-0" 347 0 basechar 0
LayerCount: 2
Fore
SplineSet
432 -8 m 0,0,1
 391 -8 391 -8 349.5 -0.5 c 128,-1,2
 308 7 308 7 279 20 c 1,3,-1
 306 102 l 1,4,5
 334 90 334 90 366 83.5 c 128,-1,6
 398 77 398 77 434 77 c 0,7,8
 483 77 483 77 520 94.5 c 128,-1,9
 557 112 557 112 577.5 145 c 128,-1,10
 598 178 598 178 598 224 c 0,11,12
 598 276 598 276 562.5 304 c 128,-1,13
 527 332 527 332 464 332 c 0,14,15
 445 332 445 332 423.5 329 c 128,-1,16
 402 326 402 326 385 321 c 1,17,-1
 375 370 l 1,18,-1
 653 629 l 1,19,-1
 655 563 l 1,20,21
 624 593 624 593 579.5 608 c 128,-1,22
 535 623 535 623 477 623 c 0,23,24
 373 623 373 623 310 569.5 c 128,-1,25
 247 516 247 516 226 410 c 2,26,-1
 144 0 l 1,27,-1
 45 0 l 1,28,-1
 129 418 l 2,29,30
 157 561 157 561 245.5 634.5 c 128,-1,31
 334 708 334 708 485 708 c 0,32,33
 531 708 531 708 574 700 c 128,-1,34
 617 692 617 692 653.5 675.5 c 128,-1,35
 690 659 690 659 716 636 c 1,36,-1
 703 571 l 1,37,-1
 458 343 l 1,38,-1
 420 396 l 1,39,40
 439 402 439 402 458.5 404 c 128,-1,41
 478 406 478 406 495 406 c 0,42,43
 555 406 555 406 601 384.5 c 128,-1,44
 647 363 647 363 672.5 323.5 c 128,-1,45
 698 284 698 284 698 228 c 0,46,47
 698 157 698 157 665 104 c 128,-1,48
 632 51 632 51 572.5 21.5 c 128,-1,49
 513 -8 513 -8 432 -8 c 0,0,1
EndSplineSet
Substitution2: "'c2sc' Capitals to Small Capitals lookup 45 subtable" germandbls.sc
Substitution2: "'aalt' Access All Alternates lookup 0 subtable" germandbls.sc
EndChar

StartChar: uniA7A8
Encoding: 42920 42920 278
Width: 641
GlyphClass: 1
Flags: W
LayerCount: 2
Fore
SplineSet
278 -8 m 0,0,1
 225 -8 225 -8 174.5 3.5 c 128,-1,2
 124 15 124 15 82.5 34 c 128,-1,3
 41 53 41 53 16 77 c 1,4,-1
 60 157 l 1,5,6
 87 133 87 133 123.5 115 c 128,-1,7
 160 97 160 97 201.5 87 c 128,-1,8
 243 77 243 77 287 77 c 0,9,10
 343 77 343 77 386 91 c 128,-1,11
 429 105 429 105 452.5 131.5 c 128,-1,12
 476 158 476 158 476 196 c 0,13,14
 476 227 476 227 456 247 c 128,-1,15
 436 267 436 267 404.5 279.5 c 128,-1,16
 373 292 373 292 334.5 302.5 c 128,-1,17
 296 313 296 313 257.5 326.5 c 128,-1,18
 219 340 219 340 187.5 360 c 128,-1,19
 156 380 156 380 136.5 411.5 c 128,-1,20
 117 443 117 443 117 491 c 0,21,22
 117 558 117 558 154 606.5 c 128,-1,23
 191 655 191 655 256.5 681.5 c 128,-1,24
 322 708 322 708 408 708 c 0,25,26
 473 708 473 708 532 693 c 128,-1,27
 591 678 591 678 633 649 c 1,28,-1
 593 567 l 1,29,30
 554 595 554 595 505 609 c 128,-1,31
 456 623 456 623 403 623 c 0,32,33
 346 623 346 623 304 608 c 128,-1,34
 262 593 262 593 239 565.5 c 128,-1,35
 216 538 216 538 215 501 c 0,36,37
 215 469 215 469 234 449 c 128,-1,38
 253 429 253 429 285 416 c 128,-1,39
 317 403 317 403 355.5 391.5 c 128,-1,40
 394 380 394 380 432 367.5 c 128,-1,41
 470 355 470 355 502.5 335.5 c 128,-1,42
 535 316 535 316 554.5 286 c 128,-1,43
 574 256 574 256 574 210 c 0,44,45
 574 143 574 143 536.5 93.5 c 128,-1,46
 499 44 499 44 432.5 18 c 128,-1,47
 366 -8 366 -8 278 -8 c 0,0,1
243 178 m 1,48,-1
 189 217 l 1,49,-1
 413 518 l 1,50,-1
 466 479 l 1,51,-1
 243 178 l 1,48,-1
EndSplineSet
Substitution2: "'c2sc' Capitals to Small Capitals lookup 45 subtable" uniA7A9.sc
Substitution2: "'aalt' Access All Alternates lookup 0 subtable" uniA7A9.sc
EndChar

StartChar: T
Encoding: 84 84 279
Width: 607
GlyphClass: 2
Flags: W
AnchorPoint: "Anchor-3" 391 700 basechar 0
AnchorPoint: "Anchor-1" 322 358 basechar 0
AnchorPoint: "Anchor-0" 251 0 basechar 0
LayerCount: 2
Fore
SplineSet
201 0 m 1,0,-1
 323 613 l 1,1,-1
 84 613 l 1,2,-1
 101 700 l 1,3,-1
 680 700 l 1,4,-1
 662 613 l 1,5,-1
 423 613 l 1,6,-1
 300 0 l 1,7,-1
 201 0 l 1,0,-1
EndSplineSet
Substitution2: "'ss01' Style Set 1 lookup 50 subtable" T.ss01
Substitution2: "'c2sc' Capitals to Small Capitals lookup 45 subtable" t.sc
AlternateSubs2: "'aalt' Access All Alternates lookup 1 subtable" t.sc T.ss01
EndChar

StartChar: Tbar
Encoding: 358 358 280
Width: 607
GlyphClass: 1
Flags: W
LayerCount: 2
Fore
SplineSet
201 0 m 1,0,-1
 323 613 l 1,1,-1
 84 613 l 1,2,-1
 101 700 l 1,3,-1
 680 700 l 1,4,-1
 662 613 l 1,5,-1
 423 613 l 1,6,-1
 300 0 l 1,7,-1
 201 0 l 1,0,-1
110 319 m 1,8,-1
 125 398 l 1,9,-1
 536 398 l 1,10,-1
 521 319 l 1,11,-1
 110 319 l 1,8,-1
EndSplineSet
Substitution2: "'ss01' Style Set 1 lookup 50 subtable" Tbar.ss01
Substitution2: "'c2sc' Capitals to Small Capitals lookup 45 subtable" tbar.sc
AlternateSubs2: "'aalt' Access All Alternates lookup 1 subtable" tbar.sc Tbar.ss01
EndChar

StartChar: uni023E
Encoding: 574 574 285
Width: 603
GlyphClass: 1
Flags: W
LayerCount: 2
Fore
SplineSet
40 -70 m 1,0,-1
 588 770 l 1,1,-1
 665 770 l 1,2,-1
 118 -70 l 1,3,-1
 40 -70 l 1,0,-1
201 0 m 1,4,-1
 323 613 l 1,5,-1
 84 613 l 1,6,-1
 101 700 l 1,7,-1
 677 700 l 1,8,-1
 659 613 l 1,9,-1
 419 613 l 1,10,-1
 297 0 l 1,11,-1
 201 0 l 1,4,-1
EndSplineSet
Substitution2: "'ss01' Style Set 1 lookup 50 subtable" uni023E.ss01
Substitution2: "'c2sc' Capitals to Small Capitals lookup 45 subtable" uni2C66.sc
AlternateSubs2: "'aalt' Access All Alternates lookup 1 subtable" uni2C66.sc uni023E.ss01
EndChar

StartChar: uni01AC
Encoding: 428 428 288
Width: 683
GlyphClass: 2
Flags: W
AnchorPoint: "Anchor-3" 467 700 basechar 0
AnchorPoint: "Anchor-1" 395 339 basechar 0
AnchorPoint: "Anchor-0" 327 0 basechar 0
LayerCount: 2
Fore
SplineSet
277 0 m 1,0,-1
 400 613 l 1,1,-1
 299 613 l 1,2,-1
 313 700 l 1,3,-1
 757 700 l 1,4,-1
 739 613 l 1,5,-1
 499 613 l 1,6,-1
 377 0 l 1,7,-1
 277 0 l 1,0,-1
131 395 m 1,8,9
 96 450 96 450 94.5 504 c 128,-1,10
 93 558 93 558 118 602 c 128,-1,11
 143 646 143 646 191.5 673 c 128,-1,12
 240 700 240 700 305 700 c 2,13,-1
 352 700 l 1,14,-1
 334 613 l 1,15,-1
 298 613 l 2,16,17
 246 613 246 613 216 587 c 128,-1,18
 186 561 186 561 183 519 c 128,-1,19
 180 477 180 477 209 431 c 1,20,-1
 131 395 l 1,8,9
EndSplineSet
Substitution2: "'ss01' Style Set 1 lookup 50 subtable" uni01AC.ss01
Substitution2: "'c2sc' Capitals to Small Capitals lookup 45 subtable" uni01AD.sc
AlternateSubs2: "'aalt' Access All Alternates lookup 1 subtable" uni01AD.sc uni01AC.ss01
EndChar

StartChar: uni01AE
Encoding: 430 430 290
Width: 607
GlyphClass: 2
Flags: W
AnchorPoint: "Anchor-3" 391 700 basechar 0
AnchorPoint: "Anchor-1" 318 339 basechar 0
AnchorPoint: "Anchor-0" 251 0 basechar 0
LayerCount: 2
Fore
SplineSet
426 -187 m 1,0,1
 388 -198 388 -198 351 -199 c 128,-1,2
 314 -200 314 -200 281.5 -190 c 128,-1,3
 249 -180 249 -180 226.5 -159 c 128,-1,4
 204 -138 204 -138 195 -106 c 128,-1,5
 186 -74 186 -74 195 -31 c 2,6,-1
 323 613 l 1,7,-1
 84 613 l 1,8,-1
 101 700 l 1,9,-1
 680 700 l 1,10,-1
 662 613 l 1,11,-1
 423 613 l 1,12,-1
 294 -27 l 2,13,14
 288 -56 288 -56 295.5 -76.5 c 128,-1,15
 303 -97 303 -97 320.5 -107 c 128,-1,16
 338 -117 338 -117 364 -117 c 128,-1,17
 390 -117 390 -117 420 -109 c 1,18,-1
 426 -187 l 1,0,1
EndSplineSet
Substitution2: "'ss01' Style Set 1 lookup 50 subtable" uni01AE.ss01
Substitution2: "'c2sc' Capitals to Small Capitals lookup 45 subtable" uni0288.sc
AlternateSubs2: "'aalt' Access All Alternates lookup 1 subtable" uni0288.sc uni01AE.ss01
EndChar

StartChar: uniA7B1
Encoding: 42929 42929 291
Width: 607
GlyphClass: 2
Flags: W
AnchorPoint: "Anchor-3" 391 700 basechar 0
AnchorPoint: "Anchor-1" 320 342 basechar 0
AnchorPoint: "Anchor-0" 251 0 basechar 0
LayerCount: 2
Fore
SplineSet
-39 0 m 1,0,-1
 -21 87 l 1,1,-1
 218 87 l 1,2,-1
 341 700 l 1,3,-1
 440 700 l 1,4,-1
 318 87 l 1,5,-1
 558 87 l 1,6,-1
 540 0 l 1,7,-1
 -39 0 l 1,0,-1
EndSplineSet
Substitution2: "'ss01' Style Set 1 lookup 50 subtable" uniA7B1.ss01
Substitution2: "'c2sc' Capitals to Small Capitals lookup 45 subtable" uni0287.sc
AlternateSubs2: "'aalt' Access All Alternates lookup 1 subtable" uni0287.sc uniA7B1.ss01
EndChar

StartChar: U
Encoding: 85 85 292
Width: 788
GlyphClass: 2
Flags: W
AnchorPoint: "Anchor-4" 746 700 basechar 0
AnchorPoint: "Anchor-3" 481 700 basechar 0
AnchorPoint: "Anchor-2" 542 0 basechar 0
AnchorPoint: "Anchor-0" 341 0 basechar 0
LayerCount: 2
Fore
SplineSet
360 -8 m 0,0,1
 264 -8 264 -8 200.5 30 c 128,-1,2
 137 68 137 68 112 137.5 c 128,-1,3
 87 207 87 207 106 302 c 2,4,-1
 185 700 l 1,5,-1
 284 700 l 1,6,-1
 205 303 l 2,7,8
 183 193 183 193 227 137 c 128,-1,9
 271 81 271 81 370 81 c 0,10,11
 463 81 463 81 520 134.5 c 128,-1,12
 577 188 577 188 599 304 c 2,13,-1
 679 700 l 1,14,-1
 776 700 l 1,15,-1
 696 297 l 2,16,17
 665 144 665 144 581 68 c 128,-1,18
 497 -8 497 -8 360 -8 c 0,0,1
EndSplineSet
Substitution2: "'ss01' Style Set 1 lookup 50 subtable" U.ss01
Substitution2: "'c2sc' Capitals to Small Capitals lookup 45 subtable" u.sc
AlternateSubs2: "'aalt' Access All Alternates lookup 1 subtable" u.sc U.ss01
EndChar

StartChar: uni0244
Encoding: 580 580 294
Width: 801
GlyphClass: 2
Flags: W
AnchorPoint: "Anchor-4" 748 700 basechar 0
AnchorPoint: "Anchor-3" 484 700 basechar 0
AnchorPoint: "Anchor-2" 545 0 basechar 0
AnchorPoint: "Anchor-0" 344 0 basechar 0
LayerCount: 2
Fore
SplineSet
187 700 m 1,0,-1
 287 700 l 1,1,-1
 207 303 l 2,2,3
 186 193 186 193 229.5 137 c 128,-1,4
 273 81 273 81 372 81 c 0,5,6
 465 81 465 81 522 134.5 c 128,-1,7
 579 188 579 188 602 304 c 2,8,-1
 681 700 l 1,9,-1
 779 700 l 1,10,-1
 699 297 l 2,11,12
 668 144 668 144 583.5 68 c 128,-1,13
 499 -8 499 -8 363 -8 c 0,14,15
 266 -8 266 -8 203 30 c 128,-1,16
 140 68 140 68 114.5 137.5 c 128,-1,17
 89 207 89 207 108 302 c 2,18,-1
 187 700 l 1,0,-1
7 319 m 1,19,-1
 22 398 l 1,20,-1
 822 398 l 1,21,-1
 807 319 l 1,22,-1
 7 319 l 1,19,-1
EndSplineSet
Substitution2: "'ss01' Style Set 1 lookup 50 subtable" uni0244.ss01
Substitution2: "'c2sc' Capitals to Small Capitals lookup 45 subtable" uni0289.sc
AlternateSubs2: "'aalt' Access All Alternates lookup 1 subtable" uni0289.sc uni0244.ss01
EndChar

StartChar: Uogonek
Encoding: 370 370 319
Width: 788
GlyphClass: 2
Flags: W
AnchorPoint: "Anchor-4" 746 700 basechar 0
AnchorPoint: "Anchor-3" 481 700 basechar 0
AnchorPoint: "Anchor-0" 296 -224 basechar 0
LayerCount: 2
Fore
SplineSet
679 700 m 1,0,-1
 776 700 l 1,1,-1
 696 297 l 2,2,3
 671 173 671 173 610.5 99 c 128,-1,4
 550 25 550 25 455 3 c 0,5,6
 369 -18 369 -18 327.5 -54 c 128,-1,7
 286 -90 286 -90 286 -123 c 0,8,9
 286 -145 286 -145 300 -156.5 c 128,-1,10
 314 -168 314 -168 337 -168 c 0,11,12
 354 -168 354 -168 371.5 -163 c 128,-1,13
 389 -158 389 -158 404 -150 c 1,14,-1
 416 -200 l 1,15,16
 396 -211 396 -211 373 -217.5 c 128,-1,17
 350 -224 350 -224 322 -224 c 0,18,19
 276 -224 276 -224 246 -201 c 128,-1,20
 216 -178 216 -178 216 -136 c 0,21,22
 216 -90 216 -90 248 -52.5 c 128,-1,23
 280 -15 280 -15 342 15 c 1,24,-1
 401 -6 l 1,25,26
 392 -7 392 -7 381.5 -7.5 c 128,-1,27
 371 -8 371 -8 360 -8 c 0,28,29
 264 -8 264 -8 200.5 30 c 128,-1,30
 137 68 137 68 112 137.5 c 128,-1,31
 87 207 87 207 106 302 c 2,32,-1
 185 700 l 1,33,-1
 284 700 l 1,34,-1
 205 303 l 2,35,36
 183 193 183 193 227 137 c 128,-1,37
 271 81 271 81 370 81 c 0,38,39
 463 81 463 81 520 134.5 c 128,-1,40
 577 188 577 188 599 304 c 2,41,-1
 679 700 l 1,0,-1
EndSplineSet
Substitution2: "'ss01' Style Set 1 lookup 50 subtable" Uogonek.ss01
Substitution2: "'c2sc' Capitals to Small Capitals lookup 45 subtable" uogonek.sc
Substitution2: "'locl' Localized Forms in Latin lookup 15 subtable" Uogonek.loclNAV
AlternateSubs2: "'aalt' Access All Alternates lookup 1 subtable" Uogonek.loclNAV uogonek.sc Uogonek.ss01
EndChar

StartChar: uni01B1
Encoding: 433 433 320
Width: 918
GlyphClass: 2
Flags: W
AnchorPoint: "Anchor-3" 546 700 basechar 0
AnchorPoint: "Anchor-0" 406 0 basechar 0
LayerCount: 2
Fore
SplineSet
985 700 m 1,0,-1
 969 613 l 1,1,-1
 756 613 l 1,2,3
 807 566 807 566 828 509.5 c 128,-1,4
 849 453 849 453 849 378 c 0,5,6
 849 291 849 291 818 220 c 128,-1,7
 787 149 787 149 731.5 98 c 128,-1,8
 676 47 676 47 600 19.5 c 128,-1,9
 524 -8 524 -8 432 -8 c 0,10,11
 335 -8 335 -8 259.5 26 c 128,-1,12
 184 60 184 60 140 124.5 c 128,-1,13
 96 189 96 189 96 281 c 0,14,15
 96 341 96 341 111.5 392.5 c 128,-1,16
 127 444 127 444 154 486 c 128,-1,17
 181 528 181 528 214.5 560 c 128,-1,18
 248 592 248 592 284 613 c 1,19,-1
 91 613 l 1,20,-1
 106 700 l 1,21,-1
 453 700 l 1,22,-1
 437 619 l 1,23,24
 389 600 389 600 345.5 569.5 c 128,-1,25
 302 539 302 539 268.5 497.5 c 128,-1,26
 235 456 235 456 216 403.5 c 128,-1,27
 197 351 197 351 197 288 c 0,28,29
 197 187 197 187 263.5 134 c 128,-1,30
 330 81 330 81 439 81 c 0,31,32
 536 81 536 81 605.5 119.5 c 128,-1,33
 675 158 675 158 713 226.5 c 128,-1,34
 751 295 751 295 751 384 c 0,35,36
 751 438 751 438 737.5 480.5 c 128,-1,37
 724 523 724 523 695.5 557.5 c 128,-1,38
 667 592 667 592 622 619 c 1,39,-1
 638 700 l 1,40,-1
 985 700 l 1,0,-1
EndSplineSet
Substitution2: "'c2sc' Capitals to Small Capitals lookup 45 subtable" uni028A.sc
Substitution2: "'aalt' Access All Alternates lookup 0 subtable" uni028A.sc
EndChar

StartChar: V
Encoding: 86 86 325
Width: 732
GlyphClass: 2
Flags: W
AnchorPoint: "Anchor-3" 453 700 basechar 0
AnchorPoint: "Anchor-2" 362 0 basechar 0
AnchorPoint: "Anchor-0" 313 0 basechar 0
LayerCount: 2
Fore
SplineSet
264 0 m 1,0,-1
 96 700 l 1,1,-1
 199 700 l 1,2,-1
 352 54 l 1,3,-1
 290 54 l 1,4,-1
 706 700 l 1,5,-1
 810 700 l 1,6,-1
 362 0 l 1,7,-1
 264 0 l 1,0,-1
EndSplineSet
Substitution2: "'c2sc' Capitals to Small Capitals lookup 45 subtable" v.sc
Substitution2: "'aalt' Access All Alternates lookup 0 subtable" v.sc
EndChar

StartChar: uni0194
Encoding: 404 404 326
Width: 667
GlyphClass: 2
Flags: W
AnchorPoint: "Anchor-3" 421 700 basechar 0
AnchorPoint: "Anchor-1" 328 249 basechar 0
AnchorPoint: "Anchor-0" 281 0 basechar 0
LayerCount: 2
Fore
SplineSet
253 -203 m 0,0,1
 214 -203 214 -203 184 -184.5 c 128,-1,2
 154 -166 154 -166 140 -135 c 128,-1,3
 126 -104 126 -104 132 -68 c 0,4,5
 138 -37 138 -37 158.5 -3 c 128,-1,6
 179 31 179 31 204.5 64.5 c 128,-1,7
 230 98 230 98 254.5 128 c 128,-1,8
 279 158 279 158 294 179 c 2,9,-1
 654 700 l 1,10,-1
 759 700 l 1,11,-1
 362 124 l 2,12,13
 347 103 347 103 323.5 76.5 c 128,-1,14
 300 50 300 50 275 22 c 128,-1,15
 250 -6 250 -6 232 -32 c 128,-1,16
 214 -58 214 -58 211 -78 c 0,17,18
 207 -99 207 -99 221 -113.5 c 128,-1,19
 235 -128 235 -128 258 -128 c 0,20,21
 280 -128 280 -128 296.5 -114 c 128,-1,22
 313 -100 313 -100 317 -80 c 0,23,24
 321 -62 321 -62 315.5 -37.5 c 128,-1,25
 310 -13 310 -13 299.5 14.5 c 128,-1,26
 289 42 289 42 277.5 71 c 128,-1,27
 266 100 266 100 258 126 c 2,28,-1
 88 700 l 1,29,-1
 191 700 l 1,30,-1
 340 179 l 2,31,32
 345 161 345 161 356.5 129.5 c 128,-1,33
 368 98 368 98 379.5 61 c 128,-1,34
 391 24 391 24 397 -14 c 128,-1,35
 403 -52 403 -52 397 -85 c 0,36,37
 388 -136 388 -136 347.5 -169.5 c 128,-1,38
 307 -203 307 -203 253 -203 c 0,0,1
EndSplineSet
Substitution2: "'c2sc' Capitals to Small Capitals lookup 45 subtable" uni0263.sc
Substitution2: "'aalt' Access All Alternates lookup 0 subtable" uni0263.sc
EndChar

StartChar: uni01B2
Encoding: 434 434 328
Width: 786
GlyphClass: 2
Flags: W
AnchorPoint: "Anchor-4" 745 700 basechar 0
AnchorPoint: "Anchor-3" 480 700 basechar 0
AnchorPoint: "Anchor-2" 542 0 basechar 0
AnchorPoint: "Anchor-0" 340 0 basechar 0
LayerCount: 2
Fore
SplineSet
360 -8 m 0,0,1
 264 -8 264 -8 200.5 30 c 128,-1,2
 137 68 137 68 112 137.5 c 128,-1,3
 87 207 87 207 106 302 c 2,4,-1
 185 700 l 1,5,-1
 284 700 l 1,6,-1
 205 303 l 2,7,8
 183 193 183 193 227 137 c 128,-1,9
 271 81 271 81 370 81 c 0,10,11
 463 81 463 81 520 134.5 c 128,-1,12
 577 188 577 188 599 304 c 2,13,-1
 648 545 l 2,14,15
 655 580 655 580 643.5 601.5 c 128,-1,16
 632 623 632 623 609.5 630.5 c 128,-1,17
 587 638 587 638 558 632 c 128,-1,18
 529 626 529 626 498 607 c 1,19,-1
 481 679 l 1,20,21
 519 702 519 702 559.5 711 c 128,-1,22
 600 720 600 720 638 715 c 128,-1,23
 676 710 676 710 704 690 c 128,-1,24
 732 670 732 670 744.5 634.5 c 128,-1,25
 757 599 757 599 746 548 c 2,26,-1
 696 297 l 2,27,28
 665 143 665 143 581 67.5 c 128,-1,29
 497 -8 497 -8 360 -8 c 0,0,1
EndSplineSet
Substitution2: "'c2sc' Capitals to Small Capitals lookup 45 subtable" uni028B.sc
Substitution2: "'locl' Localized Forms in Latin lookup 18 subtable" uni01B2.loclTOD0
AlternateSubs2: "'aalt' Access All Alternates lookup 1 subtable" uni01B2.loclTOD0 uni028B.sc
EndChar

StartChar: uni0245
Encoding: 581 581 330
Width: 732
GlyphClass: 2
Flags: W
AnchorPoint: "Anchor-3" 453 700 basechar 0
AnchorPoint: "Anchor-2" 671 0 basechar 0
AnchorPoint: "Anchor-0" 313 0 basechar 0
LayerCount: 2
Fore
SplineSet
502 700 m 1,0,-1
 671 0 l 1,1,-1
 568 0 l 1,2,-1
 414 646 l 1,3,-1
 477 646 l 1,4,-1
 61 0 l 1,5,-1
 -44 0 l 1,6,-1
 405 700 l 1,7,-1
 502 700 l 1,0,-1
EndSplineSet
Substitution2: "'c2sc' Capitals to Small Capitals lookup 45 subtable" uni028C.sc
Substitution2: "'aalt' Access All Alternates lookup 0 subtable" uni028C.sc
EndChar

StartChar: W
Encoding: 87 87 331
Width: 1125
GlyphClass: 2
Flags: W
AnchorPoint: "Anchor-3" 649 700 basechar 0
AnchorPoint: "Anchor-0" 509 0 basechar 0
LayerCount: 2
Fore
SplineSet
212 0 m 1,0,-1
 118 700 l 1,1,-1
 216 700 l 1,2,-1
 303 55 l 1,3,-1
 252 55 l 1,4,-1
 603 700 l 1,5,-1
 695 700 l 1,6,-1
 783 55 l 1,7,-1
 734 55 l 1,8,-1
 1082 700 l 1,9,-1
 1181 700 l 1,10,-1
 807 0 l 1,11,-1
 701 0 l 1,12,-1
 617 597 l 1,13,-1
 646 598 l 1,14,-1
 318 0 l 1,15,-1
 212 0 l 1,0,-1
EndSplineSet
Substitution2: "'ss01' Style Set 1 lookup 50 subtable" W.ss01
Substitution2: "'c2sc' Capitals to Small Capitals lookup 45 subtable" w.sc
AlternateSubs2: "'aalt' Access All Alternates lookup 1 subtable" w.sc W.ss01
EndChar

StartChar: uni2C72
Encoding: 11378 11378 338
Width: 1159
GlyphClass: 2
Flags: W
AnchorPoint: "Anchor-3" 650 700 basechar 0
AnchorPoint: "Anchor-0" 510 0 basechar 0
LayerCount: 2
Fore
SplineSet
212 0 m 1,0,-1
 118 700 l 1,1,-1
 216 700 l 1,2,-1
 303 51 l 1,3,-1
 252 51 l 1,4,-1
 603 700 l 1,5,-1
 695 700 l 1,6,-1
 775 51 l 1,7,-1
 726 51 l 1,8,-1
 1030 634 l 2,9,10
 1056 684 1056 684 1087.5 710.5 c 128,-1,11
 1119 737 1119 737 1151 744.5 c 128,-1,12
 1183 752 1183 752 1213 745 c 128,-1,13
 1243 738 1243 738 1266 721 c 1,14,-1
 1225 650 l 1,15,16
 1208 661 1208 661 1188 660.5 c 128,-1,17
 1168 660 1168 660 1148 645.5 c 128,-1,18
 1128 631 1128 631 1111 598 c 2,19,-1
 799 0 l 1,20,-1
 693 0 l 1,21,-1
 617 605 l 1,22,-1
 646 606 l 1,23,-1
 318 0 l 1,24,-1
 212 0 l 1,0,-1
EndSplineSet
Substitution2: "'ss01' Style Set 1 lookup 50 subtable" uni2C72.ss01
Substitution2: "'c2sc' Capitals to Small Capitals lookup 45 subtable" uni2C73.sc
AlternateSubs2: "'aalt' Access All Alternates lookup 1 subtable" uni2C73.sc uni2C72.ss01
EndChar

StartChar: X
Encoding: 88 88 339
Width: 693
GlyphClass: 2
Flags: W
AnchorPoint: "Anchor-3" 434 700 basechar 0
AnchorPoint: "Anchor-0" 294 0 basechar 0
LayerCount: 2
Fore
SplineSet
-29 0 m 1,0,-1
 334 388 l 1,1,-1
 329 332 l 1,2,-1
 127 700 l 1,3,-1
 232 700 l 1,4,-1
 395 401 l 1,5,-1
 351 405 l 1,6,-1
 626 700 l 1,7,-1
 740 700 l 1,8,-1
 399 334 l 1,9,-1
 402 390 l 1,10,-1
 616 0 l 1,11,-1
 509 0 l 1,12,-1
 337 318 l 1,13,-1
 381 315 l 1,14,-1
 91 0 l 1,15,-1
 -29 0 l 1,0,-1
EndSplineSet
Substitution2: "'c2sc' Capitals to Small Capitals lookup 45 subtable" x.sc
Substitution2: "'aalt' Access All Alternates lookup 0 subtable" x.sc
EndChar

StartChar: Y
Encoding: 89 89 342
Width: 689
GlyphClass: 2
Flags: W
AnchorPoint: "Anchor-3" 432 700 basechar 0
AnchorPoint: "Anchor-2" 341 0 basechar 0
AnchorPoint: "Anchor-1" 337 236 basechar 0
AnchorPoint: "Anchor-0" 291 0 basechar 0
LayerCount: 2
Fore
SplineSet
241 0 m 1,0,-1
 295 270 l 1,1,-1
 307 204 l 1,2,-1
 105 700 l 1,3,-1
 204 700 l 1,4,-1
 373 284 l 1,5,-1
 317 283 l 1,6,-1
 653 700 l 1,7,-1
 759 700 l 1,8,-1
 361 203 l 1,9,-1
 395 270 l 1,10,-1
 341 0 l 1,11,-1
 241 0 l 1,0,-1
EndSplineSet
Substitution2: "'ss01' Style Set 1 lookup 50 subtable" Y.ss01
Substitution2: "'c2sc' Capitals to Small Capitals lookup 45 subtable" y.sc
AlternateSubs2: "'aalt' Access All Alternates lookup 1 subtable" y.sc Y.ss01
EndChar

StartChar: uni01B3
Encoding: 435 435 349
Width: 704
GlyphClass: 2
Flags: W
AnchorPoint: "Anchor-3" 450 700 basechar 0
AnchorPoint: "Anchor-1" 357 249 basechar 0
AnchorPoint: "Anchor-0" 310 0 basechar 0
LayerCount: 2
Fore
SplineSet
241 0 m 1,0,-1
 295 270 l 1,1,-1
 307 204 l 1,2,-1
 105 700 l 1,3,-1
 204 700 l 1,4,-1
 373 284 l 1,5,-1
 317 283 l 1,6,-1
 641 686 l 2,7,8
 681 736 681 736 735 746 c 128,-1,9
 789 756 789 756 836 721 c 1,10,-1
 795 650 l 1,11,12
 772 665 772 665 746.5 658.5 c 128,-1,13
 721 652 721 652 700 626 c 2,14,-1
 361 203 l 1,15,-1
 395 270 l 1,16,-1
 341 0 l 1,17,-1
 241 0 l 1,0,-1
EndSplineSet
Substitution2: "'ss01' Style Set 1 lookup 50 subtable" uni01B3.ss01
Substitution2: "'c2sc' Capitals to Small Capitals lookup 45 subtable" uni01B4.sc
AlternateSubs2: "'aalt' Access All Alternates lookup 1 subtable" uni01B4.sc uni01B3.ss01
EndChar

StartChar: uni01A6
Encoding: 422 422 352
Width: 747
GlyphClass: 2
Flags: W
AnchorPoint: "Anchor-3" 467 700 basechar 0
AnchorPoint: "Anchor-0" 327 0 basechar 0
LayerCount: 2
Fore
SplineSet
153 142 m 1,0,-1
 169 227 l 1,1,-1
 385 227 l 2,2,3
 492 227 492 227 551.5 274.5 c 128,-1,4
 611 322 611 322 611 415 c 0,5,6
 611 478 611 478 568 510 c 128,-1,7
 525 542 525 542 445 542 c 2,8,-1
 234 542 l 1,9,-1
 250 628 l 1,10,-1
 454 628 l 2,11,12
 577 628 577 628 644 574 c 128,-1,13
 711 520 711 520 711 424 c 0,14,15
 711 336 711 336 671.5 272.5 c 128,-1,16
 632 209 632 209 558 175.5 c 128,-1,17
 484 142 484 142 383 142 c 2,18,-1
 153 142 l 1,0,-1
62 0 m 1,19,-1
 202 700 l 1,20,-1
 302 700 l 1,21,-1
 163 0 l 1,22,-1
 62 0 l 1,19,-1
511 -100 m 1,23,-1
 361 165 l 1,24,-1
 468 165 l 1,25,-1
 617 -100 l 1,26,-1
 511 -100 l 1,23,-1
EndSplineSet
Substitution2: "'c2sc' Capitals to Small Capitals lookup 45 subtable" uni0280.sc
Substitution2: "'aalt' Access All Alternates lookup 0 subtable" uni0280.sc
EndChar

StartChar: uni024E
Encoding: 590 590 353
Width: 699
GlyphClass: 2
Flags: W
AnchorPoint: "Anchor-3" 435 700 basechar 0
AnchorPoint: "Anchor-1" 342 249 basechar 0
AnchorPoint: "Anchor-0" 295 0 basechar 0
LayerCount: 2
Fore
SplineSet
245 0 m 1,0,-1
 300 270 l 1,1,-1
 311 204 l 1,2,-1
 109 700 l 1,3,-1
 208 700 l 1,4,-1
 377 284 l 1,5,-1
 321 283 l 1,6,-1
 657 700 l 1,7,-1
 763 700 l 1,8,-1
 365 203 l 1,9,-1
 399 270 l 1,10,-1
 345 0 l 1,11,-1
 245 0 l 1,0,-1
68 505 m 1,12,-1
 83 584 l 1,13,-1
 743 584 l 1,14,-1
 728 505 l 1,15,-1
 68 505 l 1,12,-1
EndSplineSet
Substitution2: "'ss01' Style Set 1 lookup 50 subtable" uni024E.ss01
Substitution2: "'c2sc' Capitals to Small Capitals lookup 45 subtable" uni024F.sc
AlternateSubs2: "'aalt' Access All Alternates lookup 1 subtable" uni024F.sc uni024E.ss01
EndChar

StartChar: Z
Encoding: 90 90 355
Width: 677
GlyphClass: 2
Flags: W
AnchorPoint: "Anchor-3" 432 700 basechar 0
AnchorPoint: "Anchor-2" 584 0 basechar 0
AnchorPoint: "Anchor-0" 299 0 basechar 0
LayerCount: 2
Fore
SplineSet
-1 0 m 1,0,-1
 13 68 l 1,1,-1
 595 652 l 1,2,-1
 603 613 l 1,3,-1
 131 613 l 1,4,-1
 149 700 l 1,5,-1
 713 700 l 1,6,-1
 699 632 l 1,7,-1
 117 48 l 1,8,-1
 109 87 l 1,9,-1
 602 87 l 1,10,-1
 584 0 l 1,11,-1
 -1 0 l 1,0,-1
EndSplineSet
Substitution2: "'ss01' Style Set 1 lookup 50 subtable" Z.ss01
Substitution2: "'c2sc' Capitals to Small Capitals lookup 45 subtable" z.sc
AlternateSubs2: "'aalt' Access All Alternates lookup 1 subtable" z.sc Z.ss01
EndChar

StartChar: uni01B5
Encoding: 437 437 362
Width: 677
GlyphClass: 2
Flags: W
AnchorPoint: "Anchor-3" 432 700 basechar 0
AnchorPoint: "Anchor-0" 299 0 basechar 0
LayerCount: 2
Fore
SplineSet
-1 0 m 1,0,-1
 13 68 l 1,1,-1
 595 652 l 1,2,-1
 603 613 l 1,3,-1
 131 613 l 1,4,-1
 149 700 l 1,5,-1
 713 700 l 1,6,-1
 699 632 l 1,7,-1
 117 48 l 1,8,-1
 109 87 l 1,9,-1
 602 87 l 1,10,-1
 584 0 l 1,11,-1
 -1 0 l 1,0,-1
146 319 m 1,12,-1
 161 398 l 1,13,-1
 584 398 l 1,14,-1
 569 319 l 1,15,-1
 146 319 l 1,12,-1
EndSplineSet
Substitution2: "'c2sc' Capitals to Small Capitals lookup 45 subtable" uni01B6.sc
Substitution2: "'aalt' Access All Alternates lookup 0 subtable" uni01B6.sc
EndChar

StartChar: uniA78B
Encoding: 42891 42891 363
Width: 278
GlyphClass: 1
Flags: W
LayerCount: 2
Fore
SplineSet
96 297 m 1,0,-1
 177 700 l 1,1,-1
 274 700 l 1,2,-1
 184 297 l 1,3,-1
 96 297 l 1,0,-1
EndSplineSet
Substitution2: "'c2sc' Capitals to Small Capitals lookup 45 subtable" uniA78C.sc
Substitution2: "'aalt' Access All Alternates lookup 0 subtable" uniA78C.sc
EndChar

StartChar: uni0295.case
Encoding: 65538 -1 364
Width: 591
GlyphClass: 2
Flags: W
AnchorPoint: "Anchor-3" 416 700 basechar 0
AnchorPoint: "Anchor-0" 276 0 basechar 0
LayerCount: 2
Fore
SplineSet
326 0 m 1,0,-1
 227 0 l 1,1,-1
 258 152 l 2,2,3
 265 190 265 190 252.5 217 c 128,-1,4
 240 244 240 244 215 264.5 c 128,-1,5
 190 285 190 285 161.5 304.5 c 128,-1,6
 133 324 133 324 109 348.5 c 128,-1,7
 85 373 85 373 73.5 407.5 c 128,-1,8
 62 442 62 442 72 491 c 0,9,10
 83 546 83 546 115 587 c 128,-1,11
 147 628 147 628 193 654.5 c 128,-1,12
 239 681 239 681 293 694.5 c 128,-1,13
 347 708 347 708 403 708 c 0,14,15
 462 708 462 708 513.5 693 c 128,-1,16
 565 678 565 678 605.5 648 c 128,-1,17
 646 618 646 618 671 573 c 1,18,-1
 580 516 l 1,19,20
 564 552 564 552 533.5 575.5 c 128,-1,21
 503 599 503 599 464.5 610.5 c 128,-1,22
 426 622 426 622 384 622 c 0,23,24
 338 622 338 622 292.5 607.5 c 128,-1,25
 247 593 247 593 214.5 564.5 c 128,-1,26
 182 536 182 536 172 490 c 0,27,28
 165 452 165 452 178 426.5 c 128,-1,29
 191 401 191 401 216 382 c 128,-1,30
 241 363 241 363 269 344 c 128,-1,31
 297 325 297 325 321 301.5 c 128,-1,32
 345 278 345 278 356.5 243.5 c 128,-1,33
 368 209 368 209 358 157 c 2,34,-1
 326 0 l 1,0,-1
EndSplineSet
EndChar

StartChar: uni01B2.loclTOD0
Encoding: 65548 -1 374
Width: 765
GlyphClass: 2
Flags: W
AnchorPoint: "Anchor-3" 453 700 basechar 0
AnchorPoint: "Anchor-0" 313 0 basechar 0
LayerCount: 2
Fore
SplineSet
362 0 m 1,0,-1
 289 51 l 1,1,-1
 658 634 l 2,2,3
 688 682 688 682 720 708 c 128,-1,4
 752 734 752 734 783 742.5 c 128,-1,5
 814 751 814 751 842 744.5 c 128,-1,6
 870 738 870 738 894 721 c 1,7,-1
 853 650 l 1,8,9
 828 666 828 666 799 655.5 c 128,-1,10
 770 645 770 645 739 598 c 2,11,-1
 362 0 l 1,0,-1
264 0 m 1,12,-1
 96 700 l 1,13,-1
 199 700 l 1,14,-1
 352 54 l 1,15,-1
 362 0 l 1,16,-1
 264 0 l 1,12,-1
EndSplineSet
Substitution2: "'ss01' Style Set 1 lookup 50 subtable" uni01B2.loclTOD0.ss01
Substitution2: "'c2sc' Capitals to Small Capitals lookup 45 subtable" uni01B2.loclTOD0.sc
AlternateSubs2: "'aalt' Access All Alternates lookup 1 subtable" uni01B2.loclTOD0.sc uni01B2.loclTOD0.ss01
EndChar

StartChar: uni0181.loclXPE
Encoding: 65549 -1 375
Width: 743
GlyphClass: 1
Flags: W
LayerCount: 2
Fore
SplineSet
74 52 m 1,0,-1
 204 700 l 1,1,-1
 711 700 l 1,2,-1
 694 615 l 1,3,-1
 285 615 l 1,4,-1
 182 98 l 1,5,-1
 74 52 l 1,0,-1
369 -8 m 0,6,7
 292 -8 292 -8 214.5 9.5 c 128,-1,8
 137 27 137 27 74 52 c 1,9,-1
 171 115 l 1,10,11
 219 96 219 96 269.5 85.5 c 128,-1,12
 320 75 320 75 366 75 c 0,13,14
 421 75 421 75 464.5 86.5 c 128,-1,15
 508 98 508 98 536.5 124 c 128,-1,16
 565 150 565 150 574 193 c 0,17,18
 584 238 584 238 564 269 c 128,-1,19
 544 300 544 300 501 316.5 c 128,-1,20
 458 333 458 333 396 333 c 0,21,22
 354 333 354 333 306 325.5 c 128,-1,23
 258 318 258 318 207 302 c 1,24,-1
 220 379 l 1,25,26
 274 396 274 396 325.5 404.5 c 128,-1,27
 377 413 377 413 423 413 c 0,28,29
 510 413 510 413 571.5 385.5 c 128,-1,30
 633 358 633 358 660.5 306.5 c 128,-1,31
 688 255 688 255 674 184 c 0,32,33
 660 112 660 112 615 70 c 128,-1,34
 570 28 570 28 505.5 10 c 128,-1,35
 441 -8 441 -8 369 -8 c 0,6,7
EndSplineSet
EndChar

StartChar: A.ss01
Encoding: 65550 -1 376
Width: 797
GlyphClass: 2
Flags: W
AnchorPoint: "Anchor-3" 485 700 basechar 0
AnchorPoint: "Anchor-2" 647 0 basechar 0
AnchorPoint: "Anchor-0" 345 0 basechar 0
LayerCount: 2
Fore
SplineSet
45 0 m 1,0,-1
 125 403 l 2,1,2
 156 558 156 558 243 633 c 128,-1,3
 330 708 330 708 471 708 c 0,4,5
 567 708 567 708 630 670 c 128,-1,6
 693 632 693 632 718.5 561 c 128,-1,7
 744 490 744 490 724 390 c 2,8,-1
 646 0 l 1,9,-1
 547 0 l 1,10,-1
 626 396 l 2,11,12
 648 506 648 506 604.5 562.5 c 128,-1,13
 561 619 561 619 461 619 c 0,14,15
 364 619 364 619 305 567.5 c 128,-1,16
 246 516 246 516 223 401 c 2,17,-1
 143 0 l 1,18,-1
 45 0 l 1,0,-1
148 193 m 1,19,-1
 165 280 l 1,20,-1
 640 280 l 1,21,-1
 624 193 l 1,22,-1
 148 193 l 1,19,-1
EndSplineSet
EndChar

StartChar: uni023A.ss01
Encoding: 65579 -1 405
Width: 797
GlyphClass: 2
Flags: W
AnchorPoint: "Anchor-3" 485 700 basechar 0
AnchorPoint: "Anchor-2" 647 0 basechar 0
AnchorPoint: "Anchor-0" 345 0 basechar 0
LayerCount: 2
Fore
SplineSet
156 -70 m 1,0,-1
 704 770 l 1,1,-1
 786 770 l 1,2,-1
 239 -70 l 1,3,-1
 156 -70 l 1,0,-1
148 193 m 1,4,-1
 165 280 l 1,5,-1
 640 280 l 1,6,-1
 624 193 l 1,7,-1
 148 193 l 1,4,-1
45 0 m 1,8,-1
 125 403 l 2,9,10
 156 558 156 558 243 633 c 128,-1,11
 330 708 330 708 471 708 c 0,12,13
 567 708 567 708 630 670 c 128,-1,14
 693 632 693 632 718.5 561 c 128,-1,15
 744 490 744 490 724 390 c 2,16,-1
 646 0 l 1,17,-1
 547 0 l 1,18,-1
 626 396 l 2,19,20
 648 506 648 506 604.5 562.5 c 128,-1,21
 561 619 561 619 461 619 c 0,22,23
 364 619 364 619 305 567.5 c 128,-1,24
 246 516 246 516 223 401 c 2,25,-1
 143 0 l 1,26,-1
 45 0 l 1,8,-1
EndSplineSet
EndChar

StartChar: uni2C6F.ss01
Encoding: 65581 -1 407
Width: 797
GlyphClass: 2
Flags: W
AnchorPoint: "Anchor-3" 486 700 basechar 0
AnchorPoint: "Anchor-2" 185 700 basechar 0
AnchorPoint: "Anchor-0" 346 0 basechar 0
LayerCount: 2
Fore
SplineSet
786 700 m 1,0,-1
 706 297 l 2,1,2
 675 142 675 142 588 67 c 128,-1,3
 501 -8 501 -8 361 -8 c 0,4,5
 266 -8 266 -8 202 30 c 128,-1,6
 138 68 138 68 113 139 c 128,-1,7
 88 210 88 210 108 310 c 2,8,-1
 185 700 l 1,9,-1
 285 700 l 1,10,-1
 206 304 l 2,11,12
 184 194 184 194 227.5 137.5 c 128,-1,13
 271 81 271 81 370 81 c 0,14,15
 467 81 467 81 526.5 133 c 128,-1,16
 586 185 586 185 609 299 c 2,17,-1
 689 700 l 1,18,-1
 786 700 l 1,0,-1
683 507 m 1,19,-1
 667 420 l 1,20,-1
 191 420 l 1,21,-1
 208 507 l 1,22,-1
 683 507 l 1,19,-1
EndSplineSet
EndChar

StartChar: AE.ss01
Encoding: 65582 -1 408
Width: 1103
GlyphClass: 2
Flags: W
AnchorPoint: "Anchor-3" 630 700 basechar 0
AnchorPoint: "Anchor-0" 490 0 basechar 0
LayerCount: 2
Fore
SplineSet
483 0 m 1,0,-1
 623 700 l 1,1,-1
 1118 700 l 1,2,-1
 1100 615 l 1,3,-1
 704 615 l 1,4,-1
 660 396 l 1,5,-1
 1013 396 l 1,6,-1
 998 315 l 1,7,-1
 644 315 l 1,8,-1
 598 85 l 1,9,-1
 1009 85 l 1,10,-1
 992 0 l 1,11,-1
 483 0 l 1,0,-1
151 203 m 1,12,-1
 168 287 l 1,13,-1
 590 287 l 1,14,-1
 573 203 l 1,15,-1
 151 203 l 1,12,-1
47 0 m 1,16,-1
 126 397 l 2,17,18
 155 544 155 544 245.5 622 c 128,-1,19
 336 700 336 700 476 700 c 2,20,-1
 673 700 l 1,21,-1
 654 610 l 1,22,-1
 472 610 l 2,23,24
 374 610 374 610 310 552.5 c 128,-1,25
 246 495 246 495 224 387 c 2,26,-1
 147 0 l 1,27,-1
 47 0 l 1,16,-1
EndSplineSet
EndChar

StartChar: E.ss01
Encoding: 65589 -1 415
Width: 664
GlyphClass: 2
Flags: W
AnchorPoint: "Anchor-3" 448 700 basechar 0
AnchorPoint: "Anchor-2" 551 0 basechar 0
AnchorPoint: "Anchor-0" 308 0 basechar 0
LayerCount: 2
Fore
SplineSet
315 -8 m 0,0,1
 233 -8 233 -8 172 14 c 128,-1,2
 111 36 111 36 77.5 77 c 128,-1,3
 44 118 44 118 44 175 c 0,4,5
 44 234 44 234 75.5 279 c 128,-1,6
 107 324 107 324 162 350 c 128,-1,7
 217 376 217 376 287 376 c 1,8,-1
 286 345 l 1,9,10
 242 345 242 345 209 363 c 128,-1,11
 176 381 176 381 157.5 413 c 128,-1,12
 139 445 139 445 139 486 c 0,13,14
 139 554 139 554 177.5 604 c 128,-1,15
 216 654 216 654 286 681 c 128,-1,16
 356 708 356 708 448 708 c 0,17,18
 518 708 518 708 577.5 694 c 128,-1,19
 637 680 637 680 680 653 c 1,20,-1
 645 574 l 1,21,22
 599 600 599 600 548 611 c 128,-1,23
 497 622 497 622 442 622 c 0,24,25
 379 622 379 622 333.5 605.5 c 128,-1,26
 288 589 288 589 263.5 559 c 128,-1,27
 239 529 239 529 239 488 c 0,28,29
 239 444 239 444 270.5 420.5 c 128,-1,30
 302 397 302 397 360 397 c 2,31,-1
 540 397 l 1,32,-1
 523 311 l 1,33,-1
 331 311 l 2,34,35
 246 311 246 311 195 278 c 128,-1,36
 144 245 144 245 144 186 c 0,37,38
 144 134 144 134 189 106 c 128,-1,39
 234 78 234 78 327 78 c 0,40,41
 402 78 402 78 467 97 c 128,-1,42
 532 116 532 116 573 149 c 1,43,-1
 606 71 l 1,44,45
 556 35 556 35 478.5 13.5 c 128,-1,46
 401 -8 401 -8 315 -8 c 0,0,1
EndSplineSet
EndChar

StartChar: Eogonek.ss01
Encoding: 65612 -1 438
Width: 664
GlyphClass: 1
Flags: W
LayerCount: 2
Fore
SplineSet
443 -224 m 0,0,1
 397 -224 397 -224 367 -200.5 c 128,-1,2
 337 -177 337 -177 337 -135 c 0,3,4
 337 -89 337 -89 367.5 -49.5 c 128,-1,5
 398 -10 398 -10 457 25 c 1,6,-1
 461 9 l 1,7,8
 428 1 428 1 391 -3.5 c 128,-1,9
 354 -8 354 -8 315 -8 c 0,10,11
 233 -8 233 -8 172 14 c 128,-1,12
 111 36 111 36 77.5 77 c 128,-1,13
 44 118 44 118 44 175 c 0,14,15
 44 234 44 234 75.5 279 c 128,-1,16
 107 324 107 324 162 350 c 128,-1,17
 217 376 217 376 287 376 c 1,18,-1
 286 345 l 1,19,20
 242 345 242 345 209 363 c 128,-1,21
 176 381 176 381 157.5 413 c 128,-1,22
 139 445 139 445 139 486 c 0,23,24
 139 554 139 554 177.5 604 c 128,-1,25
 216 654 216 654 286 681 c 128,-1,26
 356 708 356 708 448 708 c 0,27,28
 518 708 518 708 577.5 694 c 128,-1,29
 637 680 637 680 680 653 c 1,30,-1
 645 574 l 1,31,32
 599 600 599 600 548 611 c 128,-1,33
 497 622 497 622 442 622 c 0,34,35
 379 622 379 622 333.5 605.5 c 128,-1,36
 288 589 288 589 263.5 559 c 128,-1,37
 239 529 239 529 239 488 c 0,38,39
 239 444 239 444 270.5 420.5 c 128,-1,40
 302 397 302 397 360 397 c 2,41,-1
 540 397 l 1,42,-1
 523 311 l 1,43,-1
 331 311 l 2,44,45
 246 311 246 311 195 278 c 128,-1,46
 144 245 144 245 144 186 c 0,47,48
 144 134 144 134 189 106 c 128,-1,49
 234 78 234 78 327 78 c 0,50,51
 402 78 402 78 467 97.5 c 128,-1,52
 532 117 532 117 573 149 c 1,53,-1
 606 70 l 1,54,55
 533 25 533 25 489.5 -9.5 c 128,-1,56
 446 -44 446 -44 426.5 -72 c 128,-1,57
 407 -100 407 -100 407 -124 c 0,58,59
 407 -145 407 -145 421 -156.5 c 128,-1,60
 435 -168 435 -168 458 -168 c 0,61,62
 475 -168 475 -168 493 -163 c 128,-1,63
 511 -158 511 -158 525 -150 c 1,64,-1
 537 -200 l 1,65,66
 518 -211 518 -211 495 -217.5 c 128,-1,67
 472 -224 472 -224 443 -224 c 0,0,1
EndSplineSet
EndChar

StartChar: uni0246.ss01
Encoding: 65613 -1 439
Width: 664
GlyphClass: 2
Flags: W
AnchorPoint: "Anchor-3" 453 700 basechar 0
AnchorPoint: "Anchor-2" 398 0 basechar 0
AnchorPoint: "Anchor-0" 320 0 basechar 0
LayerCount: 2
Fore
SplineSet
83 -70 m 1,0,-1
 630 770 l 1,1,-1
 712 770 l 1,2,-1
 165 -70 l 1,3,-1
 83 -70 l 1,0,-1
315 -8 m 0,4,5
 233 -8 233 -8 172 14 c 128,-1,6
 111 36 111 36 77.5 77 c 128,-1,7
 44 118 44 118 44 175 c 0,8,9
 44 234 44 234 75.5 279 c 128,-1,10
 107 324 107 324 162 350 c 128,-1,11
 217 376 217 376 287 376 c 1,12,-1
 286 345 l 1,13,14
 242 345 242 345 209 363 c 128,-1,15
 176 381 176 381 157.5 413 c 128,-1,16
 139 445 139 445 139 486 c 0,17,18
 139 554 139 554 177.5 604 c 128,-1,19
 216 654 216 654 286 681 c 128,-1,20
 356 708 356 708 448 708 c 0,21,22
 518 708 518 708 577.5 694 c 128,-1,23
 637 680 637 680 680 653 c 1,24,-1
 645 574 l 1,25,26
 599 600 599 600 548 611 c 128,-1,27
 497 622 497 622 442 622 c 0,28,29
 379 622 379 622 333.5 605.5 c 128,-1,30
 288 589 288 589 263.5 559 c 128,-1,31
 239 529 239 529 239 488 c 0,32,33
 239 444 239 444 270.5 420.5 c 128,-1,34
 302 397 302 397 360 397 c 2,35,-1
 540 397 l 1,36,-1
 523 311 l 1,37,-1
 331 311 l 2,38,39
 246 311 246 311 195 278 c 128,-1,40
 144 245 144 245 144 186 c 0,41,42
 144 134 144 134 189 106 c 128,-1,43
 234 78 234 78 327 78 c 0,44,45
 402 78 402 78 467 97 c 128,-1,46
 532 116 532 116 573 149 c 1,47,-1
 606 71 l 1,48,49
 556 35 556 35 478.5 13.5 c 128,-1,50
 401 -8 401 -8 315 -8 c 0,4,5
EndSplineSet
EndChar

StartChar: uni018E.ss01
Encoding: 65616 -1 442
Width: 654
GlyphClass: 2
Flags: W
AnchorPoint: "Anchor-3" 380 700 basechar 0
AnchorPoint: "Anchor-0" 262 0 basechar 0
LayerCount: 2
Fore
SplineSet
250 -7 m 0,0,1
 197 -7 197 -7 143.5 3 c 128,-1,2
 90 13 90 13 45.5 31 c 128,-1,3
 1 49 1 49 -27 74 c 1,4,-1
 22 151 l 1,5,6
 47 129 47 129 85 112 c 128,-1,7
 123 95 123 95 169 86 c 128,-1,8
 215 77 215 77 260 77 c 0,9,10
 317 77 317 77 365.5 91.5 c 128,-1,11
 414 106 414 106 444.5 137 c 128,-1,12
 475 168 475 168 475 216 c 0,13,14
 475 272 475 272 434.5 296.5 c 128,-1,15
 394 321 394 321 329 321 c 2,16,-1
 164 321 l 1,17,-1
 179 402 l 1,18,-1
 340 402 l 2,19,20
 386 402 386 402 423 414 c 128,-1,21
 460 426 460 426 482 451.5 c 128,-1,22
 504 477 504 477 504 517 c 0,23,24
 504 555 504 555 484.5 577.5 c 128,-1,25
 465 600 465 600 431.5 610 c 128,-1,26
 398 620 398 620 358 620 c 0,27,28
 320 620 320 620 280 613 c 128,-1,29
 240 606 240 606 202.5 594 c 128,-1,30
 165 582 165 582 134 566 c 1,31,-1
 121 646 l 1,32,33
 157 665 157 665 199 678 c 128,-1,34
 241 691 241 691 284.5 698 c 128,-1,35
 328 705 328 705 371 705 c 0,36,37
 435 705 435 705 488.5 687.5 c 128,-1,38
 542 670 542 670 574.5 633 c 128,-1,39
 607 596 607 596 607 537 c 0,40,41
 607 481 607 481 578 437.5 c 128,-1,42
 549 394 549 394 501 370 c 128,-1,43
 453 346 453 346 397 346 c 1,44,-1
 407 375 l 1,45,46
 452 375 452 375 490 359 c 128,-1,47
 528 343 528 343 551.5 309 c 128,-1,48
 575 275 575 275 575 221 c 0,49,50
 575 165 575 165 549.5 122.5 c 128,-1,51
 524 80 524 80 478.5 51.5 c 128,-1,52
 433 23 433 23 374.5 8 c 128,-1,53
 316 -7 316 -7 250 -7 c 0,0,1
EndSplineSet
EndChar

StartChar: uni018F.ss01
Encoding: 65617 -1 443
Width: 837
GlyphClass: 2
Flags: W
AnchorPoint: "Anchor-3" 505 700 basechar 0
AnchorPoint: "Anchor-2" 419 0 basechar 0
AnchorPoint: "Anchor-0" 365 0 basechar 0
LayerCount: 2
Fore
SplineSet
388 -8 m 0,0,1
 306 -8 306 -8 240 19 c 128,-1,2
 174 46 174 46 131 98.5 c 128,-1,3
 88 151 88 151 73 228 c 1,4,-1
 712 470 l 1,5,-1
 724 382 l 1,6,-1
 135 160 l 1,7,-1
 170 240 l 1,8,9
 183 166 183 166 241.5 122 c 128,-1,10
 300 78 300 78 397 78 c 0,11,12
 466 78 466 78 522.5 104.5 c 128,-1,13
 579 131 579 131 618.5 176.5 c 128,-1,14
 658 222 658 222 679.5 281.5 c 128,-1,15
 701 341 701 341 701 407 c 0,16,17
 701 470 701 470 675 517.5 c 128,-1,18
 649 565 649 565 597.5 592 c 128,-1,19
 546 619 546 619 468 619 c 0,20,21
 403 619 403 619 344 598.5 c 128,-1,22
 285 578 285 578 242 540 c 1,23,-1
 193 613 l 1,24,25
 244 658 244 658 319 683 c 128,-1,26
 394 708 394 708 476 708 c 0,27,28
 581 708 581 708 653 671 c 128,-1,29
 725 634 725 634 763 567.5 c 128,-1,30
 801 501 801 501 801 413 c 0,31,32
 801 326 801 326 772 249.5 c 128,-1,33
 743 173 743 173 688.5 115 c 128,-1,34
 634 57 634 57 558 24.5 c 128,-1,35
 482 -8 482 -8 388 -8 c 0,0,1
EndSplineSet
EndChar

StartChar: F.ss01
Encoding: 65618 -1 444
Width: 615
GlyphClass: 1
Flags: W
LayerCount: 2
Fore
SplineSet
45 0 m 1,0,-1
 136 452 l 2,1,2
 160 577 160 577 241.5 642.5 c 128,-1,3
 323 708 323 708 466 708 c 0,4,5
 524 708 524 708 577 694.5 c 128,-1,6
 630 681 630 681 667 653 c 1,7,-1
 622 573 l 1,8,9
 590 597 590 597 549.5 608 c 128,-1,10
 509 619 509 619 462 619 c 0,11,12
 364 619 364 619 308 577.5 c 128,-1,13
 252 536 252 536 235 455 c 2,14,-1
 145 0 l 1,15,-1
 45 0 l 1,0,-1
164 282 m 1,16,-1
 182 369 l 1,17,-1
 539 369 l 1,18,-1
 521 282 l 1,19,-1
 164 282 l 1,16,-1
EndSplineSet
EndChar

StartChar: uni0191.ss01
Encoding: 65620 -1 446
Width: 675
GlyphClass: 1
Flags: W
LayerCount: 2
Fore
SplineSet
-106 -164 m 1,0,-1
 -71 -93 l 1,1,2
 -40 -109 -40 -109 -13 -114 c 128,-1,3
 14 -119 14 -119 35 -111.5 c 128,-1,4
 56 -104 56 -104 70 -86 c 128,-1,5
 84 -68 84 -68 90 -39 c 2,6,-1
 190 452 l 2,7,8
 215 577 215 577 295.5 642.5 c 128,-1,9
 376 708 376 708 520 708 c 0,10,11
 577 708 577 708 630.5 694.5 c 128,-1,12
 684 681 684 681 721 653 c 1,13,-1
 675 573 l 1,14,15
 644 597 644 597 603 608 c 128,-1,16
 562 619 562 619 515 619 c 0,17,18
 418 619 418 619 362 577.5 c 128,-1,19
 306 536 306 536 289 455 c 2,20,-1
 186 -55 l 2,21,22
 177 -105 177 -105 146.5 -139 c 128,-1,23
 116 -173 116 -173 74 -189 c 128,-1,24
 32 -205 32 -205 -14.5 -199.5 c 128,-1,25
 -61 -194 -61 -194 -106 -164 c 1,0,-1
218 282 m 1,26,-1
 235 369 l 1,27,-1
 592 369 l 1,28,-1
 575 282 l 1,29,-1
 218 282 l 1,26,-1
EndSplineSet
EndChar

StartChar: G.ss01
Encoding: 65621 -1 447
Width: 792
GlyphClass: 2
Flags: W
AnchorPoint: "Anchor-3" 507 700 basechar 0
AnchorPoint: "Anchor-0" 384 0 basechar 0
LayerCount: 2
Fore
SplineSet
387 -8 m 0,0,1
 291 -8 291 -8 220 28.5 c 128,-1,2
 149 65 149 65 109.5 131 c 128,-1,3
 70 197 70 197 70 286 c 0,4,5
 70 374 70 374 100 450.5 c 128,-1,6
 130 527 130 527 186.5 585 c 128,-1,7
 243 643 243 643 322.5 675.5 c 128,-1,8
 402 708 402 708 501 708 c 0,9,10
 593 708 593 708 661.5 680 c 128,-1,11
 730 652 730 652 771 600 c 1,12,-1
 699 539 l 1,13,14
 664 580 664 580 613.5 599.5 c 128,-1,15
 563 619 563 619 496 619 c 0,16,17
 422 619 422 619 362 593.5 c 128,-1,18
 302 568 302 568 259 523 c 128,-1,19
 216 478 216 478 193 419.5 c 128,-1,20
 170 361 170 361 170 294 c 0,21,22
 170 231 170 231 196 183 c 128,-1,23
 222 135 222 135 273 108 c 128,-1,24
 324 81 324 81 398 81 c 0,25,26
 454 81 454 81 506.5 102 c 128,-1,27
 559 123 559 123 599 167 c 1,28,-1
 631 97 l 1,29,30
 601 61 601 61 563 37.5 c 128,-1,31
 525 14 525 14 481 3 c 128,-1,32
 437 -8 437 -8 387 -8 c 0,0,1
555 0 m 1,33,-1
 571 83 l 1,34,-1
 566 93 l 1,35,-1
 618 354 l 1,36,-1
 714 354 l 1,37,-1
 642 0 l 1,38,-1
 555 0 l 1,33,-1
EndSplineSet
EndChar

StartChar: uni0193.ss01
Encoding: 65628 -1 454
Width: 783
GlyphClass: 2
Flags: W
AnchorPoint: "Anchor-3" 535 700 basechar 0
AnchorPoint: "Anchor-0" 385 0 basechar 0
LayerCount: 2
Fore
SplineSet
387 -8 m 0,0,1
 291 -8 291 -8 220 28.5 c 128,-1,2
 149 65 149 65 109.5 131 c 128,-1,3
 70 197 70 197 70 286 c 0,4,5
 70 374 70 374 100 450.5 c 128,-1,6
 130 527 130 527 186.5 585 c 128,-1,7
 243 643 243 643 322.5 675.5 c 128,-1,8
 402 708 402 708 501 708 c 0,9,10
 593 708 593 708 661 679.5 c 128,-1,11
 729 651 729 651 770 599 c 1,12,-1
 699 539 l 1,13,14
 664 580 664 580 613.5 599.5 c 128,-1,15
 563 619 563 619 496 619 c 0,16,17
 422 619 422 619 362 593.5 c 128,-1,18
 302 568 302 568 259 523 c 128,-1,19
 216 478 216 478 193 419.5 c 128,-1,20
 170 361 170 361 170 294 c 0,21,22
 170 231 170 231 196 183 c 128,-1,23
 222 135 222 135 273 108 c 128,-1,24
 324 81 324 81 398 81 c 0,25,26
 454 81 454 81 506.5 102 c 128,-1,27
 559 123 559 123 599 167 c 1,28,-1
 631 97 l 1,29,30
 601 61 601 61 563 37.5 c 128,-1,31
 525 14 525 14 481 3 c 128,-1,32
 437 -8 437 -8 387 -8 c 0,0,1
555 0 m 1,33,-1
 571 83 l 1,34,-1
 566 93 l 1,35,-1
 618 354 l 1,36,-1
 714 354 l 1,37,-1
 642 0 l 1,38,-1
 555 0 l 1,33,-1
678 599 m 1,39,-1
 692 674 l 2,40,41
 701 720 701 720 726 753 c 128,-1,42
 751 786 751 786 785 804.5 c 128,-1,43
 819 823 819 823 857 825.5 c 128,-1,44
 895 828 895 828 930 815 c 1,45,-1
 907 739 l 1,46,47
 877 748 877 748 850.5 741.5 c 128,-1,48
 824 735 824 735 806 713 c 128,-1,49
 788 691 788 691 780 655 c 2,50,-1
 770 599 l 1,51,-1
 678 599 l 1,39,-1
EndSplineSet
EndChar

StartChar: uni01E4.ss01
Encoding: 65630 -1 456
Width: 832
GlyphClass: 2
Flags: W
AnchorPoint: "Anchor-3" 507 700 basechar 0
AnchorPoint: "Anchor-0" 390 0 basechar 0
LayerCount: 2
Fore
SplineSet
387 -8 m 0,0,1
 291 -8 291 -8 220 28.5 c 128,-1,2
 149 65 149 65 109.5 131 c 128,-1,3
 70 197 70 197 70 286 c 0,4,5
 70 374 70 374 100 450.5 c 128,-1,6
 130 527 130 527 186.5 585 c 128,-1,7
 243 643 243 643 322.5 675.5 c 128,-1,8
 402 708 402 708 501 708 c 0,9,10
 593 708 593 708 661.5 680 c 128,-1,11
 730 652 730 652 771 600 c 1,12,-1
 699 539 l 1,13,14
 664 580 664 580 613.5 599.5 c 128,-1,15
 563 619 563 619 496 619 c 0,16,17
 422 619 422 619 362 593.5 c 128,-1,18
 302 568 302 568 259 523 c 128,-1,19
 216 478 216 478 193 419.5 c 128,-1,20
 170 361 170 361 170 294 c 0,21,22
 170 231 170 231 196 183 c 128,-1,23
 222 135 222 135 273 108 c 128,-1,24
 324 81 324 81 398 81 c 0,25,26
 454 81 454 81 506.5 102 c 128,-1,27
 559 123 559 123 599 167 c 1,28,-1
 631 97 l 1,29,30
 601 61 601 61 563 37.5 c 128,-1,31
 525 14 525 14 481 3 c 128,-1,32
 437 -8 437 -8 387 -8 c 0,0,1
555 0 m 1,33,-1
 571 83 l 1,34,-1
 566 93 l 1,35,-1
 618 354 l 1,36,-1
 714 354 l 1,37,-1
 642 0 l 1,38,-1
 555 0 l 1,33,-1
436 209 m 1,39,-1
 451 288 l 1,40,-1
 804 288 l 1,41,-1
 789 209 l 1,42,-1
 436 209 l 1,39,-1
EndSplineSet
EndChar

StartChar: I.ss01
Encoding: 65631 -1 457
Width: 476
GlyphClass: 2
Flags: W
AnchorPoint: "Anchor-3" 325 700 basechar 0
AnchorPoint: "Anchor-2" 235 0 basechar 0
AnchorPoint: "Anchor-0" 185 0 basechar 0
LayerCount: 2
Fore
SplineSet
138 14 m 1,0,-1
 273 687 l 1,1,-1
 372 687 l 1,2,-1
 238 14 l 1,3,-1
 138 14 l 1,0,-1
-1 0 m 1,4,-1
 15 84 l 1,5,-1
 387 84 l 1,6,-1
 371 0 l 1,7,-1
 -1 0 l 1,4,-1
123 616 m 1,8,-1
 139 700 l 1,9,-1
 511 700 l 1,10,-1
 495 616 l 1,11,-1
 123 616 l 1,8,-1
EndSplineSet
EndChar

StartChar: IJ.ss01
Encoding: 65632 -1 458
Width: 729
GlyphClass: 2
Flags: W
AnchorPoint: "Anchor-3" 263 700 basechar 0
LayerCount: 2
Fore
SplineSet
285 -108 m 0,0,1
 205 -108 205 -108 143 -88.5 c 128,-1,2
 81 -69 81 -69 38 -36 c 1,3,-1
 88 44 l 1,4,5
 130 13 130 13 182 -3 c 128,-1,6
 234 -19 234 -19 292 -19 c 0,7,8
 386 -19 386 -19 440.5 33 c 128,-1,9
 495 85 495 85 518 202 c 2,10,-1
 617 700 l 1,11,-1
 716 700 l 1,12,-1
 617 196 l 2,13,14
 586 42 586 42 504 -33 c 128,-1,15
 422 -108 422 -108 285 -108 c 0,0,1
98 209 m 1,16,-1
 195 700 l 1,17,-1
 295 700 l 1,18,-1
 197 209 l 1,19,-1
 98 209 l 1,16,-1
EndSplineSet
EndChar

StartChar: uni0197.ss01
Encoding: 65646 -1 472
Width: 476
GlyphClass: 2
Flags: W
AnchorPoint: "Anchor-3" 325 700 basechar 0
AnchorPoint: "Anchor-2" 235 0 basechar 0
AnchorPoint: "Anchor-0" 185 0 basechar 0
LayerCount: 2
Fore
SplineSet
138 14 m 1,0,-1
 273 687 l 1,1,-1
 372 687 l 1,2,-1
 238 14 l 1,3,-1
 138 14 l 1,0,-1
-1 0 m 1,4,-1
 15 84 l 1,5,-1
 387 84 l 1,6,-1
 371 0 l 1,7,-1
 -1 0 l 1,4,-1
123 616 m 1,8,-1
 139 700 l 1,9,-1
 511 700 l 1,10,-1
 495 616 l 1,11,-1
 123 616 l 1,8,-1
95 319 m 1,12,-1
 110 398 l 1,13,-1
 418 398 l 1,14,-1
 403 319 l 1,15,-1
 95 319 l 1,12,-1
EndSplineSet
EndChar

StartChar: J.ss01
Encoding: 65649 -1 475
Width: 522
GlyphClass: 2
Flags: W
AnchorPoint: "Anchor-3" 335 700 basechar 0
LayerCount: 2
Fore
SplineSet
152 -108 m 0,0,1
 81 -108 81 -108 28.5 -81 c 128,-1,2
 -24 -54 -24 -54 -51 -6 c 1,3,-1
 18 59 l 1,4,5
 38 22 38 22 72.5 0 c 128,-1,6
 107 -22 107 -22 154 -22 c 0,7,8
 211 -22 211 -22 247 9.5 c 128,-1,9
 283 41 283 41 297 115 c 2,10,-1
 396 613 l 1,11,-1
 143 613 l 1,12,-1
 161 700 l 1,13,-1
 511 700 l 1,14,-1
 395 119 l 2,15,16
 371 -7 371 -7 310.5 -57.5 c 128,-1,17
 250 -108 250 -108 152 -108 c 0,0,1
EndSplineSet
EndChar

StartChar: uniA7B2.ss01
Encoding: 65651 -1 477
Width: 568
GlyphClass: 2
Flags: W
AnchorPoint: "Anchor-3" 346 700 basechar 0
LayerCount: 2
Fore
SplineSet
173 -106 m 0,0,1
 112 -106 112 -106 69.5 -83.5 c 128,-1,2
 27 -61 27 -61 8 -22.5 c 128,-1,3
 -11 16 -11 16 -2 65 c 0,4,5
 12 124 12 124 63.5 156 c 128,-1,6
 115 188 115 188 198 188 c 2,7,-1
 499 188 l 1,8,-1
 482 108 l 1,9,-1
 196 108 l 2,10,11
 153 108 153 108 125.5 93.5 c 128,-1,12
 98 79 98 79 91 52 c 0,13,14
 83 20 83 20 106 -3 c 128,-1,15
 129 -26 129 -26 173 -26 c 0,16,17
 205 -26 205 -26 231 -11 c 128,-1,18
 257 4 257 4 275 32.5 c 128,-1,19
 293 61 293 61 301 101 c 2,20,-1
 405 613 l 1,21,-1
 152 613 l 1,22,-1
 169 700 l 1,23,-1
 521 700 l 1,24,-1
 397 81 l 2,25,26
 386 24 386 24 355 -18 c 128,-1,27
 324 -60 324 -60 278 -83 c 128,-1,28
 232 -106 232 -106 173 -106 c 0,0,1
EndSplineSet
EndChar

StartChar: uni0248.ss01
Encoding: 65652 -1 478
Width: 522
GlyphClass: 2
Flags: W
AnchorPoint: "Anchor-3" 335 700 basechar 0
LayerCount: 2
Fore
SplineSet
152 -108 m 0,0,1
 81 -108 81 -108 28.5 -81 c 128,-1,2
 -24 -54 -24 -54 -51 -6 c 1,3,-1
 18 59 l 1,4,5
 38 22 38 22 72.5 0 c 128,-1,6
 107 -22 107 -22 154 -22 c 0,7,8
 211 -22 211 -22 246.5 9.5 c 128,-1,9
 282 41 282 41 297 115 c 2,10,-1
 396 613 l 1,11,-1
 143 613 l 1,12,-1
 161 700 l 1,13,-1
 511 700 l 1,14,-1
 395 119 l 2,15,16
 371 -7 371 -7 310.5 -57.5 c 128,-1,17
 250 -108 250 -108 152 -108 c 0,0,1
184 319 m 1,18,-1
 199 398 l 1,19,-1
 555 398 l 1,20,-1
 540 319 l 1,21,-1
 184 319 l 1,18,-1
EndSplineSet
EndChar

StartChar: M.ss01
Encoding: 65654 -1 480
Width: 1217
GlyphClass: 2
Flags: W
AnchorPoint: "Anchor-3" 703 700 basechar 0
AnchorPoint: "Anchor-0" 567 0 basechar 0
LayerCount: 2
Fore
SplineSet
62 0 m 1,0,-1
 204 700 l 1,1,-1
 300 700 l 1,2,-1
 271 560 l 1,3,-1
 253 574 l 1,4,5
 291 637 291 637 354 672.5 c 128,-1,6
 417 708 417 708 501 708 c 0,7,8
 592 708 592 708 648.5 668.5 c 128,-1,9
 705 629 705 629 711 559 c 1,10,-1
 680 561 l 1,11,12
 722 632 722 632 788.5 670 c 128,-1,13
 855 708 855 708 943 708 c 0,14,15
 1023 708 1023 708 1076.5 677 c 128,-1,16
 1130 646 1130 646 1150.5 585.5 c 128,-1,17
 1171 525 1171 525 1153 435 c 2,18,-1
 1066 0 l 1,19,-1
 966 0 l 1,20,-1
 1054 432 l 2,21,22
 1073 528 1073 528 1034.5 573.5 c 128,-1,23
 996 619 996 619 917 619 c 256,24,25
 838 619 838 619 778.5 571 c 128,-1,26
 719 523 719 523 698 418 c 2,27,-1
 614 0 l 1,28,-1
 514 0 l 1,29,-1
 602 432 l 2,30,31
 621 528 621 528 585 573.5 c 128,-1,32
 549 619 549 619 470 619 c 0,33,34
 418 619 418 619 372.5 598.5 c 128,-1,35
 327 578 327 578 294 535 c 128,-1,36
 261 492 261 492 247 422 c 2,37,-1
 162 0 l 1,38,-1
 62 0 l 1,0,-1
EndSplineSet
EndChar

StartChar: N.ss01
Encoding: 65656 -1 482
Width: 807
GlyphClass: 2
Flags: W
AnchorPoint: "Anchor-3" 499 700 basechar 0
AnchorPoint: "Anchor-0" 358 0 basechar 0
LayerCount: 2
Fore
SplineSet
511 708 m 0,0,1
 595 708 595 708 652 671.5 c 128,-1,2
 709 635 709 635 732.5 566.5 c 128,-1,3
 756 498 756 498 736 398 c 2,4,-1
 656 0 l 1,5,-1
 557 0 l 1,6,-1
 637 402 l 2,7,8
 659 511 659 511 618.5 565 c 128,-1,9
 578 619 578 619 483 619 c 0,10,11
 396 619 396 619 330.5 568 c 128,-1,12
 265 517 265 517 243 408 c 2,13,-1
 162 0 l 1,14,-1
 62 0 l 1,15,-1
 202 700 l 1,16,-1
 298 700 l 1,17,-1
 264 529 l 1,18,-1
 253 572 l 1,19,20
 295 639 295 639 360.5 673.5 c 128,-1,21
 426 708 426 708 511 708 c 0,0,1
EndSplineSet
EndChar

StartChar: Eng.ss01
Encoding: 65668 -1 494
Width: 807
GlyphClass: 2
Flags: W
AnchorPoint: "Anchor-3" 491 700 basechar 0
AnchorPoint: "Anchor-0" 312 -194 basechar 0
LayerCount: 2
Fore
SplineSet
511 708 m 0,0,1
 595 708 595 708 652 671.5 c 128,-1,2
 709 635 709 635 732.5 566.5 c 128,-1,3
 756 498 756 498 736 398 c 2,4,-1
 664 37 l 2,5,6
 646 -53 646 -53 612 -104.5 c 128,-1,7
 578 -156 578 -156 529.5 -178 c 128,-1,8
 481 -200 481 -200 417 -200 c 0,9,10
 357 -200 357 -200 308 -179 c 128,-1,11
 259 -158 259 -158 232 -118 c 1,12,-1
 294 -47 l 1,13,14
 312 -77 312 -77 345 -95 c 128,-1,15
 378 -113 378 -113 424 -113 c 0,16,17
 477 -113 477 -113 512 -80.5 c 128,-1,18
 547 -48 547 -48 563 29 c 2,19,-1
 637 402 l 2,20,21
 659 511 659 511 618.5 565 c 128,-1,22
 578 619 578 619 483 619 c 0,23,24
 396 619 396 619 330.5 568 c 128,-1,25
 265 517 265 517 243 408 c 2,26,-1
 162 0 l 1,27,-1
 62 0 l 1,28,-1
 202 700 l 1,29,-1
 298 700 l 1,30,-1
 264 529 l 1,31,-1
 253 572 l 1,32,33
 295 639 295 639 360.5 673.5 c 128,-1,34
 426 708 426 708 511 708 c 0,0,1
EndSplineSet
EndChar

StartChar: Q.ss01
Encoding: 65669 -1 495
Width: 860
GlyphClass: 2
Flags: W
AnchorPoint: "Anchor-3" 518 700 basechar 0
LayerCount: 2
Fore
SplineSet
399 -8 m 0,0,1
 295 -8 295 -8 221 29 c 128,-1,2
 147 66 147 66 108.5 132.5 c 128,-1,3
 70 199 70 199 70 287 c 0,4,5
 70 374 70 374 100 450.5 c 128,-1,6
 130 527 130 527 186 585 c 128,-1,7
 242 643 242 643 320 675.5 c 128,-1,8
 398 708 398 708 495 708 c 0,9,10
 600 708 600 708 674 671 c 128,-1,11
 748 634 748 634 786.5 567.5 c 128,-1,12
 825 501 825 501 825 413 c 0,13,14
 825 326 825 326 795 249.5 c 128,-1,15
 765 173 765 173 709 115 c 128,-1,16
 653 57 653 57 574.5 24.5 c 128,-1,17
 496 -8 496 -8 399 -8 c 0,0,1
300 -135 m 1,18,-1
 329 9 l 1,19,-1
 338 44 l 1,20,-1
 380 250 l 1,21,-1
 473 250 l 1,22,-1
 431 44 l 1,23,-1
 429 11 l 1,24,-1
 400 -135 l 1,25,-1
 300 -135 l 1,18,-1
408 81 m 0,26,27
 480 81 480 81 539 106.5 c 128,-1,28
 598 132 598 132 639 177.5 c 128,-1,29
 680 223 680 223 702 282 c 128,-1,30
 724 341 724 341 724 407 c 0,31,32
 724 470 724 470 697 517.5 c 128,-1,33
 670 565 670 565 617 592 c 128,-1,34
 564 619 564 619 487 619 c 0,35,36
 414 619 414 619 355.5 593.5 c 128,-1,37
 297 568 297 568 255.5 522.5 c 128,-1,38
 214 477 214 477 192 418 c 128,-1,39
 170 359 170 359 170 293 c 0,40,41
 170 230 170 230 197.5 182.5 c 128,-1,42
 225 135 225 135 277.5 108 c 128,-1,43
 330 81 330 81 408 81 c 0,26,27
EndSplineSet
EndChar

StartChar: T.ss01
Encoding: 65670 -1 496
Width: 618
GlyphClass: 2
Flags: W
AnchorPoint: "Anchor-3" 397 700 basechar 0
AnchorPoint: "Anchor-1" 328 358 basechar 0
AnchorPoint: "Anchor-0" 255 0 basechar 0
LayerCount: 2
Fore
SplineSet
103 551 m 1,0,-1
 75 630 l 1,1,2
 117 656 117 656 167.5 673 c 128,-1,3
 218 690 218 690 273 699 c 128,-1,4
 328 708 328 708 383 708 c 0,5,6
 470 708 470 708 546.5 688 c 128,-1,7
 623 668 623 668 683 628 c 1,8,-1
 638 549 l 1,9,10
 582 584 582 584 515.5 602 c 128,-1,11
 449 620 449 620 368 620 c 0,12,13
 295 620 295 620 226.5 602.5 c 128,-1,14
 158 585 158 585 103 551 c 1,0,-1
206 0 m 1,15,-1
 337 655 l 1,16,-1
 437 655 l 1,17,-1
 305 0 l 1,18,-1
 206 0 l 1,15,-1
EndSplineSet
EndChar

StartChar: Tbar.ss01
Encoding: 65671 -1 497
Width: 618
GlyphClass: 2
Flags: W
AnchorPoint: "Anchor-3" 397 700 basechar 0
AnchorPoint: "Anchor-1" 328 358 basechar 0
AnchorPoint: "Anchor-0" 255 0 basechar 0
LayerCount: 2
Fore
SplineSet
103 551 m 1,0,-1
 75 630 l 1,1,2
 117 656 117 656 167.5 673 c 128,-1,3
 218 690 218 690 273 699 c 128,-1,4
 328 708 328 708 383 708 c 0,5,6
 470 708 470 708 546.5 688 c 128,-1,7
 623 668 623 668 683 628 c 1,8,-1
 638 549 l 1,9,10
 582 584 582 584 515.5 602 c 128,-1,11
 449 620 449 620 368 620 c 0,12,13
 295 620 295 620 226.5 602.5 c 128,-1,14
 158 585 158 585 103 551 c 1,0,-1
206 0 m 1,15,-1
 337 655 l 1,16,-1
 437 655 l 1,17,-1
 305 0 l 1,18,-1
 206 0 l 1,15,-1
118 319 m 1,19,-1
 133 398 l 1,20,-1
 537 398 l 1,21,-1
 522 319 l 1,22,-1
 118 319 l 1,19,-1
EndSplineSet
EndChar

StartChar: uni023E.ss01
Encoding: 65676 -1 502
Width: 618
GlyphClass: 2
Flags: W
AnchorPoint: "Anchor-3" 400 700 basechar 0
AnchorPoint: "Anchor-1" 328 341 basechar 0
AnchorPoint: "Anchor-0" 260 0 basechar 0
LayerCount: 2
Fore
SplineSet
46 -70 m 1,0,-1
 593 770 l 1,1,-1
 671 770 l 1,2,-1
 124 -70 l 1,3,-1
 46 -70 l 1,0,-1
208 0 m 1,4,-1
 339 655 l 1,5,-1
 438 655 l 1,6,-1
 307 0 l 1,7,-1
 208 0 l 1,4,-1
638 549 m 1,8,9
 582 584 582 584 515.5 602 c 128,-1,10
 449 620 449 620 368 620 c 0,11,12
 295 620 295 620 226.5 602.5 c 128,-1,13
 158 585 158 585 103 551 c 1,14,-1
 75 630 l 1,15,16
 117 656 117 656 167.5 673 c 128,-1,17
 218 690 218 690 273 699 c 128,-1,18
 328 708 328 708 383 708 c 0,19,20
 470 708 470 708 546.5 688 c 128,-1,21
 623 668 623 668 683 628 c 1,22,-1
 638 549 l 1,8,9
EndSplineSet
EndChar

StartChar: uni01AC.ss01
Encoding: 65679 -1 505
Width: 638
GlyphClass: 2
Flags: W
AnchorPoint: "Anchor-3" 416 700 basechar 0
AnchorPoint: "Anchor-1" 347 341 basechar 0
AnchorPoint: "Anchor-0" 278 0 basechar 0
LayerCount: 2
Fore
SplineSet
85 397 m 1,0,1
 49 466 49 466 54.5 523 c 128,-1,2
 60 580 60 580 101.5 621.5 c 128,-1,3
 143 663 143 663 218.5 685.5 c 128,-1,4
 294 708 294 708 398 708 c 0,5,6
 485 708 485 708 565.5 686 c 128,-1,7
 646 664 646 664 703 625 c 1,8,-1
 658 556 l 1,9,10
 618 579 618 579 575 595 c 128,-1,11
 532 611 532 611 485.5 619 c 128,-1,12
 439 627 439 627 387 627 c 0,13,14
 279 627 279 627 215.5 604.5 c 128,-1,15
 152 582 152 582 136 537 c 128,-1,16
 120 492 120 492 154 424 c 1,17,-1
 85 397 l 1,0,1
229 0 m 1,18,-1
 361 659 l 1,19,-1
 460 659 l 1,20,-1
 329 0 l 1,21,-1
 229 0 l 1,18,-1
EndSplineSet
EndChar

StartChar: uni01AE.ss01
Encoding: 65681 -1 507
Width: 642
GlyphClass: 2
Flags: W
AnchorPoint: "Anchor-3" 408 700 basechar 0
AnchorPoint: "Anchor-0" 268 0 basechar 0
LayerCount: 2
Fore
SplineSet
436 -187 m 1,0,1
 398 -198 398 -198 361 -199 c 128,-1,2
 324 -200 324 -200 292 -190 c 128,-1,3
 260 -180 260 -180 237.5 -159 c 128,-1,4
 215 -138 215 -138 205.5 -106 c 128,-1,5
 196 -74 196 -74 205 -31 c 2,6,-1
 342 655 l 1,7,-1
 441 655 l 1,8,-1
 304 -27 l 2,9,10
 298 -56 298 -56 305.5 -76.5 c 128,-1,11
 313 -97 313 -97 330.5 -107 c 128,-1,12
 348 -117 348 -117 373.5 -117 c 128,-1,13
 399 -117 399 -117 430 -109 c 1,14,-1
 436 -187 l 1,0,1
643 549 m 1,15,16
 587 584 587 584 520 602 c 128,-1,17
 453 620 453 620 373 620 c 0,18,19
 300 620 300 620 231.5 602.5 c 128,-1,20
 163 585 163 585 108 551 c 1,21,-1
 80 630 l 1,22,23
 122 656 122 656 172.5 673 c 128,-1,24
 223 690 223 690 278 699 c 128,-1,25
 333 708 333 708 388 708 c 0,26,27
 475 708 475 708 551 688 c 128,-1,28
 627 668 627 668 688 628 c 1,29,-1
 643 549 l 1,15,16
EndSplineSet
EndChar

StartChar: uniA7B1.ss01
Encoding: 65682 -1 508
Width: 618
GlyphClass: 1
Flags: W
LayerCount: 2
Fore
SplineSet
544 157 m 1,0,-1
 571 78 l 1,1,2
 530 52 530 52 479 35 c 128,-1,3
 428 18 428 18 373.5 9 c 128,-1,4
 319 0 319 0 264 0 c 0,5,6
 176 0 176 0 100.5 20.5 c 128,-1,7
 25 41 25 41 -36 80 c 1,8,-1
 9 159 l 1,9,10
 64 124 64 124 131 106 c 128,-1,11
 198 88 198 88 278 88 c 0,12,13
 351 88 351 88 420 105.5 c 128,-1,14
 489 123 489 123 544 157 c 1,0,-1
440 708 m 1,15,-1
 309 53 l 1,16,-1
 210 53 l 1,17,-1
 341 708 l 1,18,-1
 440 708 l 1,15,-1
EndSplineSet
EndChar

StartChar: U.ss01
Encoding: 65683 -1 509
Width: 804
GlyphClass: 2
Flags: W
AnchorPoint: "Anchor-4" 734 700 basechar 0
AnchorPoint: "Anchor-3" 480 700 basechar 0
AnchorPoint: "Anchor-2" 636 0 basechar 0
AnchorPoint: "Anchor-0" 340 0 basechar 0
LayerCount: 2
Fore
SplineSet
329 -8 m 0,0,1
 245 -8 245 -8 188 28.5 c 128,-1,2
 131 65 131 65 108.5 134 c 128,-1,3
 86 203 86 203 106 302 c 2,4,-1
 185 700 l 1,5,-1
 284 700 l 1,6,-1
 204 298 l 2,7,8
 182 190 182 190 222.5 135.5 c 128,-1,9
 263 81 263 81 356 81 c 0,10,11
 444 81 444 81 508.5 132 c 128,-1,12
 573 183 573 183 595 292 c 2,13,-1
 676 700 l 1,14,-1
 776 700 l 1,15,-1
 636 0 l 1,16,-1
 540 0 l 1,17,-1
 574 171 l 1,18,-1
 585 128 l 1,19,20
 543 62 543 62 478.5 27 c 128,-1,21
 414 -8 414 -8 329 -8 c 0,0,1
EndSplineSet
EndChar

StartChar: uni0244.ss01
Encoding: 65685 -1 511
Width: 815
GlyphClass: 2
Flags: W
AnchorPoint: "Anchor-4" 738 700 basechar 0
AnchorPoint: "Anchor-3" 484 700 basechar 0
AnchorPoint: "Anchor-2" 639 0 basechar 0
AnchorPoint: "Anchor-0" 344 0 basechar 0
LayerCount: 2
Fore
SplineSet
333 -8 m 0,0,1
 249 -8 249 -8 192 28.5 c 128,-1,2
 135 65 135 65 112 134 c 128,-1,3
 89 203 89 203 109 302 c 2,4,-1
 189 700 l 1,5,-1
 288 700 l 1,6,-1
 208 298 l 2,7,8
 186 190 186 190 226 135.5 c 128,-1,9
 266 81 266 81 360 81 c 0,10,11
 448 81 448 81 512 132 c 128,-1,12
 576 183 576 183 598 292 c 2,13,-1
 680 700 l 1,14,-1
 779 700 l 1,15,-1
 639 0 l 1,16,-1
 543 0 l 1,17,-1
 578 171 l 1,18,-1
 589 128 l 1,19,20
 547 62 547 62 482.5 27 c 128,-1,21
 418 -8 418 -8 333 -8 c 0,0,1
10 319 m 1,22,-1
 25 398 l 1,23,-1
 822 398 l 1,24,-1
 807 319 l 1,25,-1
 10 319 l 1,22,-1
EndSplineSet
EndChar

StartChar: W.ss01
Encoding: 65715 -1 541
Width: 1197
GlyphClass: 2
Flags: W
AnchorPoint: "Anchor-3" 689 700 basechar 0
AnchorPoint: "Anchor-0" 550 0 basechar 0
LayerCount: 2
Fore
SplineSet
334 -8 m 0,0,1
 246 -8 246 -8 187 25 c 128,-1,2
 128 58 128 58 104.5 122 c 128,-1,3
 81 186 81 186 100 277 c 2,4,-1
 190 700 l 1,5,-1
 291 700 l 1,6,-1
 198 268 l 2,7,8
 178 172 178 172 216 126.5 c 128,-1,9
 254 81 254 81 336 81 c 0,10,11
 416 81 416 81 471.5 129 c 128,-1,12
 527 177 527 177 550 283 c 2,13,-1
 640 700 l 1,14,-1
 738 700 l 1,15,-1
 646 268 l 2,16,17
 626 172 626 172 662.5 126.5 c 128,-1,18
 699 81 699 81 782 81 c 0,19,20
 870 81 870 81 923 128 c 128,-1,21
 976 175 976 175 998 277 c 2,22,-1
 1087 700 l 1,23,-1
 1187 700 l 1,24,-1
 1097 278 l 2,25,26
 1066 130 1066 130 987 61 c 128,-1,27
 908 -8 908 -8 767 -8 c 0,28,29
 682 -8 682 -8 627 26 c 128,-1,30
 572 60 572 60 555 126 c 1,31,-1
 589 126 l 1,32,33
 547 57 547 57 480 24.5 c 128,-1,34
 413 -8 413 -8 334 -8 c 0,0,1
EndSplineSet
EndChar

StartChar: uni2C72.ss01
Encoding: 65722 -1 548
Width: 1192
GlyphClass: 2
Flags: W
AnchorPoint: "Anchor-3" 686 700 basechar 0
AnchorPoint: "Anchor-0" 546 0 basechar 0
LayerCount: 2
Fore
SplineSet
334 -8 m 0,0,1
 266 -8 266 -8 215.5 11.5 c 128,-1,2
 165 31 165 31 134.5 68 c 128,-1,3
 104 105 104 105 95 158 c 128,-1,4
 86 211 86 211 100 277 c 2,5,-1
 190 700 l 1,6,-1
 291 700 l 1,7,-1
 198 268 l 2,8,9
 178 177 178 177 214 129 c 128,-1,10
 250 81 250 81 336 81 c 0,11,12
 420 81 420 81 474.5 131.5 c 128,-1,13
 529 182 529 182 550 283 c 2,14,-1
 640 700 l 1,15,-1
 738 700 l 1,16,-1
 646 268 l 2,17,18
 626 177 626 177 661 129 c 128,-1,19
 696 81 696 81 782 81 c 0,20,21
 872 81 872 81 924.5 129 c 128,-1,22
 977 177 977 177 998 277 c 2,23,-1
 1067 602 l 2,24,25
 1075 641 1075 641 1093.5 671 c 128,-1,26
 1112 701 1112 701 1138.5 721 c 128,-1,27
 1165 741 1165 741 1194.5 748 c 128,-1,28
 1224 755 1224 755 1256 749 c 128,-1,29
 1288 743 1288 743 1318 721 c 1,30,-1
 1277 650 l 1,31,32
 1254 665 1254 665 1230 661.5 c 128,-1,33
 1206 658 1206 658 1188 640 c 128,-1,34
 1170 622 1170 622 1163 592 c 2,35,-1
 1097 278 l 2,36,37
 1066 129 1066 129 986.5 60.5 c 128,-1,38
 907 -8 907 -8 767 -8 c 0,39,40
 681 -8 681 -8 626 26 c 128,-1,41
 571 60 571 60 555 126 c 1,42,-1
 589 126 l 1,43,44
 549 60 549 60 483 26 c 128,-1,45
 417 -8 417 -8 334 -8 c 0,0,1
EndSplineSet
EndChar

StartChar: Y.ss01
Encoding: 65723 -1 549
Width: 785
GlyphClass: 2
Flags: W
AnchorPoint: "Anchor-3" 477 700 basechar 0
AnchorPoint: "Anchor-2" 373 -100 basechar 0
AnchorPoint: "Anchor-0" 621 0 basechar 0
LayerCount: 2
Fore
SplineSet
675 700 m 1,0,-1
 774 700 l 1,1,-1
 674 198 l 2,2,3
 643 43 643 43 552.5 -31.5 c 128,-1,4
 462 -106 462 -106 324 -106 c 0,5,6
 232 -106 232 -106 165.5 -78.5 c 128,-1,7
 99 -51 99 -51 58 -2 c 1,8,-1
 110 75 l 1,9,10
 190 -16 190 -16 328 -16 c 0,11,12
 427 -16 427 -16 489.5 37 c 128,-1,13
 552 90 552 90 575 204 c 2,14,-1
 605 351 l 1,15,-1
 620 308 l 1,16,17
 578 243 578 243 513 208 c 128,-1,18
 448 173 448 173 363 173 c 0,19,20
 279 173 279 173 221 209 c 128,-1,21
 163 245 163 245 140 314.5 c 128,-1,22
 117 384 117 384 137 482 c 2,23,-1
 180 700 l 1,24,-1
 279 700 l 1,25,-1
 235 479 l 2,26,27
 213 371 213 371 255 316.5 c 128,-1,28
 297 262 297 262 391 262 c 0,29,30
 478 262 478 262 542.5 312.5 c 128,-1,31
 607 363 607 363 629 473 c 2,32,-1
 675 700 l 1,0,-1
EndSplineSet
EndChar

StartChar: uni01B3.ss01
Encoding: 65730 -1 556
Width: 824
GlyphClass: 2
Flags: W
AnchorPoint: "Anchor-3" 477 700 basechar 0
AnchorPoint: "Anchor-0" 609 0 basechar 0
LayerCount: 2
Fore
SplineSet
324 -106 m 0,0,1
 232 -106 232 -106 165.5 -78.5 c 128,-1,2
 99 -51 99 -51 58 -2 c 1,3,-1
 110 75 l 1,4,5
 190 -16 190 -16 328 -16 c 0,6,7
 427 -16 427 -16 489.5 37 c 128,-1,8
 552 90 552 90 575 204 c 2,9,-1
 605 351 l 1,10,-1
 620 308 l 1,11,12
 578 243 578 243 513 208 c 128,-1,13
 448 173 448 173 363 173 c 0,14,15
 279 173 279 173 221 209 c 128,-1,16
 163 245 163 245 140 314.5 c 128,-1,17
 117 384 117 384 137 482 c 2,18,-1
 180 700 l 1,19,-1
 279 700 l 1,20,-1
 235 479 l 2,21,22
 213 371 213 371 255 316.5 c 128,-1,23
 297 262 297 262 391 262 c 0,24,25
 478 262 478 262 543 312.5 c 128,-1,26
 608 363 608 363 629 473 c 2,27,-1
 652 586 l 2,28,29
 662 638 662 638 688 674.5 c 128,-1,30
 714 711 714 711 750 730 c 128,-1,31
 786 749 786 749 826.5 747.5 c 128,-1,32
 867 746 867 746 906 721 c 1,33,-1
 866 650 l 1,34,35
 840 665 840 665 816 659 c 128,-1,36
 792 653 792 653 774 630.5 c 128,-1,37
 756 608 756 608 748 572 c 2,38,-1
 674 198 l 2,39,40
 643 43 643 43 552.5 -31.5 c 128,-1,41
 462 -106 462 -106 324 -106 c 0,0,1
EndSplineSet
EndChar

StartChar: uni024E.ss01
Encoding: 65733 -1 559
Width: 786
GlyphClass: 2
Flags: W
AnchorPoint: "Anchor-3" 477 700 basechar 0
AnchorPoint: "Anchor-0" 621 0 basechar 0
LayerCount: 2
Fore
SplineSet
675 700 m 1,0,-1
 774 700 l 1,1,-1
 674 198 l 2,2,3
 643 43 643 43 552.5 -31.5 c 128,-1,4
 462 -106 462 -106 324 -106 c 0,5,6
 232 -106 232 -106 165.5 -78.5 c 128,-1,7
 99 -51 99 -51 58 -2 c 1,8,-1
 110 75 l 1,9,10
 190 -16 190 -16 328 -16 c 0,11,12
 427 -16 427 -16 489.5 37 c 128,-1,13
 552 90 552 90 575 204 c 2,14,-1
 605 351 l 1,15,-1
 620 308 l 1,16,17
 578 243 578 243 513 208 c 128,-1,18
 448 173 448 173 363 173 c 0,19,20
 279 173 279 173 221 209 c 128,-1,21
 163 245 163 245 140 314.5 c 128,-1,22
 117 384 117 384 137 482 c 2,23,-1
 180 700 l 1,24,-1
 279 700 l 1,25,-1
 235 479 l 2,26,27
 213 371 213 371 255 316.5 c 128,-1,28
 297 262 297 262 391 262 c 0,29,30
 478 262 478 262 542.5 312.5 c 128,-1,31
 607 363 607 363 629 473 c 2,32,-1
 675 700 l 1,0,-1
39 505 m 1,33,-1
 54 584 l 1,34,-1
 855 584 l 1,35,-1
 840 505 l 1,36,-1
 39 505 l 1,33,-1
EndSplineSet
EndChar

StartChar: Z.ss01
Encoding: 65735 -1 561
Width: 687
GlyphClass: 2
Flags: W
AnchorPoint: "Anchor-3" 437 700 basechar 0
AnchorPoint: "Anchor-0" 304 0 basechar 0
LayerCount: 2
Fore
SplineSet
4 0 m 1,0,-1
 18 68 l 1,1,-1
 600 652 l 1,2,-1
 608 613 l 1,3,-1
 136 613 l 1,4,-1
 154 700 l 1,5,-1
 718 700 l 1,6,-1
 704 632 l 1,7,-1
 122 48 l 1,8,-1
 114 87 l 1,9,-1
 607 87 l 1,10,-1
 589 0 l 1,11,-1
 4 0 l 1,0,-1
129 315 m 1,12,-1
 145 398 l 1,13,-1
 388 398 l 1,14,-1
 414 396 l 1,15,-1
 593 396 l 1,16,-1
 576 313 l 1,17,-1
 348 313 l 1,18,-1
 322 315 l 1,19,-1
 129 315 l 1,12,-1
EndSplineSet
EndChar

StartChar: uni01B2.loclTOD0.ss01
Encoding: 65746 -1 572
Width: 742
GlyphClass: 2
Flags: W
AnchorPoint: "Anchor-3" 453 700 basechar 0
AnchorPoint: "Anchor-0" 313 0 basechar 0
LayerCount: 2
Fore
SplineSet
362 0 m 1,0,-1
 289 51 l 1,1,-1
 712 719 l 2,2,3
 743 767 743 767 774.5 793 c 128,-1,4
 806 819 806 819 837 827.5 c 128,-1,5
 868 836 868 836 896.5 829.5 c 128,-1,6
 925 823 925 823 948 806 c 1,7,-1
 907 735 l 1,8,9
 882 752 882 752 853 741.5 c 128,-1,10
 824 731 824 731 793 683 c 2,11,-1
 362 0 l 1,0,-1
264 0 m 1,12,-1
 96 700 l 1,13,-1
 199 700 l 1,14,-1
 352 54 l 1,15,-1
 362 0 l 1,16,-1
 264 0 l 1,12,-1
EndSplineSet
EndChar

StartChar: T_h
Encoding: 65747 -1 573
Width: 1221
GlyphClass: 3
LigCaretCntFixed: 1
Flags: W
AnchorPoint: "Anchor-8" 398 700 baselig 0
AnchorPoint: "Anchor-6" 328 350 baselig 0
AnchorPoint: "Anchor-5" 258 0 baselig 0
AnchorPoint: "Anchor-8" 998 700 baselig 1
AnchorPoint: "Anchor-5" 858 0 baselig 1
AnchorPoint: "Anchor-6" 928 350 baselig 1
LayerCount: 2
Fore
SplineSet
201 0 m 1,0,-1
 323 613 l 1,1,-1
 84 613 l 1,2,-1
 101 700 l 1,3,-1
 732 700 l 1,4,-1
 714 613 l 1,5,-1
 423 613 l 1,6,-1
 300 0 l 1,7,-1
 201 0 l 1,0,-1
945 535 m 256,8,9
 1016 535 1016 535 1062.5 507 c 128,-1,10
 1109 479 1109 479 1128 425.5 c 128,-1,11
 1147 372 1147 372 1131 297 c 2,12,-1
 1072 0 l 1,13,-1
 976 0 l 1,14,-1
 1035 297 l 2,15,16
 1050 369 1050 369 1021 409 c 128,-1,17
 992 449 992 449 917 449 c 0,18,19
 840 449 840 449 789.5 407.5 c 128,-1,20
 739 366 739 366 721 280 c 2,21,-1
 665 0 l 1,22,-1
 569 0 l 1,23,-1
 709 700 l 1,24,-1
 805 700 l 1,25,-1
 741 378 l 1,26,-1
 719 419 l 1,27,28
 757 479 757 479 815.5 507 c 128,-1,29
 874 535 874 535 945 535 c 256,8,9
EndSplineSet
Ligature2: "'dlig' Discretionary Ligatures lookup 48 subtable" T h
LCarets2: 1 601
EndChar

StartChar: Iacute_J.loclNLD.ss01
Encoding: 65748 -1 574
Width: 740
GlyphClass: 2
LigCaretCntFixed: 1
Flags: W
LayerCount: 2
Fore
SplineSet
282 -106 m 0,0,1
 203 -106 203 -106 142 -85.5 c 128,-1,2
 81 -65 81 -65 38 -33 c 1,3,-1
 88 46 l 1,4,5
 129 16 129 16 179 -0.5 c 128,-1,6
 229 -17 229 -17 285 -17 c 0,7,8
 382 -17 382 -17 438.5 35.5 c 128,-1,9
 495 88 495 88 518 204 c 2,10,-1
 617 700 l 1,11,-1
 716 700 l 1,12,-1
 616 198 l 2,13,14
 585 44 585 44 502 -31 c 128,-1,15
 419 -106 419 -106 282 -106 c 0,0,1
96 209 m 1,16,-1
 195 700 l 1,17,-1
 295 700 l 1,18,-1
 196 209 l 1,19,-1
 96 209 l 1,16,-1
207 757 m 1,20,-1
 370 887 l 1,21,-1
 475 887 l 1,22,-1
 282 757 l 1,23,-1
 207 757 l 1,20,-1
631 757 m 1,24,-1
 794 887 l 1,25,-1
 898 887 l 1,26,-1
 705 757 l 1,27,-1
 631 757 l 1,24,-1
EndSplineSet
LCarets2: 1 360
EndChar

StartChar: uni026A
Encoding: 618 618 575
Width: 375
GlyphClass: 2
Flags: W
AnchorPoint: "Anchor-3" 240 530 basechar 0
AnchorPoint: "Anchor-2" 183 0 basechar 0
AnchorPoint: "Anchor-0" 135 0 basechar 0
LayerCount: 2
Fore
SplineSet
79 451 m 1,0,-1
 95 530 l 1,1,-1
 386 530 l 1,2,-1
 370 451 l 1,3,-1
 79 451 l 1,0,-1
-11 0 m 1,4,-1
 5 79 l 1,5,-1
 296 79 l 1,6,-1
 280 0 l 1,7,-1
 -11 0 l 1,4,-1
87 0 m 1,8,-1
 192 530 l 1,9,-1
 288 530 l 1,10,-1
 183 0 l 1,11,-1
 87 0 l 1,8,-1
EndSplineSet
Substitution2: "'smcp' Lowercase to Small Capitals lookup 46 subtable" uni026A.sc
Substitution2: "'aalt' Access All Alternates lookup 0 subtable" uni026A.sc
EndChar

StartChar: uni1D7B
Encoding: 7547 7547 576
Width: 414
GlyphClass: 2
Flags: W
AnchorPoint: "Anchor-3" 257 530 basechar 0
AnchorPoint: "Anchor-2" 199 0 basechar 0
AnchorPoint: "Anchor-0" 151 0 basechar 0
LayerCount: 2
Fore
SplineSet
96 451 m 1,0,-1
 112 530 l 1,1,-1
 402 530 l 1,2,-1
 387 451 l 1,3,-1
 96 451 l 1,0,-1
6 0 m 1,4,-1
 22 79 l 1,5,-1
 313 79 l 1,6,-1
 297 0 l 1,7,-1
 6 0 l 1,4,-1
103 0 m 1,8,-1
 209 530 l 1,9,-1
 305 530 l 1,10,-1
 199 0 l 1,11,-1
 103 0 l 1,8,-1
55 237 m 1,12,-1
 69 305 l 1,13,-1
 357 305 l 1,14,-1
 343 237 l 1,15,-1
 55 237 l 1,12,-1
EndSplineSet
Substitution2: "'smcp' Lowercase to Small Capitals lookup 46 subtable" uni1D7B.sc
Substitution2: "'aalt' Access All Alternates lookup 0 subtable" uni1D7B.sc
EndChar

StartChar: uni0274
Encoding: 628 628 577
Width: 682
GlyphClass: 2
Flags: W
AnchorPoint: "Anchor-3" 394 530 basechar 0
AnchorPoint: "Anchor-0" 288 0 basechar 0
LayerCount: 2
Fore
SplineSet
37 0 m 1,0,-1
 143 530 l 1,1,-1
 223 530 l 1,2,-1
 497 116 l 1,3,-1
 466 119 l 1,4,-1
 548 530 l 1,5,-1
 644 530 l 1,6,-1
 538 0 l 1,7,-1
 459 0 l 1,8,-1
 184 414 l 1,9,-1
 215 411 l 1,10,-1
 133 0 l 1,11,-1
 37 0 l 1,0,-1
EndSplineSet
Substitution2: "'smcp' Lowercase to Small Capitals lookup 46 subtable" uni0274.sc
Substitution2: "'aalt' Access All Alternates lookup 0 subtable" uni0274.sc
EndChar

StartChar: uni0280
Encoding: 640 640 578
Width: 616
GlyphClass: 2
Flags: W
AnchorPoint: "Anchor-3" 366 530 basechar 0
AnchorPoint: "Anchor-0" 260 0 basechar 0
LayerCount: 2
Fore
SplineSet
37 0 m 1,0,-1
 143 530 l 1,1,-1
 362 530 l 2,2,3
 464 530 464 530 521.5 487.5 c 128,-1,4
 579 445 579 445 579 367 c 0,5,6
 579 301 579 301 546.5 254 c 128,-1,7
 514 207 514 207 453.5 181.5 c 128,-1,8
 393 156 393 156 310 156 c 2,9,-1
 123 156 l 1,10,-1
 174 199 l 1,11,-1
 135 0 l 1,12,-1
 37 0 l 1,0,-1
416 0 m 1,13,-1
 296 192 l 1,14,-1
 399 192 l 1,15,-1
 519 0 l 1,16,-1
 416 0 l 1,13,-1
172 189 m 1,17,-1
 138 235 l 1,18,-1
 314 235 l 2,19,20
 393 235 393 235 437 266.5 c 128,-1,21
 481 298 481 298 481 358 c 0,22,23
 481 405 481 405 447 427 c 128,-1,24
 413 449 413 449 352 449 c 2,25,-1
 183 449 l 1,26,-1
 234 497 l 1,27,-1
 172 189 l 1,17,-1
EndSplineSet
Substitution2: "'smcp' Lowercase to Small Capitals lookup 46 subtable" uni0280.sc
Substitution2: "'aalt' Access All Alternates lookup 0 subtable" uni0280.sc
EndChar

StartChar: a
Encoding: 97 97 580
Width: 702
GlyphClass: 2
Flags: W
AnchorPoint: "Anchor-3" 397 530 basechar 0
AnchorPoint: "Anchor-2" 548 0 basechar 0
AnchorPoint: "Anchor-0" 293 0 basechar 0
LayerCount: 2
Fore
SplineSet
282 -6 m 0,0,1
 215 -6 215 -6 162 21.5 c 128,-1,2
 109 49 109 49 78.5 100 c 128,-1,3
 48 151 48 151 48 223 c 0,4,5
 48 291 48 291 70.5 348 c 128,-1,6
 93 405 93 405 133.5 447 c 128,-1,7
 174 489 174 489 229 512 c 128,-1,8
 284 535 284 535 348 535 c 0,9,10
 417 535 417 535 465 511 c 128,-1,11
 513 487 513 487 539 440.5 c 128,-1,12
 565 394 565 394 565 327 c 0,13,14
 565 229 565 229 531 153.5 c 128,-1,15
 497 78 497 78 433.5 36 c 128,-1,16
 370 -6 370 -6 282 -6 c 0,0,1
303 78 m 0,17,18
 363 78 363 78 410 107 c 128,-1,19
 457 136 457 136 483.5 186.5 c 128,-1,20
 510 237 510 237 510 302 c 0,21,22
 510 372 510 372 469 411.5 c 128,-1,23
 428 451 428 451 352 451 c 0,24,25
 293 451 293 451 246 422.5 c 128,-1,26
 199 394 199 394 172 343.5 c 128,-1,27
 145 293 145 293 145 227 c 0,28,29
 145 158 145 158 186 118 c 128,-1,30
 227 78 227 78 303 78 c 0,17,18
456 0 m 1,31,-1
 484 137 l 1,32,-1
 516 260 l 1,33,-1
 529 386 l 1,34,-1
 557 530 l 1,35,-1
 653 530 l 1,36,-1
 548 0 l 1,37,-1
 456 0 l 1,31,-1
EndSplineSet
Substitution2: "'ss01' Style Set 1 lookup 50 subtable" a.ss01
Substitution2: "'smcp' Lowercase to Small Capitals lookup 46 subtable" a.sc
Substitution2: "Single Substitution lookup 39 subtable" ordfeminine
AlternateSubs2: "'aalt' Access All Alternates lookup 1 subtable" ordfeminine a.sc a.ss01
EndChar

StartChar: uni2C65
Encoding: 11365 11365 611
Width: 702
GlyphClass: 2
Flags: W
AnchorPoint: "Anchor-3" 397 530 basechar 0
AnchorPoint: "Anchor-2" 548 0 basechar 0
AnchorPoint: "Anchor-0" 293 0 basechar 0
LayerCount: 2
Fore
SplineSet
282 -6 m 0,0,1
 215 -6 215 -6 162 21.5 c 128,-1,2
 109 49 109 49 78.5 100 c 128,-1,3
 48 151 48 151 48 223 c 0,4,5
 48 291 48 291 70.5 348 c 128,-1,6
 93 405 93 405 133.5 447 c 128,-1,7
 174 489 174 489 229 512 c 128,-1,8
 284 535 284 535 348 535 c 0,9,10
 417 535 417 535 465 511 c 128,-1,11
 513 487 513 487 539 440.5 c 128,-1,12
 565 394 565 394 565 327 c 0,13,14
 565 229 565 229 531 153.5 c 128,-1,15
 497 78 497 78 433.5 36 c 128,-1,16
 370 -6 370 -6 282 -6 c 0,0,1
303 78 m 0,17,18
 363 78 363 78 410 107 c 128,-1,19
 457 136 457 136 483.5 186.5 c 128,-1,20
 510 237 510 237 510 302 c 0,21,22
 510 372 510 372 469 411.5 c 128,-1,23
 428 451 428 451 352 451 c 0,24,25
 293 451 293 451 246 422.5 c 128,-1,26
 199 394 199 394 172 343.5 c 128,-1,27
 145 293 145 293 145 227 c 0,28,29
 145 158 145 158 186 118 c 128,-1,30
 227 78 227 78 303 78 c 0,17,18
456 0 m 1,31,-1
 484 137 l 1,32,-1
 516 260 l 1,33,-1
 529 386 l 1,34,-1
 557 530 l 1,35,-1
 653 530 l 1,36,-1
 548 0 l 1,37,-1
 456 0 l 1,31,-1
80 -80 m 1,38,-1
 502 609 l 1,39,-1
 567 609 l 1,40,-1
 145 -80 l 1,41,-1
 80 -80 l 1,38,-1
EndSplineSet
Substitution2: "'ss01' Style Set 1 lookup 50 subtable" uni2C65.ss01
Substitution2: "'smcp' Lowercase to Small Capitals lookup 46 subtable" uni2C65.sc
AlternateSubs2: "'aalt' Access All Alternates lookup 1 subtable" uni2C65.sc uni2C65.ss01
EndChar

StartChar: uni0250
Encoding: 592 592 613
Width: 615
GlyphClass: 2
Flags: W
AnchorPoint: "Anchor-3" 333 530 basechar 0
AnchorPoint: "Anchor-0" 227 0 basechar 0
LayerCount: 2
Fore
SplineSet
246 530 m 1,0,-1
 223 418 l 1,1,-1
 223 396 l 1,2,-1
 185 205 l 2,3,4
 173 144 173 144 203.5 111 c 128,-1,5
 234 78 234 78 304 78 c 0,6,7
 350 78 350 78 397.5 93 c 128,-1,8
 445 108 445 108 481 134 c 1,9,-1
 508 63 l 1,10,11
 460 29 460 29 404 11.5 c 128,-1,12
 348 -6 348 -6 286 -6 c 0,13,14
 171 -6 171 -6 120 49.5 c 128,-1,15
 69 105 69 105 90 210 c 2,16,-1
 154 530 l 1,17,-1
 246 530 l 1,0,-1
406 535 m 0,18,19
 468 535 468 535 510.5 513 c 128,-1,20
 553 491 553 491 573 452.5 c 128,-1,21
 593 414 593 414 585 363 c 0,22,23
 574 296 574 296 515.5 260 c 128,-1,24
 457 224 457 224 350 224 c 2,25,-1
 174 224 l 1,26,-1
 187 294 l 1,27,-1
 359 294 l 2,28,29
 420 294 420 294 452 312.5 c 128,-1,30
 484 331 484 331 489 369 c 0,31,32
 495 410 495 410 465.5 435.5 c 128,-1,33
 436 461 436 461 379 461 c 0,34,35
 326 461 326 461 285.5 437 c 128,-1,36
 245 413 245 413 218 367 c 1,37,-1
 212 434 l 1,38,39
 240 482 240 482 290 508.5 c 128,-1,40
 340 535 340 535 406 535 c 0,18,19
EndSplineSet
Substitution2: "'smcp' Lowercase to Small Capitals lookup 46 subtable" uni0250.sc
Substitution2: "'aalt' Access All Alternates lookup 0 subtable" uni0250.sc
EndChar

StartChar: ae
Encoding: 230 230 614
Width: 1009
GlyphClass: 2
Flags: W
AnchorPoint: "Anchor-3" 523 529 basechar 0
AnchorPoint: "Anchor-2" 732 0 basechar 0
LayerCount: 2
Fore
SplineSet
235 -6 m 0,0,1
 172 -6 172 -6 128 12 c 128,-1,2
 84 30 84 30 60.5 63 c 128,-1,3
 37 96 37 96 37 140 c 0,4,5
 37 214 37 214 94.5 259.5 c 128,-1,6
 152 305 152 305 267 305 c 2,7,-1
 440 305 l 1,8,-1
 430 236 l 1,9,-1
 259 236 l 2,10,11
 198 236 198 236 165 212 c 128,-1,12
 132 188 132 188 132 146 c 0,13,14
 132 109 132 109 159.5 88.5 c 128,-1,15
 187 68 187 68 244 68 c 0,16,17
 285 68 285 68 319 82.5 c 128,-1,18
 353 97 353 97 377 126.5 c 128,-1,19
 401 156 401 156 411 201 c 2,20,-1
 435 321 l 2,21,22
 448 384 448 384 418 417.5 c 128,-1,23
 388 451 388 451 315 451 c 0,24,25
 267 451 267 451 220.5 436 c 128,-1,26
 174 421 174 421 141 396 c 1,27,-1
 112 472 l 1,28,29
 141 493 141 493 177.5 507 c 128,-1,30
 214 521 214 521 253 528 c 128,-1,31
 292 535 292 535 330 535 c 0,32,33
 423 535 423 535 472.5 497.5 c 128,-1,34
 522 460 522 460 526 391 c 1,35,-1
 477 397 l 1,36,37
 502 441 502 441 540.5 472 c 128,-1,38
 579 503 579 503 626 519 c 128,-1,39
 673 535 673 535 722 535 c 0,40,41
 794 535 794 535 848 507.5 c 128,-1,42
 902 480 902 480 932 429 c 128,-1,43
 962 378 962 378 962 306 c 0,44,45
 962 288 962 288 960 270 c 128,-1,46
 958 252 958 252 955 236 c 1,47,-1
 493 236 l 1,48,-1
 505 305 l 1,49,-1
 908 305 l 1,50,-1
 867 281 l 1,51,52
 876 337 876 337 859 375.5 c 128,-1,53
 842 414 842 414 805.5 434.5 c 128,-1,54
 769 455 769 455 718 455 c 0,55,56
 660 455 660 455 614 426.5 c 128,-1,57
 568 398 568 398 542.5 347.5 c 128,-1,58
 517 297 517 297 517 229 c 0,59,60
 517 152 517 152 559 115 c 128,-1,61
 601 78 601 78 685 78 c 0,62,63
 738 78 738 78 778.5 94 c 128,-1,64
 819 110 819 110 849 139 c 1,65,-1
 891 70 l 1,66,67
 851 33 851 33 794 13.5 c 128,-1,68
 737 -6 737 -6 676 -6 c 0,69,70
 616 -6 616 -6 565 13.5 c 128,-1,71
 514 33 514 33 480 73 c 128,-1,72
 446 113 446 113 434 175 c 1,73,-1
 489 173 l 1,74,75
 470 106 470 106 430.5 67 c 128,-1,76
 391 28 391 28 341 11 c 128,-1,77
 291 -6 291 -6 235 -6 c 0,0,1
EndSplineSet
Substitution2: "'ss01' Style Set 1 lookup 50 subtable" ae.ss01
Substitution2: "'smcp' Lowercase to Small Capitals lookup 46 subtable" ae.sc
AlternateSubs2: "'aalt' Access All Alternates lookup 1 subtable" ae.sc ae.ss01
EndChar

StartChar: b
Encoding: 98 98 617
Width: 702
GlyphClass: 2
Flags: W
AnchorPoint: "Anchor-3" 439 530 basechar 0
AnchorPoint: "Anchor-0" 308 0 basechar 0
LayerCount: 2
Fore
SplineSet
49 0 m 1,0,-1
 197 742 l 1,1,-1
 293 742 l 1,2,-1
 222 391 l 1,3,-1
 187 270 l 1,4,-1
 172 156 l 1,5,-1
 140 0 l 1,6,-1
 49 0 l 1,0,-1
354 -6 m 0,7,8
 286 -6 286 -6 237.5 18.5 c 128,-1,9
 189 43 189 43 163 89.5 c 128,-1,10
 137 136 137 136 137 202 c 0,11,12
 137 276 137 276 156 337.5 c 128,-1,13
 175 399 175 399 212.5 443 c 128,-1,14
 250 487 250 487 302 511 c 128,-1,15
 354 535 354 535 420 535 c 0,16,17
 488 535 488 535 540.5 508 c 128,-1,18
 593 481 593 481 623.5 429.5 c 128,-1,19
 654 378 654 378 654 307 c 0,20,21
 654 239 654 239 631.5 182 c 128,-1,22
 609 125 609 125 568.5 83 c 128,-1,23
 528 41 528 41 473 17.5 c 128,-1,24
 418 -6 418 -6 354 -6 c 0,7,8
350 78 m 0,25,26
 410 78 410 78 456.5 107 c 128,-1,27
 503 136 503 136 530 186.5 c 128,-1,28
 557 237 557 237 557 302 c 0,29,30
 557 372 557 372 516 411.5 c 128,-1,31
 475 451 475 451 399 451 c 0,32,33
 340 451 340 451 292.5 422.5 c 128,-1,34
 245 394 245 394 218.5 343.5 c 128,-1,35
 192 293 192 293 192 227 c 0,36,37
 192 158 192 158 233 118 c 128,-1,38
 274 78 274 78 350 78 c 0,25,26
EndSplineSet
Substitution2: "'smcp' Lowercase to Small Capitals lookup 46 subtable" b.sc
Substitution2: "'aalt' Access All Alternates lookup 0 subtable" b.sc
EndChar

StartChar: uniA7B5
Encoding: 42933 42933 620
Width: 702
GlyphClass: 1
Flags: W
LayerCount: 2
Fore
SplineSet
10 -194 m 1,0,-1
 153 522 l 2,1,2
 174 631 174 631 245 690.5 c 128,-1,3
 316 750 316 750 423 750 c 0,4,5
 481 750 481 750 526 733.5 c 128,-1,6
 571 717 571 717 601 687 c 128,-1,7
 631 657 631 657 643 617.5 c 128,-1,8
 655 578 655 578 645 531 c 0,9,10
 634 479 634 479 599.5 438 c 128,-1,11
 565 397 565 397 517 376 c 128,-1,12
 469 355 469 355 416 359 c 1,13,-1
 454 395 l 1,14,15
 520 390 520 390 565 360.5 c 128,-1,16
 610 331 610 331 628.5 283 c 128,-1,17
 647 235 647 235 635 175 c 0,18,19
 618 90 618 90 550 41.5 c 128,-1,20
 482 -7 482 -7 381 -7 c 0,21,22
 304 -7 304 -7 236 20.5 c 128,-1,23
 168 48 168 48 127 96 c 1,24,-1
 174 166 l 1,25,26
 197 140 197 140 230 120 c 128,-1,27
 263 100 263 100 302 88.5 c 128,-1,28
 341 77 341 77 380 77 c 0,29,30
 445 77 445 77 487 107.5 c 128,-1,31
 529 138 529 138 539 191 c 0,32,33
 548 234 548 234 531 266.5 c 128,-1,34
 514 299 514 299 476 317 c 128,-1,35
 438 335 438 335 383 335 c 2,36,-1
 348 335 l 1,37,-1
 364 418 l 1,38,-1
 398 418 l 2,39,40
 436 418 436 418 468.5 432.5 c 128,-1,41
 501 447 501 447 523 474 c 128,-1,42
 545 501 545 501 551 536 c 0,43,44
 559 575 559 575 544.5 605 c 128,-1,45
 530 635 530 635 497 652 c 128,-1,46
 464 669 464 669 417 669 c 0,47,48
 348 669 348 669 306 631.5 c 128,-1,49
 264 594 264 594 249 522 c 2,50,-1
 106 -194 l 1,51,-1
 10 -194 l 1,0,-1
EndSplineSet
Substitution2: "'smcp' Lowercase to Small Capitals lookup 46 subtable" uniA7B5.sc
Substitution2: "'aalt' Access All Alternates lookup 0 subtable" uniA7B5.sc
EndChar

StartChar: uni0253
Encoding: 595 595 621
Width: 704
GlyphClass: 1
Flags: W
LayerCount: 2
Fore
SplineSet
51 0 m 1,0,-1
 166 577 l 2,1,2
 178 633 178 633 204.5 670.5 c 128,-1,3
 231 708 231 708 273.5 728 c 128,-1,4
 316 748 316 748 370 748 c 0,5,6
 415 748 415 748 453 735.5 c 128,-1,7
 491 723 491 723 518 699 c 1,8,-1
 475 626 l 1,9,10
 454 646 454 646 425.5 657 c 128,-1,11
 397 668 397 668 365 668 c 0,12,13
 324 668 324 668 297 644 c 128,-1,14
 270 620 270 620 262 576 c 2,15,-1
 224 389 l 1,16,-1
 189 266 l 1,17,-1
 171 143 l 1,18,-1
 142 0 l 1,19,-1
 51 0 l 1,0,-1
356 -6 m 0,20,21
 253 -6 253 -6 196 49 c 128,-1,22
 139 104 139 104 139 202 c 0,23,24
 139 303 139 303 173.5 377.5 c 128,-1,25
 208 452 208 452 272 493.5 c 128,-1,26
 336 535 336 535 422 535 c 0,27,28
 492 535 492 535 545 506.5 c 128,-1,29
 598 478 598 478 627 427 c 128,-1,30
 656 376 656 376 656 307 c 0,31,32
 656 240 656 240 633.5 183 c 128,-1,33
 611 126 611 126 571 83.5 c 128,-1,34
 531 41 531 41 476 17.5 c 128,-1,35
 421 -6 421 -6 356 -6 c 0,20,21
352 78 m 0,36,37
 412 78 412 78 458.5 107 c 128,-1,38
 505 136 505 136 532 187 c 128,-1,39
 559 238 559 238 559 302 c 0,40,41
 559 373 559 373 517.5 412 c 128,-1,42
 476 451 476 451 401 451 c 0,43,44
 341 451 341 451 294.5 422.5 c 128,-1,45
 248 394 248 394 221 343.5 c 128,-1,46
 194 293 194 293 194 227 c 0,47,48
 194 157 194 157 235.5 117.5 c 128,-1,49
 277 78 277 78 352 78 c 0,36,37
EndSplineSet
Substitution2: "'smcp' Lowercase to Small Capitals lookup 46 subtable" uni0253.sc
Substitution2: "'aalt' Access All Alternates lookup 0 subtable" uni0253.sc
EndChar

StartChar: uni0298
Encoding: 664 664 622
Width: 860
GlyphClass: 2
Flags: W
AnchorPoint: "Anchor-4" 735 700 basechar 0
AnchorPoint: "Anchor-3" 444 368 basechar 0
AnchorPoint: "Anchor-2" 455 0 basechar 0
AnchorPoint: "Anchor-1" 447 350 basechar 0
AnchorPoint: "Anchor-0" 377 0 basechar 0
LayerCount: 2
Fore
SplineSet
399 -8 m 0,0,1
 295 -8 295 -8 221 29 c 128,-1,2
 147 66 147 66 108.5 132.5 c 128,-1,3
 70 199 70 199 70 287 c 0,4,5
 70 374 70 374 100 450.5 c 128,-1,6
 130 527 130 527 186 585 c 128,-1,7
 242 643 242 643 320 675.5 c 128,-1,8
 398 708 398 708 495 708 c 0,9,10
 600 708 600 708 674 671 c 128,-1,11
 748 634 748 634 786.5 567.5 c 128,-1,12
 825 501 825 501 825 413 c 0,13,14
 825 326 825 326 795 249.5 c 128,-1,15
 765 173 765 173 709 115 c 128,-1,16
 653 57 653 57 574.5 24.5 c 128,-1,17
 496 -8 496 -8 399 -8 c 0,0,1
408 81 m 0,18,19
 480 81 480 81 539 106.5 c 128,-1,20
 598 132 598 132 639 177.5 c 128,-1,21
 680 223 680 223 702 282 c 128,-1,22
 724 341 724 341 724 407 c 0,23,24
 724 470 724 470 697 517.5 c 128,-1,25
 670 565 670 565 617 592 c 128,-1,26
 564 619 564 619 487 619 c 0,27,28
 414 619 414 619 355.5 593.5 c 128,-1,29
 297 568 297 568 255.5 522.5 c 128,-1,30
 214 477 214 477 192 418 c 128,-1,31
 170 359 170 359 170 293 c 0,32,33
 170 230 170 230 197.5 182.5 c 128,-1,34
 225 135 225 135 277.5 108 c 128,-1,35
 330 81 330 81 408 81 c 0,18,19
437 281 m 0,36,37
 410 281 410 281 392 297.5 c 128,-1,38
 374 314 374 314 374 340 c 0,39,40
 374 373 374 373 395 394.5 c 128,-1,41
 416 416 416 416 446 416 c 0,42,43
 474 416 474 416 491 398.5 c 128,-1,44
 508 381 508 381 508 355 c 0,45,46
 508 322 508 322 487.5 301.5 c 128,-1,47
 467 281 467 281 437 281 c 0,36,37
EndSplineSet
Substitution2: "'smcp' Lowercase to Small Capitals lookup 46 subtable" uni0298.sc
Substitution2: "'aalt' Access All Alternates lookup 0 subtable" uni0298.sc
EndChar

StartChar: uni0180
Encoding: 384 384 624
Width: 710
GlyphClass: 2
Flags: W
AnchorPoint: "Anchor-3" 419 530 basechar 0
AnchorPoint: "Anchor-1" 359 265 basechar 0
AnchorPoint: "Anchor-0" 306 0 basechar 0
LayerCount: 2
Fore
SplineSet
57 0 m 1,0,-1
 205 742 l 1,1,-1
 301 742 l 1,2,-1
 231 391 l 1,3,-1
 195 270 l 1,4,-1
 180 156 l 1,5,-1
 149 0 l 1,6,-1
 57 0 l 1,0,-1
362 -6 m 0,7,8
 294 -6 294 -6 245.5 18.5 c 128,-1,9
 197 43 197 43 171 89.5 c 128,-1,10
 145 136 145 136 145 202 c 0,11,12
 145 276 145 276 164 337.5 c 128,-1,13
 183 399 183 399 220.5 443 c 128,-1,14
 258 487 258 487 310 511 c 128,-1,15
 362 535 362 535 428 535 c 0,16,17
 496 535 496 535 548.5 508 c 128,-1,18
 601 481 601 481 631.5 429.5 c 128,-1,19
 662 378 662 378 662 307 c 0,20,21
 662 239 662 239 639.5 182 c 128,-1,22
 617 125 617 125 576.5 83 c 128,-1,23
 536 41 536 41 481.5 17.5 c 128,-1,24
 427 -6 427 -6 362 -6 c 0,7,8
358 78 m 0,25,26
 418 78 418 78 464.5 107 c 128,-1,27
 511 136 511 136 538 186.5 c 128,-1,28
 565 237 565 237 565 302 c 0,29,30
 565 372 565 372 524 411.5 c 128,-1,31
 483 451 483 451 407 451 c 0,32,33
 348 451 348 451 301 422.5 c 128,-1,34
 254 394 254 394 227 343.5 c 128,-1,35
 200 293 200 293 200 227 c 0,36,37
 200 158 200 158 241 118 c 128,-1,38
 282 78 282 78 358 78 c 0,25,26
81 601 m 1,39,-1
 94 669 l 1,40,-1
 460 669 l 1,41,-1
 447 601 l 1,42,-1
 81 601 l 1,39,-1
EndSplineSet
Substitution2: "'smcp' Lowercase to Small Capitals lookup 46 subtable" uni0180.sc
Substitution2: "'aalt' Access All Alternates lookup 0 subtable" uni0180.sc
EndChar

StartChar: uni0183
Encoding: 387 387 625
Width: 708
GlyphClass: 1
Flags: W
LayerCount: 2
Fore
SplineSet
50 0 m 1,0,-1
 198 742 l 1,1,-1
 294 742 l 1,2,-1
 223 390 l 1,3,-1
 189 268 l 1,4,-1
 173 156 l 1,5,-1
 141 0 l 1,6,-1
 50 0 l 1,0,-1
352 -6 m 0,7,8
 285 -6 285 -6 235.5 19.5 c 128,-1,9
 186 45 186 45 161 93.5 c 128,-1,10
 136 142 136 142 138 211 c 0,11,12
 140 283 140 283 160.5 343 c 128,-1,13
 181 403 181 403 218.5 446 c 128,-1,14
 256 489 256 489 307.5 512 c 128,-1,15
 359 535 359 535 423 535 c 0,16,17
 492 535 492 535 545 506.5 c 128,-1,18
 598 478 598 478 627.5 425 c 128,-1,19
 657 372 657 372 654 299 c 0,20,21
 653 232 653 232 629.5 176.5 c 128,-1,22
 606 121 606 121 565 80 c 128,-1,23
 524 39 524 39 469.5 16.5 c 128,-1,24
 415 -6 415 -6 352 -6 c 0,7,8
349 78 m 0,25,26
 407 78 407 78 453 106 c 128,-1,27
 499 134 499 134 527 182.5 c 128,-1,28
 555 231 555 231 557 294 c 0,29,30
 560 343 560 343 542 378 c 128,-1,31
 524 413 524 413 488.5 432 c 128,-1,32
 453 451 453 451 402 451 c 0,33,34
 345 451 345 451 298.5 423.5 c 128,-1,35
 252 396 252 396 224 347.5 c 128,-1,36
 196 299 196 299 193 235 c 0,37,38
 191 187 191 187 209 152 c 128,-1,39
 227 117 227 117 262.5 97.5 c 128,-1,40
 298 78 298 78 349 78 c 0,25,26
230 663 m 1,41,-1
 198 742 l 1,42,-1
 625 742 l 1,43,-1
 610 663 l 1,44,-1
 230 663 l 1,41,-1
EndSplineSet
Substitution2: "'smcp' Lowercase to Small Capitals lookup 46 subtable" uni0183.sc
Substitution2: "'aalt' Access All Alternates lookup 0 subtable" uni0183.sc
EndChar

StartChar: c
Encoding: 99 99 626
Width: 591
GlyphClass: 2
Flags: W
AnchorPoint: "Anchor-3" 365 530 basechar 0
AnchorPoint: "Anchor-0" 287 0 basechar 0
LayerCount: 2
Fore
SplineSet
300 -6 m 0,0,1
 223 -6 223 -6 166.5 22.5 c 128,-1,2
 110 51 110 51 79 102.5 c 128,-1,3
 48 154 48 154 48 223 c 0,4,5
 48 313 48 313 88 383.5 c 128,-1,6
 128 454 128 454 199 494.5 c 128,-1,7
 270 535 270 535 360 535 c 0,8,9
 437 535 437 535 492 506.5 c 128,-1,10
 547 478 547 478 578 420 c 1,11,-1
 497 375 l 1,12,13
 477 414 477 414 440.5 432.5 c 128,-1,14
 404 451 404 451 353 451 c 0,15,16
 293 451 293 451 246 422.5 c 128,-1,17
 199 394 199 394 172 343.5 c 128,-1,18
 145 293 145 293 145 227 c 0,19,20
 145 158 145 158 186.5 118 c 128,-1,21
 228 78 228 78 304 78 c 0,22,23
 351 78 351 78 392.5 97 c 128,-1,24
 434 116 434 116 462 153 c 1,25,-1
 532 103 l 1,26,27
 496 52 496 52 434 23 c 128,-1,28
 372 -6 372 -6 300 -6 c 0,0,1
EndSplineSet
Substitution2: "'smcp' Lowercase to Small Capitals lookup 46 subtable" c.sc
Substitution2: "'aalt' Access All Alternates lookup 0 subtable" c.sc
EndChar

StartChar: uniA793
Encoding: 42899 42899 628
Width: 649
GlyphClass: 2
Flags: W
AnchorPoint: "Anchor-3" 423 530 basechar 0
AnchorPoint: "Anchor-0" 345 0 basechar 0
LayerCount: 2
Fore
SplineSet
358 -6 m 0,0,1
 281 -6 281 -6 224.5 22.5 c 128,-1,2
 168 51 168 51 137 102.5 c 128,-1,3
 106 154 106 154 106 223 c 0,4,5
 106 313 106 313 146 383.5 c 128,-1,6
 186 454 186 454 257 494.5 c 128,-1,7
 328 535 328 535 418 535 c 0,8,9
 495 535 495 535 550 506.5 c 128,-1,10
 605 478 605 478 636 420 c 1,11,-1
 555 375 l 1,12,13
 535 414 535 414 498.5 432.5 c 128,-1,14
 462 451 462 451 411 451 c 0,15,16
 351 451 351 451 304 422.5 c 128,-1,17
 257 394 257 394 230 343.5 c 128,-1,18
 203 293 203 293 203 227 c 0,19,20
 203 158 203 158 244.5 118 c 128,-1,21
 286 78 286 78 362 78 c 0,22,23
 409 78 409 78 450.5 97 c 128,-1,24
 492 116 492 116 520 153 c 1,25,-1
 590 103 l 1,26,27
 554 52 554 52 492 23 c 128,-1,28
 430 -6 430 -6 358 -6 c 0,0,1
8 237 m 1,29,-1
 23 305 l 1,30,-1
 370 305 l 1,31,-1
 356 237 l 1,32,-1
 8 237 l 1,29,-1
EndSplineSet
Substitution2: "'smcp' Lowercase to Small Capitals lookup 46 subtable" uniA793.sc
Substitution2: "'aalt' Access All Alternates lookup 0 subtable" uniA793.sc
EndChar

StartChar: uniAB53
Encoding: 43859 43859 634
Width: 570
GlyphClass: 1
Flags: W
LayerCount: 2
Fore
SplineSet
569 -142 m 1,0,1
 546 -174 546 -174 511.5 -189 c 128,-1,2
 477 -204 477 -204 442 -201.5 c 128,-1,3
 407 -199 407 -199 379 -179.5 c 128,-1,4
 351 -160 351 -160 340 -124 c 2,5,-1
 262 129 l 1,6,-1
 242 169 l 1,7,-1
 160 418 l 2,8,9
 152 444 152 444 135.5 452.5 c 128,-1,10
 119 461 119 461 98 454.5 c 128,-1,11
 77 448 77 448 57 427 c 1,12,-1
 12 476 l 1,13,14
 36 508 36 508 69.5 523 c 128,-1,15
 103 538 103 538 136.5 535.5 c 128,-1,16
 170 533 170 533 197 514 c 128,-1,17
 224 495 224 495 236 458 c 2,18,-1
 305 242 l 1,19,-1
 324 205 l 1,20,-1
 417 -84 l 2,21,22
 425 -109 425 -109 443 -118 c 128,-1,23
 461 -127 461 -127 483 -120 c 128,-1,24
 505 -113 505 -113 525 -92 c 1,25,-1
 569 -142 l 1,0,1
-55 -194 m 1,26,-1
 262 217 l 1,27,-1
 273 219 l 1,28,-1
 509 530 l 1,29,-1
 613 530 l 1,30,-1
 315 154 l 1,31,-1
 303 148 l 1,32,-1
 47 -194 l 1,33,-1
 -55 -194 l 1,26,-1
EndSplineSet
Substitution2: "'smcp' Lowercase to Small Capitals lookup 46 subtable" uniAB53.sc
Substitution2: "'aalt' Access All Alternates lookup 0 subtable" uniAB53.sc
EndChar

StartChar: uni0188
Encoding: 392 392 635
Width: 595
GlyphClass: 2
Flags: W
AnchorPoint: "Anchor-3" 365 530 basechar 0
AnchorPoint: "Anchor-0" 256 0 basechar 0
LayerCount: 2
Fore
SplineSet
300 -6 m 0,0,1
 223 -6 223 -6 166.5 22.5 c 128,-1,2
 110 51 110 51 79 102.5 c 128,-1,3
 48 154 48 154 48 223 c 0,4,5
 48 313 48 313 88 383.5 c 128,-1,6
 128 454 128 454 199 494.5 c 128,-1,7
 270 535 270 535 360 535 c 0,8,9
 437 535 437 535 492 506.5 c 128,-1,10
 547 478 547 478 578 420 c 1,11,-1
 497 375 l 1,12,13
 477 414 477 414 440.5 432.5 c 128,-1,14
 404 451 404 451 353 451 c 0,15,16
 293 451 293 451 246 422.5 c 128,-1,17
 199 394 199 394 172 343.5 c 128,-1,18
 145 293 145 293 145 227 c 0,19,20
 145 158 145 158 186.5 118 c 128,-1,21
 228 78 228 78 304 78 c 0,22,23
 351 78 351 78 392.5 97 c 128,-1,24
 434 116 434 116 462 153 c 1,25,-1
 532 103 l 1,26,27
 496 52 496 52 434 23 c 128,-1,28
 372 -6 372 -6 300 -6 c 0,0,1
487 420 m 1,29,-1
 522 595 l 2,30,31
 531 640 531 640 556 673 c 128,-1,32
 581 706 581 706 615 725 c 128,-1,33
 649 744 649 744 687.5 747.5 c 128,-1,34
 726 751 726 751 761 738 c 1,35,-1
 737 661 l 1,36,37
 708 671 708 671 682 663.5 c 128,-1,38
 656 656 656 656 637 633.5 c 128,-1,39
 618 611 618 611 610 575 c 2,40,-1
 578 420 l 1,41,-1
 487 420 l 1,29,-1
EndSplineSet
Substitution2: "'smcp' Lowercase to Small Capitals lookup 46 subtable" uni0188.sc
Substitution2: "'aalt' Access All Alternates lookup 0 subtable" uni0188.sc
EndChar

StartChar: uni023C
Encoding: 572 572 637
Width: 591
GlyphClass: 2
Flags: W
AnchorPoint: "Anchor-3" 365 530 basechar 0
AnchorPoint: "Anchor-0" 287 0 basechar 0
LayerCount: 2
Fore
SplineSet
300 -6 m 0,0,1
 223 -6 223 -6 166.5 22.5 c 128,-1,2
 110 51 110 51 79 102.5 c 128,-1,3
 48 154 48 154 48 223 c 0,4,5
 48 313 48 313 88 383.5 c 128,-1,6
 128 454 128 454 199 494.5 c 128,-1,7
 270 535 270 535 360 535 c 0,8,9
 437 535 437 535 492 506.5 c 128,-1,10
 547 478 547 478 578 420 c 1,11,-1
 497 375 l 1,12,13
 477 414 477 414 440.5 432.5 c 128,-1,14
 404 451 404 451 353 451 c 0,15,16
 293 451 293 451 246 422.5 c 128,-1,17
 199 394 199 394 172 343.5 c 128,-1,18
 145 293 145 293 145 227 c 0,19,20
 145 158 145 158 186.5 118 c 128,-1,21
 228 78 228 78 304 78 c 0,22,23
 351 78 351 78 392.5 97 c 128,-1,24
 434 116 434 116 462 153 c 1,25,-1
 532 103 l 1,26,27
 496 52 496 52 434 23 c 128,-1,28
 372 -6 372 -6 300 -6 c 0,0,1
79 -80 m 1,29,-1
 500 609 l 1,30,-1
 565 609 l 1,31,-1
 144 -80 l 1,32,-1
 79 -80 l 1,29,-1
EndSplineSet
Substitution2: "'smcp' Lowercase to Small Capitals lookup 46 subtable" uni023C.sc
Substitution2: "'aalt' Access All Alternates lookup 0 subtable" uni023C.sc
EndChar

StartChar: d
Encoding: 100 100 638
Width: 702
GlyphClass: 2
Flags: W
AnchorPoint: "Anchor-4" 785 742 basechar 0
AnchorPoint: "Anchor-3" 367 530 basechar 0
AnchorPoint: "Anchor-1" 567 634 basechar 0
AnchorPoint: "Anchor-0" 302 0 basechar 0
LayerCount: 2
Fore
SplineSet
282 -6 m 0,0,1
 215 -6 215 -6 162 21.5 c 128,-1,2
 109 49 109 49 78.5 100 c 128,-1,3
 48 151 48 151 48 223 c 0,4,5
 48 291 48 291 70.5 348 c 128,-1,6
 93 405 93 405 133.5 447 c 128,-1,7
 174 489 174 489 229 512 c 128,-1,8
 284 535 284 535 348 535 c 0,9,10
 417 535 417 535 465 511 c 128,-1,11
 513 487 513 487 539 440.5 c 128,-1,12
 565 394 565 394 565 327 c 0,13,14
 565 253 565 253 546 192 c 128,-1,15
 527 131 527 131 489.5 86.5 c 128,-1,16
 452 42 452 42 400 18 c 128,-1,17
 348 -6 348 -6 282 -6 c 0,0,1
303 78 m 0,18,19
 363 78 363 78 410 107 c 128,-1,20
 457 136 457 136 483.5 186.5 c 128,-1,21
 510 237 510 237 510 302 c 0,22,23
 510 372 510 372 469 411.5 c 128,-1,24
 428 451 428 451 352 451 c 0,25,26
 293 451 293 451 246 422.5 c 128,-1,27
 199 394 199 394 172 343.5 c 128,-1,28
 145 293 145 293 145 227 c 0,29,30
 145 158 145 158 186 118 c 128,-1,31
 227 78 227 78 303 78 c 0,18,19
456 0 m 1,32,-1
 484 137 l 1,33,-1
 515 260 l 1,34,-1
 529 386 l 1,35,-1
 600 742 l 1,36,-1
 696 742 l 1,37,-1
 548 0 l 1,38,-1
 456 0 l 1,32,-1
EndSplineSet
Substitution2: "'ss01' Style Set 1 lookup 50 subtable" d.ss01
Substitution2: "'smcp' Lowercase to Small Capitals lookup 46 subtable" d.sc
AlternateSubs2: "'aalt' Access All Alternates lookup 1 subtable" d.sc d.ss01
EndChar

StartChar: uni0257
Encoding: 599 599 645
Width: 681
GlyphClass: 2
Flags: W
AnchorPoint: "Anchor-4" 786 742 basechar 0
AnchorPoint: "Anchor-1" 568 634 basechar 0
AnchorPoint: "Anchor-0" 304 0 basechar 0
LayerCount: 2
Fore
SplineSet
282 -6 m 0,0,1
 215 -6 215 -6 162 21.5 c 128,-1,2
 109 49 109 49 78.5 100 c 128,-1,3
 48 151 48 151 48 223 c 0,4,5
 48 291 48 291 70.5 348 c 128,-1,6
 93 405 93 405 133.5 447 c 128,-1,7
 174 489 174 489 229 512 c 128,-1,8
 284 535 284 535 348 535 c 0,9,10
 417 535 417 535 465 511 c 128,-1,11
 513 487 513 487 539 440.5 c 128,-1,12
 565 394 565 394 565 327 c 0,13,14
 565 253 565 253 546 192 c 128,-1,15
 527 131 527 131 489.5 86.5 c 128,-1,16
 452 42 452 42 400 18 c 128,-1,17
 348 -6 348 -6 282 -6 c 0,0,1
303 78 m 0,18,19
 363 78 363 78 410 107 c 128,-1,20
 457 136 457 136 483.5 186.5 c 128,-1,21
 510 237 510 237 510 302 c 0,22,23
 510 372 510 372 469 411.5 c 128,-1,24
 428 451 428 451 352 451 c 0,25,26
 293 451 293 451 246 422.5 c 128,-1,27
 199 394 199 394 172 343.5 c 128,-1,28
 145 293 145 293 145 227 c 0,29,30
 145 158 145 158 186 118 c 128,-1,31
 227 78 227 78 303 78 c 0,18,19
456 0 m 1,32,-1
 485 143 l 1,33,-1
 515 266 l 1,34,-1
 530 389 l 1,35,-1
 571 595 l 2,36,37
 579 641 579 641 605 673.5 c 128,-1,38
 631 706 631 706 666 725 c 128,-1,39
 701 744 701 744 740 747.5 c 128,-1,40
 779 751 779 751 814 737 c 1,41,-1
 790 661 l 1,42,43
 761 671 761 671 735 663.5 c 128,-1,44
 709 656 709 656 690 634 c 128,-1,45
 671 612 671 612 663 576 c 2,46,-1
 548 0 l 1,47,-1
 456 0 l 1,32,-1
EndSplineSet
Substitution2: "'ss01' Style Set 1 lookup 50 subtable" uni0257.ss01
Substitution2: "'smcp' Lowercase to Small Capitals lookup 46 subtable" uni0257.sc
AlternateSubs2: "'aalt' Access All Alternates lookup 1 subtable" uni0257.sc uni0257.ss01
EndChar

StartChar: uni1D91
Encoding: 7569 7569 646
Width: 698
GlyphClass: 2
Flags: W
AnchorPoint: "Anchor-4" 786 742 basechar 0
AnchorPoint: "Anchor-1" 568 634 basechar 0
AnchorPoint: "Anchor-0" 304 0 basechar 0
LayerCount: 2
Fore
SplineSet
645 -186 m 1,0,1
 600 -201 600 -201 559.5 -198.5 c 128,-1,2
 519 -196 519 -196 489.5 -178 c 128,-1,3
 460 -160 460 -160 447.5 -124.5 c 128,-1,4
 435 -89 435 -89 445 -37 c 2,5,-1
 479 141 l 1,6,-1
 514 265 l 1,7,-1
 529 389 l 1,8,-1
 571 595 l 2,9,10
 579 640 579 640 605 673 c 128,-1,11
 631 706 631 706 666 725 c 128,-1,12
 701 744 701 744 740 747.5 c 128,-1,13
 779 751 779 751 814 738 c 1,14,-1
 790 661 l 1,15,16
 761 671 761 671 734.5 663.5 c 128,-1,17
 708 656 708 656 689 633.5 c 128,-1,18
 670 611 670 611 663 575 c 2,19,-1
 541 -37 l 2,20,21
 530 -88 530 -88 560.5 -108 c 128,-1,22
 591 -128 591 -128 641 -110 c 1,23,-1
 645 -186 l 1,0,1
282 -6 m 0,24,25
 215 -6 215 -6 162 21.5 c 128,-1,26
 109 49 109 49 78.5 100 c 128,-1,27
 48 151 48 151 48 223 c 0,28,29
 48 291 48 291 70.5 348 c 128,-1,30
 93 405 93 405 133.5 447 c 128,-1,31
 174 489 174 489 229 512 c 128,-1,32
 284 535 284 535 348 535 c 0,33,34
 417 535 417 535 465 511 c 128,-1,35
 513 487 513 487 539 440.5 c 128,-1,36
 565 394 565 394 565 327 c 0,37,38
 565 253 565 253 546 192 c 128,-1,39
 527 131 527 131 489.5 86.5 c 128,-1,40
 452 42 452 42 400 18 c 128,-1,41
 348 -6 348 -6 282 -6 c 0,24,25
303 78 m 0,42,43
 363 78 363 78 410 107 c 128,-1,44
 457 136 457 136 483.5 186.5 c 128,-1,45
 510 237 510 237 510 302 c 0,46,47
 510 372 510 372 469 411.5 c 128,-1,48
 428 451 428 451 352 451 c 0,49,50
 293 451 293 451 246 422.5 c 128,-1,51
 199 394 199 394 172 343.5 c 128,-1,52
 145 293 145 293 145 227 c 0,53,54
 145 158 145 158 186 118 c 128,-1,55
 227 78 227 78 303 78 c 0,42,43
EndSplineSet
Substitution2: "'smcp' Lowercase to Small Capitals lookup 46 subtable" uni1D91.sc
Substitution2: "'aalt' Access All Alternates lookup 0 subtable" uni1D91.sc
EndChar

StartChar: uni0256
Encoding: 598 598 648
Width: 698
GlyphClass: 2
Flags: W
AnchorPoint: "Anchor-3" 407 530 basechar 0
AnchorPoint: "Anchor-0" 301 0 basechar 0
LayerCount: 2
Fore
SplineSet
282 -6 m 0,0,1
 215 -6 215 -6 162 21.5 c 128,-1,2
 109 49 109 49 78.5 100 c 128,-1,3
 48 151 48 151 48 223 c 0,4,5
 48 291 48 291 70.5 348 c 128,-1,6
 93 405 93 405 133.5 447 c 128,-1,7
 174 489 174 489 229 512 c 128,-1,8
 284 535 284 535 348 535 c 0,9,10
 417 535 417 535 465 511 c 128,-1,11
 513 487 513 487 539 440.5 c 128,-1,12
 565 394 565 394 565 327 c 0,13,14
 565 229 565 229 531 153.5 c 128,-1,15
 497 78 497 78 433.5 36 c 128,-1,16
 370 -6 370 -6 282 -6 c 0,0,1
303 78 m 0,17,18
 363 78 363 78 410 107 c 128,-1,19
 457 136 457 136 483.5 186.5 c 128,-1,20
 510 237 510 237 510 302 c 0,21,22
 510 372 510 372 469 411.5 c 128,-1,23
 428 451 428 451 352 451 c 0,24,25
 293 451 293 451 246 422.5 c 128,-1,26
 199 394 199 394 172 343.5 c 128,-1,27
 145 293 145 293 145 227 c 0,28,29
 145 158 145 158 186 118 c 128,-1,30
 227 78 227 78 303 78 c 0,17,18
645 -186 m 1,31,32
 600 -201 600 -201 560 -198.5 c 128,-1,33
 520 -196 520 -196 490 -178 c 128,-1,34
 460 -160 460 -160 447.5 -124.5 c 128,-1,35
 435 -89 435 -89 445 -37 c 2,36,-1
 480 141 l 1,37,-1
 515 264 l 1,38,-1
 533 387 l 1,39,-1
 604 742 l 1,40,-1
 696 742 l 1,41,-1
 541 -37 l 2,42,43
 530 -88 530 -88 560.5 -108 c 128,-1,44
 591 -128 591 -128 642 -110 c 1,45,-1
 645 -186 l 1,31,32
EndSplineSet
Substitution2: "'smcp' Lowercase to Small Capitals lookup 46 subtable" uni0256.sc
Substitution2: "'aalt' Access All Alternates lookup 0 subtable" uni0256.sc
EndChar

StartChar: uni018C
Encoding: 396 396 649
Width: 704
GlyphClass: 2
Flags: W
AnchorPoint: "Anchor-4" 786 742 basechar 0
AnchorPoint: "Anchor-3" 401 530 basechar 0
AnchorPoint: "Anchor-0" 304 0 basechar 0
LayerCount: 2
Fore
SplineSet
253 663 m 1,0,-1
 268 742 l 1,1,-1
 696 742 l 1,2,-1
 631 663 l 1,3,-1
 253 663 l 1,0,-1
282 -6 m 0,4,5
 215 -6 215 -6 162 21.5 c 128,-1,6
 109 49 109 49 78.5 100 c 128,-1,7
 48 151 48 151 48 223 c 0,8,9
 48 291 48 291 70.5 348 c 128,-1,10
 93 405 93 405 133.5 447 c 128,-1,11
 174 489 174 489 229 512 c 128,-1,12
 284 535 284 535 348 535 c 0,13,14
 417 535 417 535 465 511 c 128,-1,15
 513 487 513 487 539 440.5 c 128,-1,16
 565 394 565 394 565 327 c 0,17,18
 565 253 565 253 546 192 c 128,-1,19
 527 131 527 131 489.5 86.5 c 128,-1,20
 452 42 452 42 400 18 c 128,-1,21
 348 -6 348 -6 282 -6 c 0,4,5
303 78 m 0,22,23
 363 78 363 78 410 107 c 128,-1,24
 457 136 457 136 483.5 186.5 c 128,-1,25
 510 237 510 237 510 302 c 0,26,27
 510 372 510 372 469 411.5 c 128,-1,28
 428 451 428 451 352 451 c 0,29,30
 293 451 293 451 246 422.5 c 128,-1,31
 199 394 199 394 172 343.5 c 128,-1,32
 145 293 145 293 145 227 c 0,33,34
 145 158 145 158 186 118 c 128,-1,35
 227 78 227 78 303 78 c 0,22,23
456 0 m 1,36,-1
 484 137 l 1,37,-1
 515 260 l 1,38,-1
 529 386 l 1,39,-1
 600 742 l 1,40,-1
 696 742 l 1,41,-1
 548 0 l 1,42,-1
 456 0 l 1,36,-1
EndSplineSet
Substitution2: "'ss01' Style Set 1 lookup 50 subtable" uni018C.ss01
Substitution2: "'smcp' Lowercase to Small Capitals lookup 46 subtable" uni018C.sc
AlternateSubs2: "'aalt' Access All Alternates lookup 1 subtable" uni018C.sc uni018C.ss01
EndChar

StartChar: eth
Encoding: 240 240 652
Width: 610
GlyphClass: 1
Flags: W
LayerCount: 2
Fore
SplineSet
272 -3 m 0,0,1
 168 -3 168 -3 105.5 51.5 c 128,-1,2
 43 106 43 106 43 199 c 0,3,4
 43 272 43 272 74 326.5 c 128,-1,5
 105 381 105 381 160.5 412 c 128,-1,6
 216 443 216 443 288 443 c 0,7,8
 350 443 350 443 400.5 417 c 128,-1,9
 451 391 451 391 471 347 c 1,10,11
 461 414 461 414 424 480.5 c 128,-1,12
 387 547 387 547 329 605 c 128,-1,13
 271 663 271 663 198 705 c 1,14,-1
 267 747 l 1,15,16
 359 697 359 697 425 625.5 c 128,-1,17
 491 554 491 554 526.5 471 c 128,-1,18
 562 388 562 388 562 300 c 0,19,20
 562 208 562 208 526 140 c 128,-1,21
 490 72 490 72 425 34.5 c 128,-1,22
 360 -3 360 -3 272 -3 c 0,0,1
276 76 m 0,23,24
 327 76 327 76 366 97 c 128,-1,25
 405 118 405 118 426.5 155.5 c 128,-1,26
 448 193 448 193 448 241 c 0,27,28
 448 299 448 299 410.5 333 c 128,-1,29
 373 367 373 367 306 367 c 0,30,31
 257 367 257 367 219 346 c 128,-1,32
 181 325 181 325 158.5 287 c 128,-1,33
 136 249 136 249 136 201 c 0,34,35
 136 144 136 144 173.5 110 c 128,-1,36
 211 76 211 76 276 76 c 0,23,24
172 494 m 1,37,-1
 151 544 l 1,38,-1
 551 712 l 1,39,-1
 573 662 l 1,40,-1
 172 494 l 1,37,-1
EndSplineSet
Substitution2: "'smcp' Lowercase to Small Capitals lookup 46 subtable" eth.sc
Substitution2: "'aalt' Access All Alternates lookup 0 subtable" eth.sc
EndChar

StartChar: e
Encoding: 101 101 653
Width: 631
GlyphClass: 2
Flags: W
AnchorPoint: "Anchor-3" 363 529 basechar 0
AnchorPoint: "Anchor-2" 460 0 basechar 0
AnchorPoint: "Anchor-0" 291 0 basechar 0
LayerCount: 2
Fore
SplineSet
302 -6 m 0,0,1
 224 -6 224 -6 167 22.5 c 128,-1,2
 110 51 110 51 79 102.5 c 128,-1,3
 48 154 48 154 48 224 c 0,4,5
 48 314 48 314 87 384 c 128,-1,6
 126 454 126 454 193.5 494.5 c 128,-1,7
 261 535 261 535 347 535 c 0,8,9
 419 535 419 535 472 507.5 c 0,10,11
 520 482 520 482 554.5 429 c 0,12,13
 591.359375 370.23828125 591.359375 370.23828125 581 277 c 5,14,-1
 73 182 l 5,15,-1
 85 252 l 5,16,-1
 535 347 l 5,17,-1
 492 281 l 1,18,19
 501 337 501 337 484 375.5 c 128,-1,20
 467 414 467 414 430.5 434.5 c 128,-1,21
 394 455 394 455 343 455 c 0,22,23
 283 455 283 455 237.5 426.5 c 128,-1,24
 192 398 192 398 167 347.5 c 128,-1,25
 142 297 142 297 142 229 c 0,26,27
 142 157 142 157 183.5 117.5 c 128,-1,28
 225 78 225 78 310 78 c 0,29,30
 360 78 360 78 403 94.5 c 128,-1,31
 446 111 446 111 474 139 c 1,32,-1
 515 70 l 1,33,34
 477 33 477 33 420 13.5 c 128,-1,35
 363 -6 363 -6 302 -6 c 0,0,1
EndSplineSet
Substitution2: "'ss01' Style Set 1 lookup 50 subtable" e.ss01
Substitution2: "'smcp' Lowercase to Small Capitals lookup 46 subtable" e.sc
AlternateSubs2: "'aalt' Access All Alternates lookup 1 subtable" e.sc e.ss01
EndChar

StartChar: eogonek
Encoding: 281 281 676
Width: 631
GlyphClass: 2
Flags: W
AnchorPoint: "Anchor-3" 364 529 basechar 0
LayerCount: 2
Fore
SplineSet
356 -224 m 0,0,1
 312 -224 312 -224 283 -201 c 128,-1,2
 254 -178 254 -178 254 -136 c 0,3,4
 254 -106 254 -106 265.5 -79.5 c 128,-1,5
 277 -53 277 -53 301 -28.5 c 128,-1,6
 325 -4 325 -4 362 17 c 1,7,-1
 382 3 l 1,8,9
 357 -2 357 -2 337.5 -4 c 128,-1,10
 318 -6 318 -6 302 -6 c 0,11,12
 224 -6 224 -6 167 22.5 c 128,-1,13
 110 51 110 51 79 102.5 c 128,-1,14
 48 154 48 154 48 224 c 0,15,16
 48 314 48 314 87 384 c 128,-1,17
 126 454 126 454 193.5 494.5 c 128,-1,18
 261 535 261 535 347 535 c 0,19,20
 419 535 419 535 472 507.5 c 0,21,22
 524.3515625 480.336914062 524.3515625 480.336914062 555 429 c 0,23,24
 594 362 594 362 581 277 c 1,25,-1
 73 182 l 1,26,-1
 85 252 l 1,27,-1
 536 347 l 1,28,-1
 492 281 l 1,29,30
 501 337 501 337 484 375.5 c 128,-1,31
 467 414 467 414 430.5 434.5 c 128,-1,32
 394 455 394 455 343 455 c 0,33,34
 283 455 283 455 238 426.5 c 128,-1,35
 193 398 193 398 167.5 347.5 c 128,-1,36
 142 297 142 297 142 229 c 0,37,38
 142 157 142 157 183.5 117.5 c 128,-1,39
 225 78 225 78 310 78 c 0,40,41
 360 78 360 78 403 94 c 128,-1,42
 446 110 446 110 475 139 c 1,43,-1
 516 70 l 1,44,45
 505 60 505 60 493 51.5 c 128,-1,46
 481 43 481 43 472 37 c 0,47,48
 390 -8 390 -8 355.5 -48 c 128,-1,49
 321 -88 321 -88 321 -122 c 0,50,51
 321 -144 321 -144 334.5 -156 c 128,-1,52
 348 -168 348 -168 371 -168 c 0,53,54
 388 -168 388 -168 404.5 -163 c 128,-1,55
 421 -158 421 -158 436 -150 c 1,56,-1
 447 -200 l 1,57,58
 428 -211 428 -211 405.5 -217.5 c 128,-1,59
 383 -224 383 -224 356 -224 c 0,0,1
EndSplineSet
Substitution2: "'ss01' Style Set 1 lookup 50 subtable" eogonek.ss01
Substitution2: "'smcp' Lowercase to Small Capitals lookup 46 subtable" eogonek.sc
Substitution2: "'locl' Localized Forms in Latin lookup 15 subtable" eogonek.loclNAV
AlternateSubs2: "'aalt' Access All Alternates lookup 1 subtable" eogonek.loclNAV eogonek.sc eogonek.ss01
EndChar

StartChar: uni025B
Encoding: 603 603 677
Width: 579
GlyphClass: 2
Flags: W
AnchorPoint: "Anchor-3" 364 530 basechar 0
AnchorPoint: "Anchor-2" 313 0 basechar 0
AnchorPoint: "Anchor-0" 259 0 basechar 0
LayerCount: 2
Fore
SplineSet
256 -7 m 0,0,1
 198 -7 198 -7 148 9.5 c 128,-1,2
 98 26 98 26 68 59.5 c 128,-1,3
 38 93 38 93 38 144 c 256,4,5
 38 195 38 195 67.5 228.5 c 128,-1,6
 97 262 97 262 147 278.5 c 128,-1,7
 197 295 197 295 258 295 c 1,8,-1
 257 268 l 1,9,10
 188 268 188 268 145 296.5 c 128,-1,11
 102 325 102 325 102 383 c 0,12,13
 102 423 102 423 122 451.5 c 128,-1,14
 142 480 142 480 177 499 c 128,-1,15
 212 518 212 518 255.5 527 c 128,-1,16
 299 536 299 536 345 536 c 0,17,18
 402 536 402 536 456 523.5 c 128,-1,19
 510 511 510 511 549 488 c 1,20,-1
 509 414 l 1,21,22
 488 426 488 426 459 435.5 c 128,-1,23
 430 445 430 445 398.5 449.5 c 128,-1,24
 367 454 367 454 335 454 c 0,25,26
 299 454 299 454 267.5 446 c 128,-1,27
 236 438 236 438 217 420.5 c 128,-1,28
 198 403 198 403 198 374 c 0,29,30
 198 352 198 352 210.5 337.5 c 128,-1,31
 223 323 223 323 246.5 315.5 c 128,-1,32
 270 308 270 308 301 308 c 2,33,-1
 401 308 l 1,34,-1
 388 239 l 1,35,-1
 273 238 l 2,36,37
 234 238 234 238 204.5 229 c 128,-1,38
 175 220 175 220 158 202 c 128,-1,39
 141 184 141 184 141 156 c 0,40,41
 141 126 141 126 159 108.5 c 128,-1,42
 177 91 177 91 207 83.5 c 128,-1,43
 237 76 237 76 272 76 c 0,44,45
 306 76 306 76 341.5 82 c 128,-1,46
 377 88 377 88 410.5 100 c 128,-1,47
 444 112 444 112 469 126 c 1,48,-1
 489 52 l 1,49,50
 434 22 434 22 374.5 7.5 c 128,-1,51
 315 -7 315 -7 256 -7 c 0,0,1
EndSplineSet
Substitution2: "'smcp' Lowercase to Small Capitals lookup 46 subtable" uni025B.sc
Substitution2: "'aalt' Access All Alternates lookup 0 subtable" uni025B.sc
EndChar

StartChar: uni0258
Encoding: 600 600 679
Width: 631
GlyphClass: 2
Flags: W
AnchorPoint: "Anchor-3" 362 528 basechar 0
AnchorPoint: "Anchor-0" 256 0 basechar 0
LayerCount: 2
Fore
SplineSet
329 535 m 0,0,1
 408 535 408 535 464.5 506.5 c 128,-1,2
 521 478 521 478 552 427 c 128,-1,3
 583 376 583 376 583 306 c 0,4,5
 583 216 583 216 544 146 c 128,-1,6
 505 76 505 76 438 35 c 128,-1,7
 371 -6 371 -6 284 -6 c 0,8,9
 213 -6 213 -6 159.5 22 c 128,-1,10
 106 50 106 50 76.5 101 c 128,-1,11
 47 152 47 152 47 224 c 0,12,13
 47 243 47 243 49 260.5 c 128,-1,14
 51 278 51 278 54 294 c 1,15,-1
 513 294 l 1,16,-1
 501 225 l 1,17,-1
 100 225 l 1,18,-1
 139 249 l 1,19,20
 130 194 130 194 147 155 c 128,-1,21
 164 116 164 116 201 95.5 c 128,-1,22
 238 75 238 75 288 75 c 0,23,24
 349 75 349 75 394 103.5 c 128,-1,25
 439 132 439 132 464 183 c 128,-1,26
 489 234 489 234 489 301 c 0,27,28
 489 373 489 373 448 412 c 128,-1,29
 407 451 407 451 321 451 c 0,30,31
 271 451 271 451 228.5 435 c 128,-1,32
 186 419 186 419 156 390 c 1,33,-1
 116 460 l 1,34,35
 155 497 155 497 211.5 516 c 128,-1,36
 268 535 268 535 329 535 c 0,0,1
EndSplineSet
Substitution2: "'ss01' Style Set 1 lookup 50 subtable" uni0258.ss01
Substitution2: "'smcp' Lowercase to Small Capitals lookup 46 subtable" uni0258.sc
AlternateSubs2: "'aalt' Access All Alternates lookup 1 subtable" uni0258.sc uni0258.ss01
EndChar

StartChar: uni0283
Encoding: 643 643 680
Width: 305
GlyphClass: 1
Flags: W
LayerCount: 2
Fore
SplineSet
-51 -200 m 0,0,1
 -84 -200 -84 -200 -111 -193 c 128,-1,2
 -138 -186 -138 -186 -159 -173 c 1,3,-1
 -118 -99 l 1,4,5
 -105 -108 -105 -108 -87 -113.5 c 128,-1,6
 -69 -119 -69 -119 -50 -119 c 0,7,8
 -10 -119 -10 -119 13 -96.5 c 128,-1,9
 36 -74 36 -74 46 -25 c 2,10,-1
 166 573 l 2,11,12
 200 748 200 748 359 748 c 0,13,14
 392 748 392 748 419.5 741 c 128,-1,15
 447 734 447 734 467 721 c 1,16,-1
 426 647 l 1,17,18
 413 656 413 656 395 661.5 c 128,-1,19
 377 667 377 667 358 667 c 0,20,21
 319 667 319 667 295.5 644.5 c 128,-1,22
 272 622 272 622 262 573 c 2,23,-1
 142 -25 l 2,24,25
 125 -112 125 -112 77 -156 c 128,-1,26
 29 -200 29 -200 -51 -200 c 0,0,1
EndSplineSet
Substitution2: "'smcp' Lowercase to Small Capitals lookup 46 subtable" uni0283.sc
Substitution2: "'aalt' Access All Alternates lookup 0 subtable" uni0283.sc
EndChar

